SourceCodeProM1.ufo
<glyph name="dollar" format="1">
  <advance width="600"/>
  <unicode hex="0024"/>
  <outline>
    <contour>
      <point x="520" y="530" type="line"/>
      <point x="478" y="573"/>
      <point x="427" y="604"/>
      <point x="359" y="615" type="curve"/>
      <point x="359" y="744" type="line"/>
      <point x="247" y="744" type="line"/>
      <point x="247" y="613" type="line"/>
      <point x="144" y="595"/>
      <point x="82" y="533"/>
      <point x="82" y="446" type="curve" smooth="yes"/>
      <point x="82" y="258"/>
      <point x="364" y="270"/>
      <point x="364" y="202" type="curve" smooth="yes"/>
      <point x="364" y="182"/>
      <point x="345" y="172"/>
      <point x="308" y="172" type="curve" smooth="yes"/>
      <point x="250" y="172"/>
      <point x="198" y="192"/>
      <point x="130" y="232" type="curve"/>
      <point x="56" y="116" type="line"/>
      <point x="108" y="71"/>
      <point x="184" y="44"/>
      <point x="247" y="36" type="curve"/>
      <point x="247" y="-110" type="line"/>
      <point x="359" y="-110" type="line"/>
      <point x="359" y="41" type="line"/>
      <point x="471" y="62"/>
      <point x="528" y="131"/>
      <point x="528" y="214" type="curve" smooth="yes"/>
      <point x="528" y="396"/>
      <point x="246" y="392"/>
      <point x="246" y="448" type="curve" smooth="yes"/>
      <point x="246" y="469"/>
      <point x="264" y="480"/>
      <point x="300" y="480" type="curve" smooth="yes"/>
      <point x="351" y="480"/>
      <point x="388" y="464"/>
      <point x="436" y="432" type="curve"/>
    </contour>
  </outline>
</glyph>
<glyph name="ampersand" format="1">
  <advance width="600"/>
  <unicode hex="0026"/>
  <outline>
    <contour>
      <point x="178" y="186" type="curve" smooth="yes"/>
      <point x="178" y="204"/>
      <point x="183" y="221"/>
      <point x="192" y="236" type="curve"/>
      <point x="223" y="199"/>
      <point x="258" y="163"/>
      <point x="295" y="131" type="curve"/>
      <point x="281" y="123"/>
      <point x="266" y="118"/>
      <point x="252" y="118" type="curve" smooth="yes"/>
      <point x="206" y="118"/>
      <point x="178" y="146"/>
    </contour>
    <contour>
      <point x="213" y="486" type="curve" smooth="yes"/>
      <point x="213" y="528"/>
      <point x="227" y="550"/>
      <point x="244" y="550" type="curve" smooth="yes"/>
      <point x="269" y="550"/>
      <point x="278" y="536"/>
      <point x="278" y="508" type="curve" smooth="yes"/>
      <point x="278" y="474"/>
      <point x="257" y="449"/>
      <point x="227" y="426" type="curve"/>
      <point x="218" y="447"/>
      <point x="213" y="467"/>
    </contour>
    <contour>
      <point x="436" y="374" type="line"/>
      <point x="426" y="322"/>
      <point x="410" y="277"/>
      <point x="390" y="239" type="curve"/>
      <point x="354" y="267"/>
      <point x="320" y="298"/>
      <point x="292" y="330" type="curve"/>
      <point x="350" y="376"/>
      <point x="408" y="426"/>
      <point x="408" y="508" type="curve" smooth="yes"/>
      <point x="408" y="602"/>
      <point x="344" y="662"/>
      <point x="240" y="662" type="curve" smooth="yes"/>
      <point x="136" y="662"/>
      <point x="72" y="580"/>
      <point x="72" y="486" type="curve" smooth="yes"/>
      <point x="72" y="447"/>
      <point x="87" y="400"/>
      <point x="114" y="351" type="curve"/>
      <point x="61" y="312"/>
      <point x="16" y="261"/>
      <point x="16" y="176" type="curve" smooth="yes"/>
      <point x="16" y="78"/>
      <point x="86" y="-12"/>
      <point x="230" y="-12" type="curve" smooth="yes"/>
      <point x="302" y="-12"/>
      <point x="362" y="10"/>
      <point x="411" y="47" type="curve"/>
      <point x="457" y="18"/>
      <point x="503" y="-1"/>
      <point x="550" y="-12" type="curve"/>
      <point x="590" y="126" type="line"/>
      <point x="565" y="131"/>
      <point x="537" y="143"/>
      <point x="507" y="161" type="curve"/>
      <point x="546" y="227"/>
      <point x="573" y="298"/>
      <point x="592" y="374" type="curve"/>
    </contour>
  </outline>
</glyph>
<glyph name="plus" format="1">
  <advance width="600"/>
  <unicode hex="002B"/>
  <outline>
    <contour>
      <point x="238" y="70" type="line"/>
      <point x="362" y="70" type="line"/>
      <point x="362" y="250" type="line"/>
      <point x="536" y="250" type="line"/>
      <point x="536" y="370" type="line"/>
      <point x="362" y="370" type="line"/>
      <point x="362" y="550" type="line"/>
      <point x="238" y="550" type="line"/>
      <point x="238" y="370" type="line"/>
      <point x="64" y="370" type="line"/>
      <point x="64" y="250" type="line"/>
      <point x="238" y="250" type="line"/>
    </contour>
  </outline>
</glyph>
<glyph name="zero" format="1">
  <advance width="600"/>
  <unicode hex="0030"/>
  <outline>
    <contour>
      <point x="300" y="-12" type="curve" smooth="yes"/>
      <point x="449" y="-12"/>
      <point x="550" y="103"/>
      <point x="550" y="320" type="curve" smooth="yes"/>
      <point x="550" y="537"/>
      <point x="449" y="646"/>
      <point x="300" y="646" type="curve" smooth="yes"/>
      <point x="151" y="646"/>
      <point x="50" y="537"/>
      <point x="50" y="320" type="curve" smooth="yes"/>
      <point x="50" y="103"/>
      <point x="151" y="-12"/>
    </contour>
    <contour>
      <point x="300" y="514" type="curve" smooth="yes"/>
      <point x="353" y="514"/>
      <point x="398" y="478"/>
      <point x="398" y="320" type="curve" smooth="yes"/>
      <point x="398" y="162"/>
      <point x="353" y="120"/>
      <point x="300" y="120" type="curve" smooth="yes"/>
      <point x="247" y="120"/>
      <point x="202" y="162"/>
      <point x="202" y="320" type="curve" smooth="yes"/>
      <point x="202" y="478"/>
      <point x="247" y="514"/>
    </contour>
    <contour>
      <point x="300" y="240" type="curve" smooth="yes"/>
      <point x="346" y="240"/>
      <point x="380" y="272"/>
      <point x="380" y="320" type="curve" smooth="yes"/>
      <point x="380" y="368"/>
      <point x="346" y="400"/>
      <point x="300" y="400" type="curve" smooth="yes"/>
      <point x="254" y="400"/>
      <point x="220" y="368"/>
      <point x="220" y="320" type="curve" smooth="yes"/>
      <point x="220" y="272"/>
      <point x="254" y="240"/>
    </contour>
  </outline>
</glyph>
<glyph name="four" format="1">
  <advance width="600"/>
  <unicode hex="0034"/>
  <outline>
    <contour>
      <point x="195" y="272" type="line"/>
      <point x="261" y="380" type="line" smooth="yes"/>
      <point x="284" y="418"/>
      <point x="311" y="456"/>
      <point x="332" y="494" type="curve"/>
      <point x="336" y="494" type="line"/>
      <point x="334" y="451"/>
      <point x="330" y="387"/>
      <point x="330" y="344" type="curve" smooth="yes"/>
      <point x="330" y="272" type="line"/>
    </contour>
    <contour>
      <point x="563" y="272" type="line"/>
      <point x="490" y="272" type="line"/>
      <point x="490" y="634" type="line"/>
      <point x="278" y="634" type="line"/>
      <point x="33" y="262" type="line"/>
      <point x="33" y="142" type="line"/>
      <point x="330" y="142" type="line"/>
      <point x="330" y="0" type="line"/>
      <point x="490" y="0" type="line"/>
      <point x="490" y="142" type="line"/>
      <point x="563" y="142" type="line"/>
    </contour>
  </outline>
</glyph>
<glyph name="five" format="1">
  <advance width="600"/>
  <unicode hex="0035"/>
  <outline>
    <contour>
      <point x="42" y="78" type="line"/>
      <point x="96" y="26"/>
      <point x="173" y="-12"/>
      <point x="282" y="-12" type="curve" smooth="yes"/>
      <point x="416" y="-12"/>
      <point x="536" y="70"/>
      <point x="536" y="212" type="curve" smooth="yes"/>
      <point x="536" y="346"/>
      <point x="433" y="408"/>
      <point x="318" y="408" type="curve" smooth="yes"/>
      <point x="293" y="408"/>
      <point x="274" y="406"/>
      <point x="248" y="398" type="curve"/>
      <point x="256" y="490" type="line"/>
      <point x="508" y="490" type="line"/>
      <point x="508" y="634" type="line"/>
      <point x="108" y="634" type="line"/>
      <point x="92" y="308" type="line"/>
      <point x="166" y="260" type="line"/>
      <point x="208" y="284"/>
      <point x="226" y="290"/>
      <point x="264" y="290" type="curve" smooth="yes"/>
      <point x="320" y="290"/>
      <point x="364" y="262"/>
      <point x="364" y="208" type="curve" smooth="yes"/>
      <point x="364" y="152"/>
      <point x="322" y="126"/>
      <point x="256" y="126" type="curve" smooth="yes"/>
      <point x="206" y="126"/>
      <point x="159" y="152"/>
      <point x="118" y="186" type="curve"/>
    </contour>
  </outline>
</glyph>
<glyph name="six" format="1">
  <advance width="600"/>
  <unicode hex="0036"/>
  <outline>
    <contour>
      <point x="312" y="116" type="curve" smooth="yes"/>
      <point x="278" y="116"/>
      <point x="233" y="136"/>
      <point x="216" y="226" type="curve"/>
      <point x="249" y="265"/>
      <point x="283" y="280"/>
      <point x="316" y="280" type="curve" smooth="yes"/>
      <point x="360" y="280"/>
      <point x="394" y="260"/>
      <point x="394" y="204" type="curve" smooth="yes"/>
      <point x="394" y="137"/>
      <point x="353" y="116"/>
    </contour>
    <contour>
      <point x="542" y="566" type="line"/>
      <point x="498" y="608"/>
      <point x="425" y="646"/>
      <point x="330" y="646" type="curve" smooth="yes"/>
      <point x="189" y="646"/>
      <point x="54" y="536"/>
      <point x="54" y="306" type="curve" smooth="yes"/>
      <point x="54" y="76"/>
      <point x="189" y="-12"/>
      <point x="316" y="-12" type="curve" smooth="yes"/>
      <point x="441" y="-12"/>
      <point x="550" y="68"/>
      <point x="550" y="204" type="curve" smooth="yes"/>
      <point x="550" y="340"/>
      <point x="462" y="400"/>
      <point x="354" y="400" type="curve" smooth="yes"/>
      <point x="313" y="400"/>
      <point x="254" y="377"/>
      <point x="211" y="335" type="curve"/>
      <point x="218" y="464"/>
      <point x="278" y="508"/>
      <point x="346" y="508" type="curve" smooth="yes"/>
      <point x="386" y="508"/>
      <point x="428" y="486"/>
      <point x="452" y="464" type="curve"/>
    </contour>
  </outline>
</glyph>
<glyph name="seven" format="1">
  <advance width="600"/>
  <unicode hex="0037"/>
  <outline>
    <contour>
      <point x="180" y="0" type="curve"/>
      <point x="352" y="0" type="line"/>
      <point x="365" y="247"/>
      <point x="384" y="357"/>
      <point x="542" y="528" type="curve"/>
      <point x="542" y="634" type="line"/>
      <point x="59" y="634" type="line"/>
      <point x="59" y="490" type="line"/>
      <point x="359" y="490" type="line"/>
      <point x="231" y="327"/>
      <point x="193" y="200"/>
    </contour>
  </outline>
</glyph>
<glyph name="nine" format="1">
  <advance width="600"/>
  <unicode hex="0039"/>
  <outline>
    <contour>
      <point x="282" y="354" type="curve" smooth="yes"/>
      <point x="238" y="354"/>
      <point x="204" y="374"/>
      <point x="204" y="430" type="curve" smooth="yes"/>
      <point x="204" y="497"/>
      <point x="245" y="518"/>
      <point x="286" y="518" type="curve" smooth="yes"/>
      <point x="320" y="518"/>
      <point x="365" y="498"/>
      <point x="382" y="408" type="curve"/>
      <point x="349" y="369"/>
      <point x="315" y="354"/>
    </contour>
    <contour>
      <point x="56" y="68" type="line"/>
      <point x="100" y="26"/>
      <point x="173" y="-12"/>
      <point x="268" y="-12" type="curve" smooth="yes"/>
      <point x="409" y="-12"/>
      <point x="544" y="98"/>
      <point x="544" y="328" type="curve" smooth="yes"/>
      <point x="544" y="558"/>
      <point x="409" y="646"/>
      <point x="282" y="646" type="curve" smooth="yes"/>
      <point x="157" y="646"/>
      <point x="48" y="566"/>
      <point x="48" y="430" type="curve" smooth="yes"/>
      <point x="48" y="294"/>
      <point x="136" y="234"/>
      <point x="244" y="234" type="curve" smooth="yes"/>
      <point x="285" y="234"/>
      <point x="344" y="257"/>
      <point x="387" y="299" type="curve"/>
      <point x="380" y="170"/>
      <point x="320" y="126"/>
      <point x="252" y="126" type="curve" smooth="yes"/>
      <point x="212" y="126"/>
      <point x="170" y="148"/>
      <point x="146" y="170" type="curve"/>
    </contour>
  </outline>
</glyph>
<glyph name="colon" format="1">
  <advance width="600"/>
  <unicode hex="003A"/>
  <outline>
    <contour>
      <point x="170" y="428" type="curve" smooth="yes"/>
      <point x="170" y="356"/>
      <point x="222" y="298"/>
      <point x="300" y="298" type="curve" smooth="yes"/>
      <point x="378" y="298"/>
      <point x="430" y="356"/>
      <point x="430" y="428" type="curve" smooth="yes"/>
      <point x="430" y="499"/>
      <point x="378" y="558"/>
      <point x="300" y="558" type="curve" smooth="yes"/>
      <point x="222" y="558"/>
      <point x="170" y="499"/>
    </contour>
    <contour>
      <point x="170" y="118" type="curve" smooth="yes"/>
      <point x="170" y="46"/>
      <point x="222" y="-12"/>
      <point x="300" y="-12" type="curve" smooth="yes"/>
      <point x="378" y="-12"/>
      <point x="430" y="46"/>
      <point x="430" y="118" type="curve" smooth="yes"/>
      <point x="430" y="189"/>
      <point x="378" y="248"/>
      <point x="300" y="248" type="curve" smooth="yes"/>
      <point x="222" y="248"/>
      <point x="170" y="189"/>
    </contour>
  </outline>
</glyph>
<glyph name="equal" format="1">
  <advance width="600"/>
  <unicode hex="003D"/>
  <outline>
    <contour>
      <point x="64" y="370" type="line"/>
      <point x="536" y="370" type="line"/>
      <point x="536" y="490" type="line"/>
      <point x="64" y="490" type="line"/>
    </contour>
    <contour>
      <point x="64" y="130" type="line"/>
      <point x="536" y="130" type="line"/>
      <point x="536" y="250" type="line"/>
      <point x="64" y="250" type="line"/>
    </contour>
  </outline>
</glyph>
<glyph name="greater" format="1">
  <advance width="600"/>
  <unicode hex="003E"/>
  <outline>
    <contour>
      <point x="486" y="370" type="line"/>
      <point x="94" y="620" type="line"/>
      <point x="94" y="466" type="line"/>
      <point x="346" y="314" type="line"/>
      <point x="346" y="310" type="line"/>
      <point x="94" y="158" type="line"/>
      <point x="94" y="4" type="line"/>
      <point x="486" y="254" type="line"/>
    </contour>
  </outline>
</glyph>
<glyph name="A" format="1">
  <advance width="600"/>
  <unicode hex="0041"/>
  <outline>
    <contour>
      <point x="239" y="271" type="line"/>
      <point x="249" y="316" type="line" smooth="yes"/>
      <point x="263" y="378"/>
      <point x="280" y="456"/>
      <point x="294" y="522" type="curve"/>
      <point x="298" y="522" type="line"/>
      <point x="314" y="457"/>
      <point x="331" y="378"/>
      <point x="345" y="316" type="curve" smooth="yes"/>
      <point x="355" y="271" type="line"/>
    </contour>
    <contour>
      <point x="418" y="0" type="line"/>
      <point x="600" y="0" type="line"/>
      <point x="404" y="650" type="line"/>
      <point x="196" y="650" type="line"/>
      <point x="0" y="0" type="line"/>
      <point x="176" y="0" type="line"/>
      <point x="208" y="138" type="line"/>
      <point x="386" y="138" type="line"/>
    </contour>
  </outline>
</glyph>
<glyph name="B" format="1">
  <advance width="600"/>
  <unicode hex="0042"/>
  <outline>
    <contour>
      <point x="76" y="0" type="line"/>
      <point x="310" y="0" type="line" smooth="yes"/>
      <point x="450" y="0"/>
      <point x="562" y="58"/>
      <point x="562" y="192" type="curve" smooth="yes"/>
      <point x="562" y="278"/>
      <point x="516" y="326"/>
      <point x="424" y="344" type="curve"/>
      <point x="424" y="348" type="line"/>
      <point x="500" y="368"/>
      <point x="534" y="432"/>
      <point x="534" y="488" type="curve" smooth="yes"/>
      <point x="534" y="616"/>
      <point x="426" y="650"/>
      <point x="290" y="650" type="curve" smooth="yes"/>
      <point x="76" y="650" type="line"/>
    </contour>
    <contour>
      <point x="248" y="394" type="line"/>
      <point x="248" y="518" type="line"/>
      <point x="286" y="518" type="line" smooth="yes"/>
      <point x="342" y="518"/>
      <point x="366" y="502"/>
      <point x="366" y="462" type="curve" smooth="yes"/>
      <point x="366" y="422"/>
      <point x="342" y="394"/>
      <point x="286" y="394" type="curve" smooth="yes"/>
    </contour>
    <contour>
      <point x="248" y="132" type="line"/>
      <point x="248" y="274" type="line"/>
      <point x="298" y="274" type="line" smooth="yes"/>
      <point x="366" y="274"/>
      <point x="394" y="254"/>
      <point x="394" y="206" type="curve" smooth="yes"/>
      <point x="394" y="158"/>
      <point x="366" y="132"/>
      <point x="298" y="132" type="curve" smooth="yes"/>
    </contour>
  </outline>
</glyph>
<glyph name="H" format="1">
  <advance width="600"/>
  <unicode hex="0048"/>
  <outline>
    <contour>
      <point x="58" y="0" type="line"/>
      <point x="230" y="0" type="line"/>
      <point x="230" y="258" type="line"/>
      <point x="370" y="258" type="line"/>
      <point x="370" y="0" type="line"/>
      <point x="542" y="0" type="line"/>
      <point x="542" y="650" type="line"/>
      <point x="370" y="650" type="line"/>
      <point x="370" y="408" type="line"/>
      <point x="230" y="408" type="line"/>
      <point x="230" y="650" type="line"/>
      <point x="58" y="650" type="line"/>
    </contour>
  </outline>
</glyph>
<glyph name="K" format="1">
  <advance width="600"/>
  <unicode hex="004B"/>
  <outline>
    <contour>
      <point x="57" y="0" type="line"/>
      <point x="230" y="0" type="line"/>
      <point x="230" y="162" type="line"/>
      <point x="292" y="250" type="line"/>
      <point x="410" y="0" type="line"/>
      <point x="599" y="0" type="line"/>
      <point x="392" y="386" type="line"/>
      <point x="583" y="650" type="line"/>
      <point x="394" y="650" type="line"/>
      <point x="234" y="408" type="line"/>
      <point x="230" y="408" type="line"/>
      <point x="230" y="650" type="line"/>
      <point x="57" y="650" type="line"/>
    </contour>
  </outline>
</glyph>
<glyph name="bracketleft" format="1">
  <advance width="600"/>
  <unicode hex="005B"/>
  <outline>
    <contour>
      <point x="191" y="-152" type="line"/>
      <point x="494" y="-152" type="line"/>
      <point x="494" y="-62" type="line"/>
      <point x="321" y="-62" type="line"/>
      <point x="321" y="618" type="line"/>
      <point x="494" y="618" type="line"/>
      <point x="494" y="708" type="line"/>
      <point x="191" y="708" type="line"/>
    </contour>
  </outline>
</glyph>
<glyph name="bracketright" format="1">
  <advance width="600"/>
  <unicode hex="005D"/>
  <outline>
    <contour>
      <point x="107" y="-62" type="line"/>
      <point x="107" y="-152" type="line"/>
      <point x="410" y="-152" type="line"/>
      <point x="410" y="708" type="line"/>
      <point x="107" y="708" type="line"/>
      <point x="107" y="618" type="line"/>
      <point x="279" y="618" type="line"/>
      <point x="279" y="-62" type="line"/>
    </contour>
  </outline>
</glyph>
<glyph name="underscore" format="1">
  <advance width="600"/>
  <unicode hex="005F"/>
  <outline>
    <contour>
      <point x="60" y="-48" type="line"/>
      <point x="60" y="-174" type="line"/>
      <point x="540" y="-174" type="line"/>
      <point x="540" y="-48" type="line"/>
    </contour>
  </outline>
</glyph>
<glyph name="grave" format="1">
  <advance width="600"/>
  <unicode hex="0060"/>
  <outline>
    <contour>
      <point x="264" y="574" type="line"/>
      <point x="388" y="574" type="line"/>
      <point x="300" y="748" type="line"/>
      <point x="126" y="748" type="line"/>
    </contour>
  </outline>
</glyph>
<glyph name="g" format="1">
  <advance width="600"/>
  <unicode hex="0067"/>
  <outline>
    <contour>
      <point x="183" y="-54" type="curve" smooth="yes"/>
      <point x="183" y="-40"/>
      <point x="191" y="-30"/>
      <point x="208" y="-18" type="curve"/>
      <point x="225" y="-22"/>
      <point x="245" y="-24"/>
      <point x="284" y="-24" type="curve" smooth="yes"/>
      <point x="334" y="-24" type="line" smooth="yes"/>
      <point x="384" y="-24"/>
      <point x="412" y="-28"/>
      <point x="412" y="-54" type="curve" smooth="yes"/>
      <point x="412" y="-82"/>
      <point x="363" y="-100"/>
      <point x="296" y="-100" type="curve" smooth="yes"/>
      <point x="229" y="-100"/>
      <point x="183" y="-86"/>
    </contour>
    <contour>
      <point x="44" y="-82" type="curve" smooth="yes"/>
      <point x="44" y="-172"/>
      <point x="145" y="-206"/>
      <point x="269" y="-206" type="curve" smooth="yes"/>
      <point x="456" y="-206"/>
      <point x="575" y="-132"/>
      <point x="575" y="-24" type="curve" smooth="yes"/>
      <point x="575" y="68"/>
      <point x="499" y="106"/>
      <point x="367" y="106" type="curve" smooth="yes"/>
      <point x="282" y="106" type="line" smooth="yes"/>
      <point x="226" y="106"/>
      <point x="204" y="114"/>
      <point x="204" y="136" type="curve" smooth="yes"/>
      <point x="204" y="150"/>
      <point x="208" y="156"/>
      <point x="220" y="165" type="curve"/>
      <point x="244" y="160"/>
      <point x="265" y="158"/>
      <point x="283" y="158" type="curve" smooth="yes"/>
      <point x="402" y="158"/>
      <point x="494" y="206"/>
      <point x="494" y="324" type="curve" smooth="yes"/>
      <point x="494" y="344"/>
      <point x="487" y="364"/>
      <point x="480" y="376" type="curve"/>
      <point x="570" y="376" type="line"/>
      <point x="570" y="500" type="line"/>
      <point x="368" y="500" type="line"/>
      <point x="343" y="508"/>
      <point x="313" y="512"/>
      <point x="283" y="512" type="curve" smooth="yes"/>
      <point x="167" y="512"/>
      <point x="62" y="454"/>
      <point x="62" y="330" type="curve" smooth="yes"/>
      <point x="62" y="272"/>
      <point x="92" y="226"/>
      <point x="130" y="202" type="curve"/>
      <point x="130" y="198" type="line"/>
      <point x="95" y="174"/>
      <point x="70" y="138"/>
      <point x="70" y="104" type="curve" smooth="yes"/>
      <point x="70" y="62"/>
      <point x="92" y="36"/>
      <point x="120" y="18" type="curve"/>
      <point x="120" y="14" type="line"/>
      <point x="70" y="-10"/>
      <point x="44" y="-41"/>
    </contour>
    <contour>
      <point x="283" y="260" type="curve" smooth="yes"/>
      <point x="250" y="260"/>
      <point x="223" y="282"/>
      <point x="223" y="330" type="curve" smooth="yes"/>
      <point x="223" y="376"/>
      <point x="250" y="398"/>
      <point x="283" y="398" type="curve" smooth="yes"/>
      <point x="316" y="398"/>
      <point x="344" y="376"/>
      <point x="344" y="330" type="curve" smooth="yes"/>
      <point x="344" y="282"/>
      <point x="316" y="260"/>
    </contour>
  </outline>
</glyph>
<glyph name="h" format="1">
  <advance width="600"/>
  <unicode hex="0068"/>
  <outline>
    <contour>
      <point x="64" y="0" type="line"/>
      <point x="236" y="0" type="line"/>
      <point x="236" y="328" type="line"/>
      <point x="262" y="352"/>
      <point x="284" y="366"/>
      <point x="316" y="366" type="curve" smooth="yes"/>
      <point x="360" y="366"/>
      <point x="374" y="342"/>
      <point x="374" y="286" type="curve" smooth="yes"/>
      <point x="374" y="0" type="line"/>
      <point x="546" y="0" type="line"/>
      <point x="546" y="308" type="line" smooth="yes"/>
      <point x="546" y="432"/>
      <point x="498" y="512"/>
      <point x="388" y="512" type="curve" smooth="yes"/>
      <point x="314" y="512"/>
      <point x="260" y="478"/>
      <point x="227" y="446" type="curve"/>
      <point x="236" y="534" type="line"/>
      <point x="236" y="696" type="line"/>
      <point x="64" y="696" type="line"/>
    </contour>
  </outline>
</glyph>
<glyph name="i" format="1">
  <advance width="600"/>
  <unicode hex="0069"/>
  <outline>
    <contour>
      <point x="74" y="366" type="line"/>
      <point x="264" y="366" type="line"/>
      <point x="264" y="0" type="line"/>
      <point x="436" y="0" type="line"/>
      <point x="436" y="500" type="line"/>
      <point x="74" y="500" type="line"/>
    </contour>
    <contour>
      <point x="344" y="562" type="curve" smooth="yes"/>
      <point x="408" y="562"/>
      <point x="454" y="602"/>
      <point x="454" y="662" type="curve" smooth="yes"/>
      <point x="454" y="722"/>
      <point x="408" y="764"/>
      <point x="344" y="764" type="curve" smooth="yes"/>
      <point x="280" y="764"/>
      <point x="234" y="722"/>
      <point x="234" y="662" type="curve" smooth="yes"/>
      <point x="234" y="602"/>
      <point x="280" y="562"/>
    </contour>
  </outline>
</glyph>
<glyph name="k" format="1">
  <advance width="600"/>
  <unicode hex="006B"/>
  <outline>
    <contour>
      <point x="64" y="0" type="line"/>
      <point x="236" y="0" type="line"/>
      <point x="236" y="120" type="line"/>
      <point x="295" y="178" type="line"/>
      <point x="404" y="0" type="line"/>
      <point x="590" y="0" type="line"/>
      <point x="393" y="292" type="line"/>
      <point x="578" y="500" type="line"/>
      <point x="392" y="500" type="line"/>
      <point x="240" y="326" type="line"/>
      <point x="236" y="326" type="line"/>
      <point x="236" y="696" type="line"/>
      <point x="64" y="696" type="line"/>
    </contour>
  </outline>
</glyph>
<glyph name="q" format="1">
  <advance width="600"/>
  <unicode hex="0071"/>
  <outline>
    <contour>
      <point x="42" y="250" type="curve" smooth="yes"/>
      <point x="42" y="88"/>
      <point x="124" y="-12"/>
      <point x="251" y="-12" type="curve" smooth="yes"/>
      <point x="292" y="-12"/>
      <point x="339" y="8"/>
      <point x="371" y="38" type="curve"/>
      <point x="364" y="-33" type="line"/>
      <point x="364" y="-176" type="line"/>
      <point x="536" y="-176" type="line"/>
      <point x="536" y="500" type="line"/>
      <point x="402" y="500" type="line"/>
      <point x="388" y="450" type="line"/>
      <point x="384" y="450" type="line"/>
      <point x="345" y="494"/>
      <point x="305" y="512"/>
      <point x="251" y="512" type="curve" smooth="yes"/>
      <point x="146" y="512"/>
      <point x="42" y="414"/>
    </contour>
    <contour>
      <point x="218" y="252" type="curve" smooth="yes"/>
      <point x="218" y="340"/>
      <point x="256" y="372"/>
      <point x="298" y="372" type="curve" smooth="yes"/>
      <point x="322" y="372"/>
      <point x="344" y="366"/>
      <point x="364" y="348" type="curve"/>
      <point x="364" y="164" type="line"/>
      <point x="345" y="136"/>
      <point x="324" y="128"/>
      <point x="296" y="128" type="curve" smooth="yes"/>
      <point x="247" y="128"/>
      <point x="218" y="162"/>
    </contour>
  </outline>
</glyph>
<glyph name="t" format="1">
  <advance width="600"/>
  <unicode hex="0074"/>
  <outline>
    <contour>
      <point x="162" y="212" type="line" smooth="yes"/>
      <point x="162" y="78"/>
      <point x="222" y="-12"/>
      <point x="386" y="-12" type="curve" smooth="yes"/>
      <point x="454" y="-12"/>
      <point x="509" y="2"/>
      <point x="553" y="14" type="curve"/>
      <point x="524" y="138" type="line"/>
      <point x="497" y="129"/>
      <point x="465" y="122"/>
      <point x="431" y="122" type="curve" smooth="yes"/>
      <point x="367" y="122"/>
      <point x="334" y="144"/>
      <point x="334" y="215" type="curve" smooth="yes"/>
      <point x="334" y="366" type="line"/>
      <point x="531" y="366" type="line"/>
      <point x="531" y="500" type="line"/>
      <point x="334" y="500" type="line"/>
      <point x="334" y="630" type="line"/>
      <point x="192" y="630" type="line"/>
      <point x="170" y="500" type="line"/>
      <point x="42" y="494" type="line"/>
      <point x="42" y="366" type="line"/>
      <point x="162" y="366" type="line"/>
    </contour>
  </outline>
</glyph>
<glyph name="braceleft" format="1">
  <advance width="600"/>
  <unicode hex="007B"/>
  <outline>
    <contour>
      <point x="224" y="-6" type="curve" smooth="yes"/>
      <point x="224" y="-116"/>
      <point x="281" y="-152"/>
      <point x="411" y="-152" type="curve" smooth="yes"/>
      <point x="494" y="-152" type="line"/>
      <point x="494" y="-62" type="line"/>
      <point x="457" y="-62" type="line" smooth="yes"/>
      <point x="381" y="-62"/>
      <point x="364" y="-52"/>
      <point x="364" y="0" type="curve" smooth="yes"/>
      <point x="364" y="51"/>
      <point x="368" y="98"/>
      <point x="368" y="156" type="curve" smooth="yes"/>
      <point x="368" y="236"/>
      <point x="337" y="264"/>
      <point x="264" y="276" type="curve"/>
      <point x="264" y="280" type="line"/>
      <point x="337" y="292"/>
      <point x="368" y="320"/>
      <point x="368" y="400" type="curve" smooth="yes"/>
      <point x="368" y="458"/>
      <point x="364" y="505"/>
      <point x="364" y="556" type="curve" smooth="yes"/>
      <point x="364" y="608"/>
      <point x="381" y="618"/>
      <point x="457" y="618" type="curve" smooth="yes"/>
      <point x="494" y="618" type="line"/>
      <point x="494" y="708" type="line"/>
      <point x="411" y="708" type="line" smooth="yes"/>
      <point x="281" y="708"/>
      <point x="224" y="672"/>
      <point x="224" y="562" type="curve" smooth="yes"/>
      <point x="224" y="492"/>
      <point x="234" y="462"/>
      <point x="234" y="400" type="curve" smooth="yes"/>
      <point x="234" y="366"/>
      <point x="204" y="330"/>
      <point x="100" y="328" type="curve"/>
      <point x="100" y="228" type="line"/>
      <point x="204" y="226"/>
      <point x="234" y="190"/>
      <point x="234" y="156" type="curve" smooth="yes"/>
      <point x="234" y="94"/>
      <point x="224" y="64"/>
    </contour>
  </outline>
</glyph>
<glyph name="braceright" format="1">
  <advance width="600"/>
  <unicode hex="007D"/>
  <outline>
    <contour>
      <point x="107" y="-62" type="line"/>
      <point x="107" y="-152" type="line"/>
      <point x="190" y="-152" type="line" smooth="yes"/>
      <point x="320" y="-152"/>
      <point x="377" y="-116"/>
      <point x="377" y="-6" type="curve" smooth="yes"/>
      <point x="377" y="64"/>
      <point x="366" y="94"/>
      <point x="366" y="156" type="curve" smooth="yes"/>
      <point x="366" y="190"/>
      <point x="396" y="226"/>
      <point x="501" y="228" type="curve"/>
      <point x="501" y="328" type="line"/>
      <point x="396" y="330"/>
      <point x="366" y="366"/>
      <point x="366" y="400" type="curve" smooth="yes"/>
      <point x="366" y="462"/>
      <point x="377" y="492"/>
      <point x="377" y="562" type="curve" smooth="yes"/>
      <point x="377" y="672"/>
      <point x="320" y="708"/>
      <point x="190" y="708" type="curve" smooth="yes"/>
      <point x="107" y="708" type="line"/>
      <point x="107" y="618" type="line"/>
      <point x="144" y="618" type="line" smooth="yes"/>
      <point x="219" y="618"/>
      <point x="236" y="608"/>
      <point x="236" y="556" type="curve" smooth="yes"/>
      <point x="236" y="505"/>
      <point x="233" y="458"/>
      <point x="233" y="400" type="curve" smooth="yes"/>
      <point x="233" y="320"/>
      <point x="264" y="292"/>
      <point x="337" y="280" type="curve"/>
      <point x="337" y="276" type="line"/>
      <point x="264" y="264"/>
      <point x="233" y="236"/>
      <point x="233" y="156" type="curve" smooth="yes"/>
      <point x="233" y="98"/>
      <point x="236" y="51"/>
      <point x="236" y="0" type="curve" smooth="yes"/>
      <point x="236" y="-52"/>
      <point x="219" y="-62"/>
      <point x="144" y="-62" type="curve" smooth="yes"/>
    </contour>
  </outline>
</glyph>
<glyph name="asciitilde" format="1">
  <advance width="600"/>
  <unicode hex="007E"/>
  <outline>
    <contour>
      <point x="144" y="206" type="line"/>
      <point x="162" y="256"/>
      <point x="188" y="286"/>
      <point x="214" y="286" type="curve" smooth="yes"/>
      <point x="268" y="286"/>
      <point x="300" y="214"/>
      <point x="384" y="214" type="curve" smooth="yes"/>
      <point x="450" y="214"/>
      <point x="512" y="258"/>
      <point x="558" y="366" type="curve"/>
      <point x="456" y="414" type="line"/>
      <point x="438" y="364"/>
      <point x="413" y="334"/>
      <point x="386" y="334" type="curve" smooth="yes"/>
      <point x="332" y="334"/>
      <point x="300" y="406"/>
      <point x="216" y="406" type="curve" smooth="yes"/>
      <point x="150" y="406"/>
      <point x="88" y="362"/>
      <point x="42" y="254" type="curve"/>
    </contour>
  </outline>
</glyph>
<glyph name="cent" format="1">
  <advance width="600"/>
  <unicode hex="00A2"/>
  <outline>
    <contour>
      <point x="310" y="199" type="line"/>
      <point x="275" y="219"/>
      <point x="256" y="257"/>
      <point x="256" y="306" type="curve" smooth="yes"/>
      <point x="256" y="355"/>
      <point x="273" y="393"/>
      <point x="310" y="413" type="curve"/>
    </contour>
    <contour>
      <point x="462" y="214" type="line"/>
      <point x="445" y="201"/>
      <point x="425" y="189"/>
      <point x="402" y="184" type="curve"/>
      <point x="402" y="429" type="line"/>
      <point x="416" y="426"/>
      <point x="430" y="419"/>
      <point x="446" y="406" type="curve"/>
      <point x="524" y="512" type="line"/>
      <point x="495" y="541"/>
      <point x="452" y="562"/>
      <point x="402" y="567" type="curve"/>
      <point x="402" y="656" type="line"/>
      <point x="310" y="656" type="line"/>
      <point x="310" y="562" type="line"/>
      <point x="182" y="539"/>
      <point x="90" y="448"/>
      <point x="90" y="306" type="curve" smooth="yes"/>
      <point x="90" y="158"/>
      <point x="176" y="66"/>
      <point x="310" y="47" type="curve"/>
      <point x="310" y="-44" type="line"/>
      <point x="402" y="-44" type="line"/>
      <point x="402" y="47" type="line"/>
      <point x="445" y="54"/>
      <point x="492" y="73"/>
      <point x="530" y="106" type="curve"/>
    </contour>
  </outline>
</glyph>
<glyph name="yen" format="1">
  <advance width="600"/>
  <unicode hex="00A5"/>
  <outline>
    <contour>
      <point x="23" y="634" type="line"/>
      <point x="177" y="352" type="line"/>
      <point x="50" y="352" type="line"/>
      <point x="50" y="272" type="line"/>
      <point x="214" y="272" type="line"/>
      <point x="214" y="222" type="line"/>
      <point x="50" y="222" type="line"/>
      <point x="50" y="142" type="line"/>
      <point x="214" y="142" type="line"/>
      <point x="214" y="0" type="line"/>
      <point x="386" y="0" type="line"/>
      <point x="386" y="142" type="line"/>
      <point x="550" y="142" type="line"/>
      <point x="550" y="222" type="line"/>
      <point x="386" y="222" type="line"/>
      <point x="386" y="272" type="line"/>
      <point x="550" y="272" type="line"/>
      <point x="550" y="352" type="line"/>
      <point x="423" y="352" type="line"/>
      <point x="577" y="634" type="line"/>
      <point x="405" y="634" type="line"/>
      <point x="356" y="516" type="line" smooth="yes"/>
      <point x="339" y="473"/>
      <point x="321" y="429"/>
      <point x="304" y="386" type="curve"/>
      <point x="300" y="386" type="line"/>
      <point x="282" y="428"/>
      <point x="266" y="472"/>
      <point x="248" y="516" type="curve" smooth="yes"/>
      <point x="199" y="634" type="line"/>
    </contour>
  </outline>
</glyph>
<glyph name="brokenbar" format="1">
  <advance width="600"/>
  <unicode hex="00A6"/>
  <outline>
    <contour>
      <point x="245" y="320" type="line"/>
      <point x="355" y="320" type="line"/>
      <point x="355" y="750" type="line"/>
      <point x="245" y="750" type="line"/>
    </contour>
    <contour>
      <point x="245" y="200" type="line"/>
      <point x="245" y="-250" type="line"/>
      <point x="355" y="-250" type="line"/>
      <point x="355" y="200" type="line"/>
    </contour>
  </outline>
</glyph>
<glyph name="section" format="1">
  <advance width="600"/>
  <unicode hex="00A7"/>
  <outline>
    <contour>
      <point x="208" y="332" type="curve" smooth="yes"/>
      <point x="208" y="351"/>
      <point x="216" y="367"/>
      <point x="233" y="380" type="curve"/>
      <point x="309" y="344"/>
      <point x="392" y="324"/>
      <point x="392" y="270" type="curve" smooth="yes"/>
      <point x="392" y="250"/>
      <point x="384" y="234"/>
      <point x="367" y="221" type="curve"/>
      <point x="293" y="259"/>
      <point x="208" y="279"/>
    </contour>
    <contour>
      <point x="492" y="624" type="line"/>
      <point x="450" y="657"/>
      <point x="384" y="692"/>
      <point x="302" y="692" type="curve" smooth="yes"/>
      <point x="185" y="692"/>
      <point x="114" y="628"/>
      <point x="114" y="530" type="curve" smooth="yes"/>
      <point x="114" y="496"/>
      <point x="124" y="469"/>
      <point x="141" y="447" type="curve"/>
      <point x="93" y="416"/>
      <point x="64" y="366"/>
      <point x="64" y="320" type="curve" smooth="yes"/>
      <point x="64" y="130"/>
      <point x="322" y="130"/>
      <point x="322" y="66" type="curve" smooth="yes"/>
      <point x="322" y="46"/>
      <point x="308" y="34"/>
      <point x="272" y="34" type="curve" smooth="yes"/>
      <point x="238" y="34"/>
      <point x="200" y="50"/>
      <point x="168" y="84" type="curve"/>
      <point x="70" y="-2" type="line"/>
      <point x="116" y="-64"/>
      <point x="198" y="-92"/>
      <point x="272" y="-92" type="curve" smooth="yes"/>
      <point x="409" y="-92"/>
      <point x="476" y="-20"/>
      <point x="476" y="74" type="curve" smooth="yes"/>
      <point x="476" y="104"/>
      <point x="468" y="129"/>
      <point x="455" y="149" type="curve"/>
      <point x="508" y="183"/>
      <point x="536" y="228"/>
      <point x="536" y="284" type="curve" smooth="yes"/>
      <point x="536" y="464"/>
      <point x="268" y="480"/>
      <point x="268" y="536" type="curve" smooth="yes"/>
      <point x="268" y="558"/>
      <point x="283" y="566"/>
      <point x="312" y="566" type="curve" smooth="yes"/>
      <point x="343" y="566"/>
      <point x="383" y="545"/>
      <point x="414" y="518" type="curve"/>
    </contour>
  </outline>
</glyph>
<glyph name="logicalnot" format="1">
  <advance width="600"/>
  <unicode hex="00AC"/>
  <outline>
    <contour>
      <point x="64" y="250" type="line"/>
      <point x="412" y="250" type="line"/>
      <point x="412" y="70" type="line"/>
      <point x="536" y="70" type="line"/>
      <point x="536" y="370" type="line"/>
      <point x="64" y="370" type="line"/>
    </contour>
  </outline>
</glyph>
<glyph name="ordmasculine" format="1">
  <advance width="600"/>
  <unicode hex="00BA"/>
  <outline>
    <contour>
      <point x="129" y="425" type="curve" smooth="yes"/>
      <point x="129" y="316"/>
      <point x="211" y="252"/>
      <point x="300" y="252" type="curve" smooth="yes"/>
      <point x="389" y="252"/>
      <point x="471" y="316"/>
      <point x="471" y="425" type="curve" smooth="yes"/>
      <point x="471" y="535"/>
      <point x="389" y="599"/>
      <point x="300" y="599" type="curve" smooth="yes"/>
      <point x="211" y="599"/>
      <point x="129" y="535"/>
    </contour>
    <contour>
      <point x="251" y="425" type="curve" smooth="yes"/>
      <point x="251" y="474"/>
      <point x="263" y="504"/>
      <point x="300" y="504" type="curve" smooth="yes"/>
      <point x="338" y="504"/>
      <point x="349" y="474"/>
      <point x="349" y="425" type="curve" smooth="yes"/>
      <point x="349" y="377"/>
      <point x="338" y="346"/>
      <point x="300" y="346" type="curve" smooth="yes"/>
      <point x="263" y="346"/>
      <point x="251" y="377"/>
    </contour>
  </outline>
</glyph>
<glyph name="onequarter" format="1">
  <advance width="600"/>
  <unicode hex="00BC"/>
  <outline>
    <contour>
      <point x="588" y="540" type="line"/>
      <point x="502" y="624" type="line"/>
      <point x="342" y="426" type="line"/>
      <point x="400" y="372" type="line"/>
    </contour>
    <contour>
      <point x="12" y="110" type="line"/>
      <point x="98" y="26" type="line"/>
      <point x="258" y="224" type="line"/>
      <point x="200" y="278" type="line"/>
    </contour>
    <contour>
      <point x="67" y="525" type="line"/>
      <point x="148" y="525" type="line"/>
      <point x="148" y="320" type="line"/>
      <point x="272" y="320" type="line"/>
      <point x="272" y="634" type="line"/>
      <point x="176" y="634" type="line"/>
      <point x="142" y="613"/>
      <point x="121" y="604"/>
      <point x="67" y="598" type="curve"/>
    </contour>
    <contour>
      <point x="388" y="131" type="line"/>
      <point x="413" y="185" type="line"/>
      <point x="443" y="246" type="line"/>
      <point x="446" y="246" type="line"/>
      <point x="440" y="140" type="line"/>
      <point x="440" y="131" type="line"/>
    </contour>
    <contour>
      <point x="600" y="131" type="line"/>
      <point x="548" y="131" type="line"/>
      <point x="548" y="314" type="line"/>
      <point x="390" y="314" type="line"/>
      <point x="281" y="115" type="line"/>
      <point x="281" y="56" type="line"/>
      <point x="440" y="56" type="line"/>
      <point x="440" y="0" type="line"/>
      <point x="548" y="0" type="line"/>
      <point x="548" y="56" type="line"/>
      <point x="600" y="56" type="line"/>
    </contour>
  </outline>
</glyph>
<glyph name="onehalf" format="1">
  <advance width="600"/>
  <unicode hex="00BD"/>
  <outline>
    <contour>
      <point x="148" y="320" type="line"/>
      <point x="272" y="320" type="line"/>
      <point x="272" y="634" type="line"/>
      <point x="176" y="634" type="line"/>
      <point x="142" y="613"/>
      <point x="121" y="604"/>
      <point x="67" y="598" type="curve"/>
      <point x="67" y="525" type="line"/>
      <point x="148" y="525" type="line"/>
    </contour>
    <contour>
      <point x="98" y="26" type="line"/>
      <point x="258" y="224" type="line"/>
      <point x="200" y="278" type="line"/>
      <point x="12" y="110" type="line"/>
    </contour>
    <contour>
      <point x="502" y="624" type="line"/>
      <point x="342" y="426" type="line"/>
      <point x="400" y="372" type="line"/>
      <point x="588" y="540" type="line"/>
    </contour>
    <contour>
      <point x="292" y="0" type="line"/>
      <point x="561" y="0" type="line"/>
      <point x="561" y="100" type="line"/>
      <point x="485" y="100" type="line"/>
      <point x="517" y="131"/>
      <point x="551" y="173"/>
      <point x="551" y="216" type="curve" smooth="yes"/>
      <point x="551" y="284"/>
      <point x="497" y="326"/>
      <point x="415" y="326" type="curve" smooth="yes"/>
      <point x="359" y="326"/>
      <point x="316" y="300"/>
      <point x="276" y="260" type="curve"/>
      <point x="346" y="196" type="line"/>
      <point x="362" y="217"/>
      <point x="380" y="228"/>
      <point x="395" y="228" type="curve" smooth="yes"/>
      <point x="420" y="228"/>
      <point x="433" y="214"/>
      <point x="433" y="193" type="curve" smooth="yes"/>
      <point x="433" y="163"/>
      <point x="366" y="107"/>
      <point x="292" y="63" type="curve"/>
    </contour>
  </outline>
</glyph>
<glyph name="threequarters" format="1">
  <advance width="600"/>
  <unicode hex="00BE"/>
  <outline>
    <contour>
      <point x="588" y="540" type="line"/>
      <point x="502" y="624" type="line"/>
      <point x="342" y="426" type="line"/>
      <point x="400" y="372" type="line"/>
    </contour>
    <contour>
      <point x="37" y="345" type="line"/>
      <point x="89" y="310"/>
      <point x="137" y="308"/>
      <point x="177" y="308" type="curve" smooth="yes"/>
      <point x="251" y="308"/>
      <point x="315" y="352"/>
      <point x="315" y="410" type="curve" smooth="yes"/>
      <point x="315" y="446"/>
      <point x="299" y="472"/>
      <point x="250" y="486" type="curve"/>
      <point x="291" y="500"/>
      <point x="303" y="520"/>
      <point x="303" y="556" type="curve" smooth="yes"/>
      <point x="303" y="609"/>
      <point x="247" y="646"/>
      <point x="180" y="646" type="curve" smooth="yes"/>
      <point x="122" y="646"/>
      <point x="73" y="629"/>
      <point x="41" y="606" type="curve"/>
      <point x="88" y="534" type="line"/>
      <point x="108" y="544"/>
      <point x="129" y="556"/>
      <point x="151" y="556" type="curve" smooth="yes"/>
      <point x="171" y="556"/>
      <point x="183" y="548"/>
      <point x="183" y="536" type="curve" smooth="yes"/>
      <point x="183" y="514"/>
      <point x="162" y="511"/>
      <point x="131" y="511" type="curve"/>
      <point x="131" y="449" type="line"/>
      <point x="176" y="449"/>
      <point x="195" y="439"/>
      <point x="195" y="420" type="curve" smooth="yes"/>
      <point x="195" y="406"/>
      <point x="179" y="398"/>
      <point x="161" y="398" type="curve" smooth="yes"/>
      <point x="136" y="398"/>
      <point x="103" y="410"/>
      <point x="82" y="421" type="curve"/>
    </contour>
    <contour>
      <point x="12" y="110" type="line"/>
      <point x="98" y="26" type="line"/>
      <point x="258" y="224" type="line"/>
      <point x="200" y="278" type="line"/>
    </contour>
    <contour>
      <point x="389" y="131" type="line"/>
      <point x="414" y="185" type="line"/>
      <point x="444" y="246" type="line"/>
      <point x="447" y="246" type="line"/>
      <point x="441" y="140" type="line"/>
      <point x="441" y="131" type="line"/>
    </contour>
    <contour>
      <point x="601" y="131" type="line"/>
      <point x="549" y="131" type="line"/>
      <point x="549" y="314" type="line"/>
      <point x="391" y="314" type="line"/>
      <point x="282" y="115" type="line"/>
      <point x="282" y="56" type="line"/>
      <point x="441" y="56" type="line"/>
      <point x="441" y="0" type="line"/>
      <point x="549" y="0" type="line"/>
      <point x="549" y="56" type="line"/>
      <point x="601" y="56" type="line"/>
    </contour>
  </outline>
</glyph>
<glyph name="Aring" format="1">
  <advance width="600"/>
  <unicode hex="00C5"/>
  <outline>
    <contour>
      <point x="300" y="838" type="curve" smooth="yes"/>
      <point x="321" y="838"/>
      <point x="338" y="822"/>
      <point x="338" y="798" type="curve" smooth="yes"/>
      <point x="338" y="774"/>
      <point x="321" y="758"/>
      <point x="300" y="758" type="curve" smooth="yes"/>
      <point x="279" y="758"/>
      <point x="262" y="774"/>
      <point x="262" y="798" type="curve" smooth="yes"/>
      <point x="262" y="822"/>
      <point x="279" y="838"/>
    </contour>
    <contour>
      <point x="300" y="696" type="curve" smooth="yes"/>
      <point x="372" y="696"/>
      <point x="420" y="736"/>
      <point x="420" y="798" type="curve" smooth="yes"/>
      <point x="420" y="860"/>
      <point x="372" y="900"/>
      <point x="300" y="900" type="curve" smooth="yes"/>
      <point x="228" y="900"/>
      <point x="180" y="860"/>
      <point x="180" y="798" type="curve" smooth="yes"/>
      <point x="180" y="736"/>
      <point x="228" y="696"/>
    </contour>
    <contour>
      <point x="239" y="271" type="line"/>
      <point x="249" y="316" type="line" smooth="yes"/>
      <point x="263" y="378"/>
      <point x="280" y="456"/>
      <point x="294" y="522" type="curve"/>
      <point x="298" y="522" type="line"/>
      <point x="314" y="457"/>
      <point x="331" y="378"/>
      <point x="345" y="316" type="curve" smooth="yes"/>
      <point x="355" y="271" type="line"/>
    </contour>
    <contour>
      <point x="418" y="0" type="line"/>
      <point x="600" y="0" type="line"/>
      <point x="404" y="650" type="line"/>
      <point x="196" y="650" type="line"/>
      <point x="0" y="0" type="line"/>
      <point x="176" y="0" type="line"/>
      <point x="208" y="138" type="line"/>
      <point x="386" y="138" type="line"/>
    </contour>
  </outline>
</glyph>
<glyph name="Ecircumflex" format="1">
  <advance width="600"/>
  <unicode hex="00CA"/>
  <outline>
    <contour>
      <point x="86" y="0" type="line"/>
      <point x="536" y="0" type="line"/>
      <point x="536" y="144" type="line"/>
      <point x="258" y="144" type="line"/>
      <point x="258" y="260" type="line"/>
      <point x="486" y="260" type="line"/>
      <point x="486" y="404" type="line"/>
      <point x="258" y="404" type="line"/>
      <point x="258" y="506" type="line"/>
      <point x="526" y="506" type="line"/>
      <point x="526" y="650" type="line"/>
      <point x="86" y="650" type="line"/>
    </contour>
    <contour>
      <point x="268" y="700" type="line"/>
      <point x="316" y="758" type="line"/>
      <point x="320" y="758" type="line"/>
      <point x="368" y="700" type="line"/>
      <point x="498" y="700" type="line"/>
      <point x="402" y="824" type="line"/>
      <point x="234" y="824" type="line"/>
      <point x="138" y="700" type="line"/>
    </contour>
  </outline>
</glyph>
<glyph name="Edieresis" format="1">
  <advance width="600"/>
  <unicode hex="00CB"/>
  <outline>
    <contour>
      <point x="86" y="0" type="line"/>
      <point x="536" y="0" type="line"/>
      <point x="536" y="144" type="line"/>
      <point x="258" y="144" type="line"/>
      <point x="258" y="260" type="line"/>
      <point x="486" y="260" type="line"/>
      <point x="486" y="404" type="line"/>
      <point x="258" y="404" type="line"/>
      <point x="258" y="506" type="line"/>
      <point x="526" y="506" type="line"/>
      <point x="526" y="650" type="line"/>
      <point x="86" y="650" type="line"/>
    </contour>
    <contour>
      <point x="214" y="694" type="curve" smooth="yes"/>
      <point x="260" y="694"/>
      <point x="292" y="728"/>
      <point x="292" y="772" type="curve" smooth="yes"/>
      <point x="292" y="816"/>
      <point x="260" y="850"/>
      <point x="214" y="850" type="curve" smooth="yes"/>
      <point x="168" y="850"/>
      <point x="136" y="816"/>
      <point x="136" y="772" type="curve" smooth="yes"/>
      <point x="136" y="728"/>
      <point x="168" y="694"/>
    </contour>
    <contour>
      <point x="422" y="694" type="curve" smooth="yes"/>
      <point x="468" y="694"/>
      <point x="500" y="728"/>
      <point x="500" y="772" type="curve" smooth="yes"/>
      <point x="500" y="816"/>
      <point x="468" y="850"/>
      <point x="422" y="850" type="curve" smooth="yes"/>
      <point x="376" y="850"/>
      <point x="344" y="816"/>
      <point x="344" y="772" type="curve" smooth="yes"/>
      <point x="344" y="728"/>
      <point x="376" y="694"/>
    </contour>
  </outline>
</glyph>
<glyph name="Oacute" format="1">
  <advance width="600"/>
  <unicode hex="00D3"/>
  <outline>
    <contour>
      <point x="300" y="-12" type="curve" smooth="yes"/>
      <point x="458" y="-12"/>
      <point x="566" y="114"/>
      <point x="566" y="328" type="curve" smooth="yes"/>
      <point x="566" y="541"/>
      <point x="458" y="662"/>
      <point x="300" y="662" type="curve" smooth="yes"/>
      <point x="142" y="662"/>
      <point x="34" y="542"/>
      <point x="34" y="328" type="curve" smooth="yes"/>
      <point x="34" y="114"/>
      <point x="142" y="-12"/>
    </contour>
    <contour>
      <point x="300" y="136" type="curve" smooth="yes"/>
      <point x="244" y="136"/>
      <point x="210" y="210"/>
      <point x="210" y="328" type="curve" smooth="yes"/>
      <point x="210" y="446"/>
      <point x="244" y="514"/>
      <point x="300" y="514" type="curve" smooth="yes"/>
      <point x="356" y="514"/>
      <point x="390" y="446"/>
      <point x="390" y="328" type="curve" smooth="yes"/>
      <point x="390" y="210"/>
      <point x="356" y="136"/>
    </contour>
    <contour>
      <point x="474" y="824" type="line"/>
      <point x="294" y="824" type="line"/>
      <point x="216" y="700" type="line"/>
      <point x="352" y="700" type="line"/>
    </contour>
  </outline>
</glyph>
<glyph name="Otilde" format="1">
  <advance width="600"/>
  <unicode hex="00D5"/>
  <outline>
    <contour>
      <point x="300" y="-12" type="curve" smooth="yes"/>
      <point x="458" y="-12"/>
      <point x="566" y="114"/>
      <point x="566" y="328" type="curve" smooth="yes"/>
      <point x="566" y="541"/>
      <point x="458" y="662"/>
      <point x="300" y="662" type="curve" smooth="yes"/>
      <point x="142" y="662"/>
      <point x="34" y="542"/>
      <point x="34" y="328" type="curve" smooth="yes"/>
      <point x="34" y="114"/>
      <point x="142" y="-12"/>
    </contour>
    <contour>
      <point x="300" y="136" type="curve" smooth="yes"/>
      <point x="244" y="136"/>
      <point x="210" y="210"/>
      <point x="210" y="328" type="curve" smooth="yes"/>
      <point x="210" y="446"/>
      <point x="244" y="514"/>
      <point x="300" y="514" type="curve" smooth="yes"/>
      <point x="356" y="514"/>
      <point x="390" y="446"/>
      <point x="390" y="328" type="curve" smooth="yes"/>
      <point x="390" y="210"/>
      <point x="356" y="136"/>
    </contour>
    <contour>
      <point x="364" y="700" type="curve" smooth="yes"/>
      <point x="418" y="700"/>
      <point x="468" y="744"/>
      <point x="480" y="846" type="curve"/>
      <point x="394" y="846" type="line"/>
      <point x="386" y="814"/>
      <point x="372" y="804"/>
      <point x="356" y="804" type="curve" smooth="yes"/>
      <point x="328" y="804"/>
      <point x="290" y="846"/>
      <point x="236" y="846" type="curve" smooth="yes"/>
      <point x="182" y="846"/>
      <point x="132" y="802"/>
      <point x="120" y="700" type="curve"/>
      <point x="206" y="700" type="line"/>
      <point x="214" y="732"/>
      <point x="228" y="742"/>
      <point x="244" y="742" type="curve" smooth="yes"/>
      <point x="272" y="742"/>
      <point x="310" y="700"/>
    </contour>
  </outline>
</glyph>
<glyph name="Odieresis" format="1">
  <advance width="600"/>
  <unicode hex="00D6"/>
  <outline>
    <contour>
      <point x="300" y="-12" type="curve" smooth="yes"/>
      <point x="458" y="-12"/>
      <point x="566" y="114"/>
      <point x="566" y="328" type="curve" smooth="yes"/>
      <point x="566" y="541"/>
      <point x="458" y="662"/>
      <point x="300" y="662" type="curve" smooth="yes"/>
      <point x="142" y="662"/>
      <point x="34" y="542"/>
      <point x="34" y="328" type="curve" smooth="yes"/>
      <point x="34" y="114"/>
      <point x="142" y="-12"/>
    </contour>
    <contour>
      <point x="300" y="136" type="curve" smooth="yes"/>
      <point x="244" y="136"/>
      <point x="210" y="210"/>
      <point x="210" y="328" type="curve" smooth="yes"/>
      <point x="210" y="446"/>
      <point x="244" y="514"/>
      <point x="300" y="514" type="curve" smooth="yes"/>
      <point x="356" y="514"/>
      <point x="390" y="446"/>
      <point x="390" y="328" type="curve" smooth="yes"/>
      <point x="390" y="210"/>
      <point x="356" y="136"/>
    </contour>
    <contour>
      <point x="196" y="694" type="curve" smooth="yes"/>
      <point x="242" y="694"/>
      <point x="274" y="728"/>
      <point x="274" y="772" type="curve" smooth="yes"/>
      <point x="274" y="816"/>
      <point x="242" y="850"/>
      <point x="196" y="850" type="curve" smooth="yes"/>
      <point x="150" y="850"/>
      <point x="118" y="816"/>
      <point x="118" y="772" type="curve" smooth="yes"/>
      <point x="118" y="728"/>
      <point x="150" y="694"/>
    </contour>
    <contour>
      <point x="404" y="694" type="curve" smooth="yes"/>
      <point x="450" y="694"/>
      <point x="482" y="728"/>
      <point x="482" y="772" type="curve" smooth="yes"/>
      <point x="482" y="816"/>
      <point x="450" y="850"/>
      <point x="404" y="850" type="curve" smooth="yes"/>
      <point x="358" y="850"/>
      <point x="326" y="816"/>
      <point x="326" y="772" type="curve" smooth="yes"/>
      <point x="326" y="728"/>
      <point x="358" y="694"/>
    </contour>
  </outline>
</glyph>
<glyph name="multiply" format="1">
  <advance width="600"/>
  <unicode hex="00D7"/>
  <outline>
    <contour>
      <point x="162" y="86" type="line"/>
      <point x="300" y="224" type="line"/>
      <point x="438" y="86" type="line"/>
      <point x="523" y="171" type="line"/>
      <point x="385" y="309" type="line"/>
      <point x="523" y="447" type="line"/>
      <point x="438" y="532" type="line"/>
      <point x="300" y="394" type="line"/>
      <point x="162" y="532" type="line"/>
      <point x="77" y="447" type="line"/>
      <point x="215" y="309" type="line"/>
      <point x="77" y="171" type="line"/>
    </contour>
  </outline>
</glyph>
<glyph name="Oslash" format="1">
  <advance width="600"/>
  <unicode hex="00D8"/>
  <outline>
    <contour>
      <point x="390" y="352" type="line"/>
      <point x="390" y="344"/>
      <point x="390" y="336"/>
      <point x="390" y="328" type="curve" smooth="yes"/>
      <point x="390" y="210"/>
      <point x="356" y="136"/>
      <point x="300" y="136" type="curve" smooth="yes"/>
      <point x="283" y="136"/>
      <point x="267" y="143"/>
      <point x="254" y="157" type="curve"/>
    </contour>
    <contour>
      <point x="212" y="283" type="line"/>
      <point x="211" y="297"/>
      <point x="210" y="312"/>
      <point x="210" y="328" type="curve" smooth="yes"/>
      <point x="210" y="446"/>
      <point x="244" y="514"/>
      <point x="300" y="514" type="curve" smooth="yes"/>
      <point x="321" y="514"/>
      <point x="339" y="505"/>
      <point x="353" y="487" type="curve"/>
    </contour>
    <contour>
      <point x="588" y="638" type="line"/>
      <point x="498" y="696" type="line"/>
      <point x="445" y="619" type="line"/>
      <point x="404" y="647"/>
      <point x="355" y="662"/>
      <point x="300" y="662" type="curve" smooth="yes"/>
      <point x="142" y="662"/>
      <point x="34" y="542"/>
      <point x="34" y="328" type="curve" smooth="yes"/>
      <point x="34" y="237"/>
      <point x="54" y="161"/>
      <point x="88" y="105" type="curve"/>
      <point x="24" y="12" type="line"/>
      <point x="114" y="-46" type="line"/>
      <point x="164" y="26" type="line"/>
      <point x="203" y="1"/>
      <point x="249" y="-12"/>
      <point x="300" y="-12" type="curve" smooth="yes"/>
      <point x="458" y="-12"/>
      <point x="566" y="114"/>
      <point x="566" y="328" type="curve" smooth="yes"/>
      <point x="566" y="413"/>
      <point x="549" y="483"/>
      <point x="518" y="537" type="curve"/>
    </contour>
  </outline>
</glyph>
<glyph name="Ucircumflex" format="1">
  <advance width="600"/>
  <unicode hex="00DB"/>
  <outline>
    <contour>
      <point x="58" y="252" type="line" smooth="yes"/>
      <point x="58" y="90"/>
      <point x="132" y="-12"/>
      <point x="302" y="-12" type="curve" smooth="yes"/>
      <point x="472" y="-12"/>
      <point x="542" y="90"/>
      <point x="542" y="252" type="curve" smooth="yes"/>
      <point x="542" y="650" type="line"/>
      <point x="376" y="650" type="line"/>
      <point x="376" y="232" type="line" smooth="yes"/>
      <point x="376" y="176"/>
      <point x="357" y="136"/>
      <point x="302" y="136" type="curve" smooth="yes"/>
      <point x="247" y="136"/>
      <point x="230" y="176"/>
      <point x="230" y="232" type="curve" smooth="yes"/>
      <point x="230" y="650" type="line"/>
      <point x="58" y="650" type="line"/>
    </contour>
    <contour>
      <point x="250" y="700" type="line"/>
      <point x="298" y="758" type="line"/>
      <point x="302" y="758" type="line"/>
      <point x="350" y="700" type="line"/>
      <point x="480" y="700" type="line"/>
      <point x="384" y="824" type="line"/>
      <point x="216" y="824" type="line"/>
      <point x="120" y="700" type="line"/>
    </contour>
  </outline>
</glyph>
<glyph name="Udieresis" format="1">
  <advance width="600"/>
  <unicode hex="00DC"/>
  <outline>
    <contour>
      <point x="58" y="252" type="line" smooth="yes"/>
      <point x="58" y="90"/>
      <point x="132" y="-12"/>
      <point x="302" y="-12" type="curve" smooth="yes"/>
      <point x="472" y="-12"/>
      <point x="542" y="90"/>
      <point x="542" y="252" type="curve" smooth="yes"/>
      <point x="542" y="650" type="line"/>
      <point x="376" y="650" type="line"/>
      <point x="376" y="232" type="line" smooth="yes"/>
      <point x="376" y="176"/>
      <point x="357" y="136"/>
      <point x="302" y="136" type="curve" smooth="yes"/>
      <point x="247" y="136"/>
      <point x="230" y="176"/>
      <point x="230" y="232" type="curve" smooth="yes"/>
      <point x="230" y="650" type="line"/>
      <point x="58" y="650" type="line"/>
    </contour>
    <contour>
      <point x="196" y="694" type="curve" smooth="yes"/>
      <point x="242" y="694"/>
      <point x="274" y="728"/>
      <point x="274" y="772" type="curve" smooth="yes"/>
      <point x="274" y="816"/>
      <point x="242" y="850"/>
      <point x="196" y="850" type="curve" smooth="yes"/>
      <point x="150" y="850"/>
      <point x="118" y="816"/>
      <point x="118" y="772" type="curve" smooth="yes"/>
      <point x="118" y="728"/>
      <point x="150" y="694"/>
    </contour>
    <contour>
      <point x="404" y="694" type="curve" smooth="yes"/>
      <point x="450" y="694"/>
      <point x="482" y="728"/>
      <point x="482" y="772" type="curve" smooth="yes"/>
      <point x="482" y="816"/>
      <point x="450" y="850"/>
      <point x="404" y="850" type="curve" smooth="yes"/>
      <point x="358" y="850"/>
      <point x="326" y="816"/>
      <point x="326" y="772" type="curve" smooth="yes"/>
      <point x="326" y="728"/>
      <point x="358" y="694"/>
    </contour>
  </outline>
</glyph>
<glyph name="germandbls" format="1">
  <advance width="600"/>
  <unicode hex="00DF"/>
  <outline>
    <contour>
      <point x="50" y="0" type="line"/>
      <point x="222" y="0" type="line"/>
      <point x="222" y="478" type="line" smooth="yes"/>
      <point x="222" y="534"/>
      <point x="240" y="574"/>
      <point x="287" y="574" type="curve" smooth="yes"/>
      <point x="311" y="574"/>
      <point x="327" y="551"/>
      <point x="327" y="522" type="curve" smooth="yes"/>
      <point x="327" y="448"/>
      <point x="278" y="420"/>
      <point x="278" y="344" type="curve" smooth="yes"/>
      <point x="278" y="216"/>
      <point x="416" y="204"/>
      <point x="416" y="144" type="curve" smooth="yes"/>
      <point x="416" y="124"/>
      <point x="403" y="114"/>
      <point x="389" y="114" type="curve" smooth="yes"/>
      <point x="367" y="114"/>
      <point x="342" y="121"/>
      <point x="314" y="138" type="curve"/>
      <point x="258" y="22" type="line"/>
      <point x="304" y="0"/>
      <point x="341" y="-12"/>
      <point x="395" y="-12" type="curve" smooth="yes"/>
      <point x="515" y="-12"/>
      <point x="574" y="64"/>
      <point x="574" y="158" type="curve" smooth="yes"/>
      <point x="574" y="298"/>
      <point x="436" y="312"/>
      <point x="436" y="366" type="curve" smooth="yes"/>
      <point x="436" y="410"/>
      <point x="486" y="438"/>
      <point x="486" y="532" type="curve" smooth="yes"/>
      <point x="486" y="620"/>
      <point x="425" y="708"/>
      <point x="287" y="708" type="curve" smooth="yes"/>
      <point x="124" y="708"/>
      <point x="50" y="610"/>
      <point x="50" y="486" type="curve" smooth="yes"/>
    </contour>
  </outline>
</glyph>
<glyph name="adieresis" format="1">
  <advance width="600"/>
  <unicode hex="00E4"/>
  <outline>
    <contour>
      <point x="54" y="142" type="curve" smooth="yes"/>
      <point x="54" y="60"/>
      <point x="112" y="-12"/>
      <point x="216" y="-12" type="curve" smooth="yes"/>
      <point x="278" y="-12"/>
      <point x="337" y="16"/>
      <point x="386" y="52" type="curve"/>
      <point x="390" y="52" type="line"/>
      <point x="402" y="0" type="line"/>
      <point x="542" y="0" type="line"/>
      <point x="542" y="278" type="line" smooth="yes"/>
      <point x="542" y="442"/>
      <point x="450" y="512"/>
      <point x="308" y="512" type="curve" smooth="yes"/>
      <point x="224" y="512"/>
      <point x="146" y="488"/>
      <point x="70" y="446" type="curve"/>
      <point x="130" y="334" type="line"/>
      <point x="190" y="362"/>
      <point x="232" y="376"/>
      <point x="274" y="376" type="curve" smooth="yes"/>
      <point x="330" y="376"/>
      <point x="364" y="360"/>
      <point x="370" y="324" type="curve"/>
      <point x="142" y="312"/>
      <point x="54" y="254"/>
    </contour>
    <contour>
      <point x="218" y="156" type="curve" smooth="yes"/>
      <point x="218" y="190"/>
      <point x="248" y="218"/>
      <point x="370" y="222" type="curve"/>
      <point x="370" y="158" type="line"/>
      <point x="343" y="138"/>
      <point x="312" y="120"/>
      <point x="272" y="120" type="curve" smooth="yes"/>
      <point x="236" y="120"/>
      <point x="218" y="133"/>
    </contour>
    <contour>
      <point x="192" y="564" type="curve" smooth="yes"/>
      <point x="244" y="564"/>
      <point x="280" y="602"/>
      <point x="280" y="652" type="curve" smooth="yes"/>
      <point x="280" y="702"/>
      <point x="244" y="740"/>
      <point x="192" y="740" type="curve" smooth="yes"/>
      <point x="140" y="740"/>
      <point x="104" y="702"/>
      <point x="104" y="652" type="curve" smooth="yes"/>
      <point x="104" y="602"/>
      <point x="140" y="564"/>
    </contour>
    <contour>
      <point x="420" y="564" type="curve" smooth="yes"/>
      <point x="472" y="564"/>
      <point x="508" y="602"/>
      <point x="508" y="652" type="curve" smooth="yes"/>
      <point x="508" y="702"/>
      <point x="472" y="740"/>
      <point x="420" y="740" type="curve" smooth="yes"/>
      <point x="368" y="740"/>
      <point x="332" y="702"/>
      <point x="332" y="652" type="curve" smooth="yes"/>
      <point x="332" y="602"/>
      <point x="368" y="564"/>
    </contour>
  </outline>
</glyph>
<glyph name="aring" format="1">
  <advance width="600"/>
  <unicode hex="00E5"/>
  <outline>
    <contour>
      <point x="54" y="142" type="curve" smooth="yes"/>
      <point x="54" y="60"/>
      <point x="112" y="-12"/>
      <point x="216" y="-12" type="curve" smooth="yes"/>
      <point x="278" y="-12"/>
      <point x="337" y="16"/>
      <point x="386" y="52" type="curve"/>
      <point x="390" y="52" type="line"/>
      <point x="402" y="0" type="line"/>
      <point x="542" y="0" type="line"/>
      <point x="542" y="278" type="line" smooth="yes"/>
      <point x="542" y="442"/>
      <point x="450" y="512"/>
      <point x="308" y="512" type="curve" smooth="yes"/>
      <point x="224" y="512"/>
      <point x="146" y="488"/>
      <point x="70" y="446" type="curve"/>
      <point x="130" y="334" type="line"/>
      <point x="190" y="362"/>
      <point x="232" y="376"/>
      <point x="274" y="376" type="curve" smooth="yes"/>
      <point x="330" y="376"/>
      <point x="364" y="360"/>
      <point x="370" y="324" type="curve"/>
      <point x="142" y="312"/>
      <point x="54" y="254"/>
    </contour>
    <contour>
      <point x="218" y="156" type="curve" smooth="yes"/>
      <point x="218" y="190"/>
      <point x="248" y="218"/>
      <point x="370" y="222" type="curve"/>
      <point x="370" y="158" type="line"/>
      <point x="343" y="138"/>
      <point x="312" y="120"/>
      <point x="272" y="120" type="curve" smooth="yes"/>
      <point x="236" y="120"/>
      <point x="218" y="133"/>
    </contour>
    <contour>
      <point x="306" y="550" type="curve" smooth="yes"/>
      <point x="378" y="550"/>
      <point x="426" y="592"/>
      <point x="426" y="656" type="curve" smooth="yes"/>
      <point x="426" y="720"/>
      <point x="378" y="762"/>
      <point x="306" y="762" type="curve" smooth="yes"/>
      <point x="234" y="762"/>
      <point x="186" y="720"/>
      <point x="186" y="656" type="curve" smooth="yes"/>
      <point x="186" y="592"/>
      <point x="234" y="550"/>
    </contour>
    <contour>
      <point x="306" y="612" type="curve" smooth="yes"/>
      <point x="285" y="612"/>
      <point x="268" y="630"/>
      <point x="268" y="656" type="curve" smooth="yes"/>
      <point x="268" y="682"/>
      <point x="285" y="700"/>
      <point x="306" y="700" type="curve" smooth="yes"/>
      <point x="327" y="700"/>
      <point x="344" y="682"/>
      <point x="344" y="656" type="curve" smooth="yes"/>
      <point x="344" y="630"/>
      <point x="327" y="612"/>
    </contour>
  </outline>
</glyph>
<glyph name="ae" format="1">
  <advance width="600"/>
  <unicode hex="00E6"/>
  <outline>
    <contour>
      <point x="16" y="142" type="curve" smooth="yes"/>
      <point x="16" y="60"/>
      <point x="63" y="-12"/>
      <point x="156" y="-12" type="curve" smooth="yes"/>
      <point x="200" y="-12"/>
      <point x="238" y="8"/>
      <point x="290" y="60" type="curve"/>
      <point x="324" y="16"/>
      <point x="370" y="-12"/>
      <point x="442" y="-12" type="curve" smooth="yes"/>
      <point x="480" y="-12"/>
      <point x="536" y="4"/>
      <point x="576" y="36" type="curve"/>
      <point x="518" y="146" type="line"/>
      <point x="492" y="128"/>
      <point x="471" y="122"/>
      <point x="448" y="122" type="curve" smooth="yes"/>
      <point x="412" y="122"/>
      <point x="382" y="142"/>
      <point x="368" y="198" type="curve"/>
      <point x="584" y="198" type="line"/>
      <point x="587" y="210"/>
      <point x="591" y="236"/>
      <point x="591" y="266" type="curve" smooth="yes"/>
      <point x="591" y="400"/>
      <point x="536" y="512"/>
      <point x="433" y="512" type="curve" smooth="yes"/>
      <point x="378" y="512"/>
      <point x="345" y="492"/>
      <point x="310" y="448" type="curve"/>
      <point x="286" y="488"/>
      <point x="252" y="512"/>
      <point x="196" y="512" type="curve" smooth="yes"/>
      <point x="141" y="512"/>
      <point x="88" y="492"/>
      <point x="28" y="456" type="curve"/>
      <point x="88" y="344" type="line"/>
      <point x="124" y="365"/>
      <point x="162" y="376"/>
      <point x="186" y="376" type="curve" smooth="yes"/>
      <point x="214" y="376"/>
      <point x="227" y="360"/>
      <point x="232" y="325" type="curve"/>
      <point x="86" y="294"/>
      <point x="16" y="246"/>
    </contour>
    <contour>
      <point x="366" y="302" type="line"/>
      <point x="373" y="360"/>
      <point x="395" y="382"/>
      <point x="417" y="382" type="curve" smooth="yes"/>
      <point x="447" y="382"/>
      <point x="456" y="346"/>
      <point x="456" y="302" type="curve"/>
    </contour>
    <contour>
      <point x="169" y="156" type="curve" smooth="yes"/>
      <point x="169" y="185"/>
      <point x="187" y="210"/>
      <point x="230" y="222" type="curve"/>
      <point x="232" y="203" type="line" smooth="yes"/>
      <point x="234" y="183"/>
      <point x="238" y="158"/>
      <point x="245" y="140" type="curve"/>
      <point x="233" y="128"/>
      <point x="218" y="120"/>
      <point x="204" y="120" type="curve" smooth="yes"/>
      <point x="182" y="120"/>
      <point x="169" y="133"/>
    </contour>
  </outline>
</glyph>
<glyph name="iacute" format="1">
  <advance width="600"/>
  <unicode hex="00ED"/>
  <outline>
    <contour>
      <point x="74" y="366" type="line"/>
      <point x="264" y="366" type="line"/>
      <point x="264" y="0" type="line"/>
      <point x="436" y="0" type="line"/>
      <point x="436" y="500" type="line"/>
      <point x="74" y="500" type="line"/>
    </contour>
    <contour>
      <point x="518" y="748" type="line"/>
      <point x="344" y="748" type="line"/>
      <point x="256" y="574" type="line"/>
      <point x="380" y="574" type="line"/>
    </contour>
  </outline>
</glyph>
<glyph name="icircumflex" format="1">
  <advance width="600"/>
  <unicode hex="00EE"/>
  <outline>
    <contour>
      <point x="74" y="366" type="line"/>
      <point x="264" y="366" type="line"/>
      <point x="264" y="0" type="line"/>
      <point x="436" y="0" type="line"/>
      <point x="436" y="500" type="line"/>
      <point x="74" y="500" type="line"/>
    </contour>
    <contour>
      <point x="170" y="574" type="line"/>
      <point x="294" y="574" type="line"/>
      <point x="342" y="668" type="line"/>
      <point x="346" y="668" type="line"/>
      <point x="394" y="574" type="line"/>
      <point x="518" y="574" type="line"/>
      <point x="416" y="748" type="line"/>
      <point x="272" y="748" type="line"/>
    </contour>
  </outline>
</glyph>
<glyph name="idieresis" format="1">
  <advance width="600"/>
  <unicode hex="00EF"/>
  <outline>
    <contour>
      <point x="74" y="366" type="line"/>
      <point x="264" y="366" type="line"/>
      <point x="264" y="0" type="line"/>
      <point x="436" y="0" type="line"/>
      <point x="436" y="500" type="line"/>
      <point x="74" y="500" type="line"/>
    </contour>
    <contour>
      <point x="230" y="564" type="curve" smooth="yes"/>
      <point x="282" y="564"/>
      <point x="318" y="602"/>
      <point x="318" y="652" type="curve" smooth="yes"/>
      <point x="318" y="702"/>
      <point x="282" y="740"/>
      <point x="230" y="740" type="curve" smooth="yes"/>
      <point x="178" y="740"/>
      <point x="142" y="702"/>
      <point x="142" y="652" type="curve" smooth="yes"/>
      <point x="142" y="602"/>
      <point x="178" y="564"/>
    </contour>
    <contour>
      <point x="458" y="564" type="curve" smooth="yes"/>
      <point x="510" y="564"/>
      <point x="546" y="602"/>
      <point x="546" y="652" type="curve" smooth="yes"/>
      <point x="546" y="702"/>
      <point x="510" y="740"/>
      <point x="458" y="740" type="curve" smooth="yes"/>
      <point x="406" y="740"/>
      <point x="370" y="702"/>
      <point x="370" y="652" type="curve" smooth="yes"/>
      <point x="370" y="602"/>
      <point x="406" y="564"/>
    </contour>
  </outline>
</glyph>
<glyph name="eth" format="1">
  <advance width="600"/>
  <unicode hex="00F0"/>
  <outline>
    <contour>
      <point x="300" y="126" type="curve" smooth="yes"/>
      <point x="244" y="126"/>
      <point x="198" y="160"/>
      <point x="198" y="230" type="curve" smooth="yes"/>
      <point x="198" y="305"/>
      <point x="239" y="332"/>
      <point x="297" y="332" type="curve" smooth="yes"/>
      <point x="335" y="332"/>
      <point x="366" y="320"/>
      <point x="395" y="289" type="curve"/>
      <point x="396" y="280"/>
      <point x="396" y="270"/>
      <point x="396" y="260" type="curve" smooth="yes"/>
      <point x="396" y="166"/>
      <point x="354" y="126"/>
    </contour>
    <contour>
      <point x="522" y="658" type="line"/>
      <point x="478" y="733" type="line"/>
      <point x="341" y="664" type="line"/>
      <point x="296" y="695"/>
      <point x="247" y="721"/>
      <point x="197" y="744" type="curve"/>
      <point x="123" y="640" type="line"/>
      <point x="154" y="626"/>
      <point x="181" y="611"/>
      <point x="206" y="596" type="curve"/>
      <point x="92" y="539" type="line"/>
      <point x="136" y="465" type="line"/>
      <point x="285" y="540" type="line"/>
      <point x="325" y="504"/>
      <point x="354" y="464"/>
      <point x="372" y="415" type="curve"/>
      <point x="343" y="446"/>
      <point x="301" y="458"/>
      <point x="260" y="458" type="curve" smooth="yes"/>
      <point x="150" y="458"/>
      <point x="42" y="376"/>
      <point x="42" y="230" type="curve" smooth="yes"/>
      <point x="42" y="82"/>
      <point x="156" y="-12"/>
      <point x="294" y="-12" type="curve" smooth="yes"/>
      <point x="460" y="-12"/>
      <point x="556" y="108"/>
      <point x="556" y="270" type="curve" smooth="yes"/>
      <point x="556" y="418"/>
      <point x="499" y="524"/>
      <point x="415" y="604" type="curve"/>
    </contour>
  </outline>
</glyph>
<glyph name="ntilde" format="1">
  <advance width="600"/>
  <unicode hex="00F1"/>
  <outline>
    <contour>
      <point x="64" y="0" type="line"/>
      <point x="236" y="0" type="line"/>
      <point x="236" y="328" type="line"/>
      <point x="262" y="352"/>
      <point x="284" y="366"/>
      <point x="316" y="366" type="curve" smooth="yes"/>
      <point x="360" y="366"/>
      <point x="374" y="342"/>
      <point x="374" y="286" type="curve" smooth="yes"/>
      <point x="374" y="0" type="line"/>
      <point x="546" y="0" type="line"/>
      <point x="546" y="308" type="line" smooth="yes"/>
      <point x="546" y="432"/>
      <point x="498" y="512"/>
      <point x="387" y="512" type="curve" smooth="yes"/>
      <point x="314" y="512"/>
      <point x="260" y="478"/>
      <point x="220" y="440" type="curve"/>
      <point x="216" y="440" type="line"/>
      <point x="204" y="500" type="line"/>
      <point x="64" y="500" type="line"/>
    </contour>
    <contour>
      <point x="132" y="574" type="curve"/>
      <point x="218" y="574" type="line"/>
      <point x="228" y="614"/>
      <point x="241" y="626"/>
      <point x="262" y="626" type="curve" smooth="yes"/>
      <point x="288" y="626"/>
      <point x="318" y="574"/>
      <point x="368" y="574" type="curve" smooth="yes"/>
      <point x="432" y="574"/>
      <point x="482" y="621"/>
      <point x="496" y="730" type="curve"/>
      <point x="410" y="730" type="line"/>
      <point x="400" y="690"/>
      <point x="387" y="678"/>
      <point x="366" y="678" type="curve" smooth="yes"/>
      <point x="340" y="678"/>
      <point x="309" y="730"/>
      <point x="260" y="730" type="curve" smooth="yes"/>
      <point x="196" y="730"/>
      <point x="146" y="683"/>
    </contour>
  </outline>
</glyph>
<glyph name="ocircumflex" format="1">
  <advance width="600"/>
  <unicode hex="00F4"/>
  <outline>
    <contour>
      <point x="42" y="250" type="curve" smooth="yes"/>
      <point x="42" y="84"/>
      <point x="168" y="-12"/>
      <point x="300" y="-12" type="curve" smooth="yes"/>
      <point x="432" y="-12"/>
      <point x="558" y="84"/>
      <point x="558" y="250" type="curve" smooth="yes"/>
      <point x="558" y="416"/>
      <point x="432" y="512"/>
      <point x="300" y="512" type="curve" smooth="yes"/>
      <point x="168" y="512"/>
      <point x="42" y="416"/>
    </contour>
    <contour>
      <point x="218" y="250" type="curve" smooth="yes"/>
      <point x="218" y="326"/>
      <point x="242" y="374"/>
      <point x="300" y="374" type="curve" smooth="yes"/>
      <point x="358" y="374"/>
      <point x="382" y="326"/>
      <point x="382" y="250" type="curve" smooth="yes"/>
      <point x="382" y="174"/>
      <point x="358" y="126"/>
      <point x="300" y="126" type="curve" smooth="yes"/>
      <point x="242" y="126"/>
      <point x="218" y="174"/>
    </contour>
    <contour>
      <point x="126" y="574" type="line"/>
      <point x="250" y="574" type="line"/>
      <point x="298" y="668" type="line"/>
      <point x="302" y="668" type="line"/>
      <point x="350" y="574" type="line"/>
      <point x="474" y="574" type="line"/>
      <point x="372" y="748" type="line"/>
      <point x="228" y="748" type="line"/>
    </contour>
  </outline>
</glyph>
<glyph name="divide" format="1">
  <advance width="600"/>
  <unicode hex="00F7"/>
  <outline>
    <contour>
      <point x="300" y="404" type="curve" smooth="yes"/>
      <point x="352" y="404"/>
      <point x="392" y="440"/>
      <point x="392" y="490" type="curve" smooth="yes"/>
      <point x="392" y="540"/>
      <point x="352" y="576"/>
      <point x="300" y="576" type="curve" smooth="yes"/>
      <point x="248" y="576"/>
      <point x="208" y="540"/>
      <point x="208" y="490" type="curve" smooth="yes"/>
      <point x="208" y="440"/>
      <point x="248" y="404"/>
    </contour>
    <contour>
      <point x="208" y="130" type="curve" smooth="yes"/>
      <point x="208" y="80"/>
      <point x="248" y="44"/>
      <point x="300" y="44" type="curve" smooth="yes"/>
      <point x="352" y="44"/>
      <point x="392" y="80"/>
      <point x="392" y="130" type="curve" smooth="yes"/>
      <point x="392" y="180"/>
      <point x="352" y="216"/>
      <point x="300" y="216" type="curve" smooth="yes"/>
      <point x="248" y="216"/>
      <point x="208" y="180"/>
    </contour>
    <contour>
      <point x="64" y="250" type="line"/>
      <point x="536" y="250" type="line"/>
      <point x="536" y="370" type="line"/>
      <point x="64" y="370" type="line"/>
    </contour>
  </outline>
</glyph>
<glyph name="Abreve" format="1">
  <advance width="600"/>
  <unicode hex="0102"/>
  <outline>
    <contour>
      <point x="350" y="824" type="line"/>
      <point x="344" y="800"/>
      <point x="330" y="784"/>
      <point x="300" y="784" type="curve" smooth="yes"/>
      <point x="270" y="784"/>
      <point x="256" y="800"/>
      <point x="250" y="824" type="curve"/>
      <point x="158" y="824" type="line"/>
      <point x="166" y="746"/>
      <point x="210" y="700"/>
      <point x="300" y="700" type="curve" smooth="yes"/>
      <point x="390" y="700"/>
      <point x="434" y="746"/>
      <point x="442" y="824" type="curve"/>
    </contour>
    <contour>
      <point x="239" y="271" type="line"/>
      <point x="249" y="316" type="line" smooth="yes"/>
      <point x="263" y="378"/>
      <point x="280" y="456"/>
      <point x="294" y="522" type="curve"/>
      <point x="298" y="522" type="line"/>
      <point x="314" y="457"/>
      <point x="331" y="378"/>
      <point x="345" y="316" type="curve" smooth="yes"/>
      <point x="355" y="271" type="line"/>
    </contour>
    <contour>
      <point x="418" y="0" type="line"/>
      <point x="600" y="0" type="line"/>
      <point x="404" y="650" type="line"/>
      <point x="196" y="650" type="line"/>
      <point x="0" y="0" type="line"/>
      <point x="176" y="0" type="line"/>
      <point x="208" y="138" type="line"/>
      <point x="386" y="138" type="line"/>
    </contour>
  </outline>
</glyph>
<glyph name="Ccircumflex" format="1">
  <advance width="600"/>
  <unicode hex="0108"/>
  <outline>
    <contour>
      <point x="51" y="320" type="curve" smooth="yes"/>
      <point x="51" y="98"/>
      <point x="197" y="-12"/>
      <point x="367" y="-12" type="curve" smooth="yes"/>
      <point x="447" y="-12"/>
      <point x="520" y="20"/>
      <point x="575" y="84" type="curve"/>
      <point x="481" y="188" type="line"/>
      <point x="453" y="158"/>
      <point x="419" y="136"/>
      <point x="377" y="136" type="curve" smooth="yes"/>
      <point x="289" y="136"/>
      <point x="227" y="204"/>
      <point x="227" y="326" type="curve" smooth="yes"/>
      <point x="227" y="444"/>
      <point x="289" y="514"/>
      <point x="369" y="514" type="curve" smooth="yes"/>
      <point x="413" y="514"/>
      <point x="443" y="498"/>
      <point x="473" y="472" type="curve"/>
      <point x="567" y="578" type="line"/>
      <point x="521" y="622"/>
      <point x="453" y="662"/>
      <point x="369" y="662" type="curve" smooth="yes"/>
      <point x="193" y="662"/>
      <point x="51" y="538"/>
    </contour>
    <contour>
      <point x="306" y="700" type="line"/>
      <point x="354" y="758" type="line"/>
      <point x="358" y="758" type="line"/>
      <point x="406" y="700" type="line"/>
      <point x="536" y="700" type="line"/>
      <point x="440" y="824" type="line"/>
      <point x="272" y="824" type="line"/>
      <point x="176" y="700" type="line"/>
    </contour>
  </outline>
</glyph>
<glyph name="Cdotaccent" format="1">
  <advance width="600"/>
  <unicode hex="010A"/>
  <outline>
    <contour>
      <point x="51" y="320" type="curve" smooth="yes"/>
      <point x="51" y="98"/>
      <point x="197" y="-12"/>
      <point x="367" y="-12" type="curve" smooth="yes"/>
      <point x="447" y="-12"/>
      <point x="520" y="20"/>
      <point x="575" y="84" type="curve"/>
      <point x="481" y="188" type="line"/>
      <point x="453" y="158"/>
      <point x="419" y="136"/>
      <point x="377" y="136" type="curve" smooth="yes"/>
      <point x="289" y="136"/>
      <point x="227" y="204"/>
      <point x="227" y="326" type="curve" smooth="yes"/>
      <point x="227" y="444"/>
      <point x="289" y="514"/>
      <point x="369" y="514" type="curve" smooth="yes"/>
      <point x="413" y="514"/>
      <point x="443" y="498"/>
      <point x="473" y="472" type="curve"/>
      <point x="567" y="578" type="line"/>
      <point x="521" y="622"/>
      <point x="453" y="662"/>
      <point x="369" y="662" type="curve" smooth="yes"/>
      <point x="193" y="662"/>
      <point x="51" y="538"/>
    </contour>
    <contour>
      <point x="356" y="696" type="curve" smooth="yes"/>
      <point x="412" y="696"/>
      <point x="452" y="732"/>
      <point x="452" y="782" type="curve" smooth="yes"/>
      <point x="452" y="832"/>
      <point x="412" y="868"/>
      <point x="356" y="868" type="curve" smooth="yes"/>
      <point x="300" y="868"/>
      <point x="260" y="832"/>
      <point x="260" y="782" type="curve" smooth="yes"/>
      <point x="260" y="732"/>
      <point x="300" y="696"/>
    </contour>
  </outline>
</glyph>
<glyph name="cdotaccent" format="1">
  <advance width="600"/>
  <unicode hex="010B"/>
  <outline>
    <contour>
      <point x="62" y="250" type="curve" smooth="yes"/>
      <point x="62" y="84"/>
      <point x="184" y="-12"/>
      <point x="342" y="-12" type="curve" smooth="yes"/>
      <point x="408" y="-12"/>
      <point x="489" y="9"/>
      <point x="551" y="60" type="curve"/>
      <point x="483" y="168" type="line"/>
      <point x="449" y="147"/>
      <point x="408" y="126"/>
      <point x="359" y="126" type="curve" smooth="yes"/>
      <point x="289" y="126"/>
      <point x="238" y="174"/>
      <point x="238" y="250" type="curve" smooth="yes"/>
      <point x="238" y="326"/>
      <point x="290" y="374"/>
      <point x="365" y="374" type="curve" smooth="yes"/>
      <point x="397" y="374"/>
      <point x="429" y="365"/>
      <point x="466" y="340" type="curve"/>
      <point x="544" y="446" type="line"/>
      <point x="502" y="486"/>
      <point x="433" y="512"/>
      <point x="355" y="512" type="curve" smooth="yes"/>
      <point x="200" y="512"/>
      <point x="62" y="416"/>
    </contour>
    <contour>
      <point x="340" y="562" type="curve" smooth="yes"/>
      <point x="404" y="562"/>
      <point x="450" y="602"/>
      <point x="450" y="662" type="curve" smooth="yes"/>
      <point x="450" y="722"/>
      <point x="404" y="764"/>
      <point x="340" y="764" type="curve" smooth="yes"/>
      <point x="276" y="764"/>
      <point x="230" y="722"/>
      <point x="230" y="662" type="curve" smooth="yes"/>
      <point x="230" y="602"/>
      <point x="276" y="562"/>
    </contour>
  </outline>
</glyph>
<glyph name="Dcaron" format="1">
  <advance width="600"/>
  <unicode hex="010E"/>
  <outline>
    <contour>
      <point x="58" y="0" type="line"/>
      <point x="251" y="0" type="line" smooth="yes"/>
      <point x="427" y="0"/>
      <point x="558" y="98"/>
      <point x="558" y="328" type="curve" smooth="yes"/>
      <point x="558" y="558"/>
      <point x="427" y="650"/>
      <point x="241" y="650" type="curve" smooth="yes"/>
      <point x="58" y="650" type="line"/>
    </contour>
    <contour>
      <point x="230" y="138" type="line"/>
      <point x="230" y="512" type="line"/>
      <point x="232" y="512" type="line" smooth="yes"/>
      <point x="315" y="512"/>
      <point x="382" y="480"/>
      <point x="382" y="328" type="curve" smooth="yes"/>
      <point x="382" y="176"/>
      <point x="315" y="138"/>
      <point x="232" y="138" type="curve" smooth="yes"/>
    </contour>
    <contour>
      <point x="346" y="824" type="line"/>
      <point x="298" y="766" type="line"/>
      <point x="294" y="766" type="line"/>
      <point x="246" y="824" type="line"/>
      <point x="116" y="824" type="line"/>
      <point x="212" y="700" type="line"/>
      <point x="380" y="700" type="line"/>
      <point x="476" y="824" type="line"/>
    </contour>
  </outline>
</glyph>
<glyph name="Emacron" format="1">
  <advance width="600"/>
  <unicode hex="0112"/>
  <outline>
    <contour>
      <point x="86" y="0" type="line"/>
      <point x="536" y="0" type="line"/>
      <point x="536" y="144" type="line"/>
      <point x="258" y="144" type="line"/>
      <point x="258" y="260" type="line"/>
      <point x="486" y="260" type="line"/>
      <point x="486" y="404" type="line"/>
      <point x="258" y="404" type="line"/>
      <point x="258" y="506" type="line"/>
      <point x="526" y="506" type="line"/>
      <point x="526" y="650" type="line"/>
      <point x="86" y="650" type="line"/>
    </contour>
    <contour>
      <point x="170" y="716" type="line"/>
      <point x="466" y="716" type="line"/>
      <point x="466" y="824" type="line"/>
      <point x="170" y="824" type="line"/>
    </contour>
  </outline>
</glyph>
<glyph name="Edotaccent" format="1">
  <advance width="600"/>
  <unicode hex="0116"/>
  <outline>
    <contour>
      <point x="86" y="0" type="line"/>
      <point x="536" y="0" type="line"/>
      <point x="536" y="144" type="line"/>
      <point x="258" y="144" type="line"/>
      <point x="258" y="260" type="line"/>
      <point x="486" y="260" type="line"/>
      <point x="486" y="404" type="line"/>
      <point x="258" y="404" type="line"/>
      <point x="258" y="506" type="line"/>
      <point x="526" y="506" type="line"/>
      <point x="526" y="650" type="line"/>
      <point x="86" y="650" type="line"/>
    </contour>
    <contour>
      <point x="318" y="696" type="curve" smooth="yes"/>
      <point x="374" y="696"/>
      <point x="414" y="732"/>
      <point x="414" y="782" type="curve" smooth="yes"/>
      <point x="414" y="832"/>
      <point x="374" y="868"/>
      <point x="318" y="868" type="curve" smooth="yes"/>
      <point x="262" y="868"/>
      <point x="222" y="832"/>
      <point x="222" y="782" type="curve" smooth="yes"/>
      <point x="222" y="732"/>
      <point x="262" y="696"/>
    </contour>
  </outline>
</glyph>
<glyph name="Eogonek" format="1">
  <advance width="600"/>
  <unicode hex="0118"/>
  <outline>
    <contour>
      <point x="86" y="0" type="line"/>
      <point x="402" y="0" type="line"/>
      <point x="369" y="-20"/>
      <point x="322" y="-67"/>
      <point x="322" y="-130" type="curve" smooth="yes"/>
      <point x="322" y="-192"/>
      <point x="376" y="-228"/>
      <point x="444" y="-228" type="curve" smooth="yes"/>
      <point x="482" y="-228"/>
      <point x="530" y="-212"/>
      <point x="558" y="-190" type="curve"/>
      <point x="520" y="-104" type="line"/>
      <point x="511" y="-110"/>
      <point x="498" y="-118"/>
      <point x="486" y="-118" type="curve" smooth="yes"/>
      <point x="466" y="-118"/>
      <point x="446" y="-108"/>
      <point x="446" y="-84" type="curve" smooth="yes"/>
      <point x="446" y="-43"/>
      <point x="484" y="0"/>
      <point x="530" y="0" type="curve" smooth="yes"/>
      <point x="536" y="0" type="line"/>
      <point x="536" y="144" type="line"/>
      <point x="258" y="144" type="line"/>
      <point x="258" y="260" type="line"/>
      <point x="486" y="260" type="line"/>
      <point x="486" y="404" type="line"/>
      <point x="258" y="404" type="line"/>
      <point x="258" y="506" type="line"/>
      <point x="526" y="506" type="line"/>
      <point x="526" y="650" type="line"/>
      <point x="86" y="650" type="line"/>
    </contour>
  </outline>
</glyph>
<glyph name="Gbreve" format="1">
  <advance width="600"/>
  <unicode hex="011E"/>
  <outline>
    <contour>
      <point x="40" y="320" type="curve" smooth="yes"/>
      <point x="40" y="98"/>
      <point x="178" y="-12"/>
      <point x="345" y="-12" type="curve" smooth="yes"/>
      <point x="428" y="-12"/>
      <point x="507" y="28"/>
      <point x="552" y="68" type="curve"/>
      <point x="552" y="378" type="line"/>
      <point x="318" y="378" type="line"/>
      <point x="318" y="238" type="line"/>
      <point x="399" y="238" type="line"/>
      <point x="399" y="148" type="line"/>
      <point x="389" y="140"/>
      <point x="371" y="136"/>
      <point x="355" y="136" type="curve" smooth="yes"/>
      <point x="262" y="136"/>
      <point x="217" y="204"/>
      <point x="217" y="326" type="curve" smooth="yes"/>
      <point x="217" y="444"/>
      <point x="275" y="514"/>
      <point x="346" y="514" type="curve" smooth="yes"/>
      <point x="393" y="514"/>
      <point x="419" y="498"/>
      <point x="446" y="472" type="curve"/>
      <point x="540" y="578" type="line"/>
      <point x="497" y="622"/>
      <point x="434" y="662"/>
      <point x="346" y="662" type="curve" smooth="yes"/>
      <point x="177" y="662"/>
      <point x="40" y="540"/>
    </contour>
    <contour>
      <point x="330" y="700" type="curve" smooth="yes"/>
      <point x="420" y="700"/>
      <point x="464" y="746"/>
      <point x="472" y="824" type="curve"/>
      <point x="380" y="824" type="line"/>
      <point x="374" y="800"/>
      <point x="360" y="784"/>
      <point x="330" y="784" type="curve" smooth="yes"/>
      <point x="300" y="784"/>
      <point x="286" y="800"/>
      <point x="280" y="824" type="curve"/>
      <point x="188" y="824" type="line"/>
      <point x="196" y="746"/>
      <point x="240" y="700"/>
    </contour>
  </outline>
</glyph>
<glyph name="Gcommaaccent" format="1">
  <advance width="600"/>
  <unicode hex="0122"/>
  <outline>
    <contour>
      <point x="40" y="320" type="curve" smooth="yes"/>
      <point x="40" y="98"/>
      <point x="178" y="-12"/>
      <point x="345" y="-12" type="curve" smooth="yes"/>
      <point x="428" y="-12"/>
      <point x="507" y="28"/>
      <point x="552" y="68" type="curve"/>
      <point x="552" y="378" type="line"/>
      <point x="318" y="378" type="line"/>
      <point x="318" y="238" type="line"/>
      <point x="399" y="238" type="line"/>
      <point x="399" y="148" type="line"/>
      <point x="389" y="140"/>
      <point x="371" y="136"/>
      <point x="355" y="136" type="curve" smooth="yes"/>
      <point x="262" y="136"/>
      <point x="217" y="204"/>
      <point x="217" y="326" type="curve" smooth="yes"/>
      <point x="217" y="444"/>
      <point x="275" y="514"/>
      <point x="346" y="514" type="curve" smooth="yes"/>
      <point x="393" y="514"/>
      <point x="419" y="498"/>
      <point x="446" y="472" type="curve"/>
      <point x="540" y="578" type="line"/>
      <point x="497" y="622"/>
      <point x="434" y="662"/>
      <point x="346" y="662" type="curve" smooth="yes"/>
      <point x="177" y="662"/>
      <point x="40" y="540"/>
    </contour>
    <contour>
      <point x="296" y="-40" type="curve"/>
      <point x="264" y="-100" type="line"/>
      <point x="294" y="-108"/>
      <point x="304" y="-118"/>
      <point x="304" y="-134" type="curve" smooth="yes"/>
      <point x="304" y="-156"/>
      <point x="270" y="-164"/>
      <point x="224" y="-168" type="curve"/>
      <point x="236" y="-234" type="line"/>
      <point x="338" y="-230"/>
      <point x="426" y="-198"/>
      <point x="426" y="-126" type="curve" smooth="yes"/>
      <point x="426" y="-74"/>
      <point x="394" y="-48"/>
    </contour>
  </outline>
</glyph>
<glyph name="Hbar" format="1">
  <advance width="600"/>
  <unicode hex="0126"/>
  <outline>
    <contour>
      <point x="370" y="408" type="line"/>
      <point x="230" y="408" type="line"/>
      <point x="230" y="484" type="line"/>
      <point x="370" y="484" type="line"/>
    </contour>
    <contour>
      <point x="600" y="564" type="line"/>
      <point x="542" y="564" type="line"/>
      <point x="542" y="650" type="line"/>
      <point x="370" y="650" type="line"/>
      <point x="370" y="564" type="line"/>
      <point x="230" y="564" type="line"/>
      <point x="230" y="650" type="line"/>
      <point x="58" y="650" type="line"/>
      <point x="58" y="563" type="line"/>
      <point x="0" y="558" type="line"/>
      <point x="0" y="484" type="line"/>
      <point x="58" y="484" type="line"/>
      <point x="58" y="0" type="line"/>
      <point x="230" y="0" type="line"/>
      <point x="230" y="258" type="line"/>
      <point x="370" y="258" type="line"/>
      <point x="370" y="0" type="line"/>
      <point x="542" y="0" type="line"/>
      <point x="542" y="484" type="line"/>
      <point x="600" y="484" type="line"/>
    </contour>
  </outline>
</glyph>
<glyph name="Itilde" format="1">
  <advance width="600"/>
  <unicode hex="0128"/>
  <outline>
    <contour>
      <point x="66" y="0" type="line"/>
      <point x="534" y="0" type="line"/>
      <point x="534" y="144" type="line"/>
      <point x="386" y="144" type="line"/>
      <point x="386" y="506" type="line"/>
      <point x="534" y="506" type="line"/>
      <point x="534" y="650" type="line"/>
      <point x="66" y="650" type="line"/>
      <point x="66" y="506" type="line"/>
      <point x="214" y="506" type="line"/>
      <point x="214" y="144" type="line"/>
      <point x="66" y="144" type="line"/>
    </contour>
    <contour>
      <point x="364" y="700" type="curve" smooth="yes"/>
      <point x="418" y="700"/>
      <point x="468" y="744"/>
      <point x="480" y="846" type="curve"/>
      <point x="394" y="846" type="line"/>
      <point x="386" y="814"/>
      <point x="372" y="804"/>
      <point x="356" y="804" type="curve" smooth="yes"/>
      <point x="328" y="804"/>
      <point x="290" y="846"/>
      <point x="236" y="846" type="curve" smooth="yes"/>
      <point x="182" y="846"/>
      <point x="132" y="802"/>
      <point x="120" y="700" type="curve"/>
      <point x="206" y="700" type="line"/>
      <point x="214" y="732"/>
      <point x="228" y="742"/>
      <point x="244" y="742" type="curve" smooth="yes"/>
      <point x="272" y="742"/>
      <point x="310" y="700"/>
    </contour>
  </outline>
</glyph>
<glyph name="Imacron" format="1">
  <advance width="600"/>
  <unicode hex="012A"/>
  <outline>
    <contour>
      <point x="66" y="0" type="line"/>
      <point x="534" y="0" type="line"/>
      <point x="534" y="144" type="line"/>
      <point x="386" y="144" type="line"/>
      <point x="386" y="506" type="line"/>
      <point x="534" y="506" type="line"/>
      <point x="534" y="650" type="line"/>
      <point x="66" y="650" type="line"/>
      <point x="66" y="506" type="line"/>
      <point x="214" y="506" type="line"/>
      <point x="214" y="144" type="line"/>
      <point x="66" y="144" type="line"/>
    </contour>
    <contour>
      <point x="152" y="716" type="line"/>
      <point x="448" y="716" type="line"/>
      <point x="448" y="824" type="line"/>
      <point x="152" y="824" type="line"/>
    </contour>
  </outline>
</glyph>
<glyph name="Ibreve" format="1">
  <advance width="600"/>
  <unicode hex="012C"/>
  <outline>
    <contour>
      <point x="66" y="0" type="line"/>
      <point x="534" y="0" type="line"/>
      <point x="534" y="144" type="line"/>
      <point x="386" y="144" type="line"/>
      <point x="386" y="506" type="line"/>
      <point x="534" y="506" type="line"/>
      <point x="534" y="650" type="line"/>
      <point x="66" y="650" type="line"/>
      <point x="66" y="506" type="line"/>
      <point x="214" y="506" type="line"/>
      <point x="214" y="144" type="line"/>
      <point x="66" y="144" type="line"/>
    </contour>
    <contour>
      <point x="300" y="700" type="curve" smooth="yes"/>
      <point x="390" y="700"/>
      <point x="434" y="746"/>
      <point x="442" y="824" type="curve"/>
      <point x="350" y="824" type="line"/>
      <point x="344" y="800"/>
      <point x="330" y="784"/>
      <point x="300" y="784" type="curve" smooth="yes"/>
      <point x="270" y="784"/>
      <point x="256" y="800"/>
      <point x="250" y="824" type="curve"/>
      <point x="158" y="824" type="line"/>
      <point x="166" y="746"/>
      <point x="210" y="700"/>
    </contour>
  </outline>
</glyph>
<glyph name="ibreve" format="1">
  <advance width="600"/>
  <unicode hex="012D"/>
  <outline>
    <contour>
      <point x="74" y="366" type="line"/>
      <point x="264" y="366" type="line"/>
      <point x="264" y="0" type="line"/>
      <point x="436" y="0" type="line"/>
      <point x="436" y="500" type="line"/>
      <point x="74" y="500" type="line"/>
    </contour>
    <contour>
      <point x="344" y="574" type="curve" smooth="yes"/>
      <point x="447" y="574"/>
      <point x="496" y="650"/>
      <point x="498" y="738" type="curve"/>
      <point x="404" y="738" type="line"/>
      <point x="399" y="696"/>
      <point x="381" y="666"/>
      <point x="344" y="666" type="curve" smooth="yes"/>
      <point x="307" y="666"/>
      <point x="289" y="696"/>
      <point x="284" y="738" type="curve"/>
      <point x="190" y="738" type="line"/>
      <point x="192" y="650"/>
      <point x="241" y="574"/>
    </contour>
  </outline>
</glyph>
<glyph name="iogonek" format="1">
  <advance width="600"/>
  <unicode hex="012F"/>
  <outline>
    <contour>
      <point x="264" y="0" type="line"/>
      <point x="314" y="0" type="line"/>
      <point x="290" y="-17"/>
      <point x="248" y="-59"/>
      <point x="248" y="-118" type="curve" smooth="yes"/>
      <point x="248" y="-180"/>
      <point x="298" y="-212"/>
      <point x="360" y="-212" type="curve" smooth="yes"/>
      <point x="394" y="-212"/>
      <point x="442" y="-198"/>
      <point x="470" y="-176" type="curve"/>
      <point x="436" y="-100" type="line"/>
      <point x="425" y="-106"/>
      <point x="414" y="-112"/>
      <point x="403" y="-112" type="curve" smooth="yes"/>
      <point x="381" y="-112"/>
      <point x="362" y="-101"/>
      <point x="362" y="-78" type="curve" smooth="yes"/>
      <point x="362" y="-50"/>
      <point x="378" y="-16"/>
      <point x="436" y="0" type="curve"/>
      <point x="436" y="500" type="line"/>
      <point x="74" y="500" type="line"/>
      <point x="74" y="366" type="line"/>
      <point x="264" y="366" type="line"/>
    </contour>
    <contour>
      <point x="344" y="562" type="curve" smooth="yes"/>
      <point x="408" y="562"/>
      <point x="454" y="602"/>
      <point x="454" y="662" type="curve" smooth="yes"/>
      <point x="454" y="722"/>
      <point x="408" y="764"/>
      <point x="344" y="764" type="curve" smooth="yes"/>
      <point x="280" y="764"/>
      <point x="234" y="722"/>
      <point x="234" y="662" type="curve" smooth="yes"/>
      <point x="234" y="602"/>
      <point x="280" y="562"/>
    </contour>
  </outline>
</glyph>
<glyph name="kcommaaccent" format="1">
  <advance width="600"/>
  <unicode hex="0137"/>
  <outline>
    <contour>
      <point x="64" y="0" type="line"/>
      <point x="236" y="0" type="line"/>
      <point x="236" y="120" type="line"/>
      <point x="295" y="178" type="line"/>
      <point x="404" y="0" type="line"/>
      <point x="590" y="0" type="line"/>
      <point x="393" y="292" type="line"/>
      <point x="578" y="500" type="line"/>
      <point x="392" y="500" type="line"/>
      <point x="240" y="326" type="line"/>
      <point x="236" y="326" type="line"/>
      <point x="236" y="696" type="line"/>
      <point x="64" y="696" type="line"/>
    </contour>
    <contour>
      <point x="282" y="-40" type="curve"/>
      <point x="250" y="-100" type="line"/>
      <point x="280" y="-108"/>
      <point x="290" y="-118"/>
      <point x="290" y="-134" type="curve" smooth="yes"/>
      <point x="290" y="-156"/>
      <point x="256" y="-164"/>
      <point x="210" y="-168" type="curve"/>
      <point x="222" y="-234" type="line"/>
      <point x="324" y="-230"/>
      <point x="412" y="-198"/>
      <point x="412" y="-126" type="curve" smooth="yes"/>
      <point x="412" y="-74"/>
      <point x="380" y="-48"/>
    </contour>
  </outline>
</glyph>
<glyph name="Lacute" format="1">
  <advance width="600"/>
  <unicode hex="0139"/>
  <outline>
    <contour>
      <point x="96" y="0" type="line"/>
      <point x="545" y="0" type="line"/>
      <point x="545" y="144" type="line"/>
      <point x="268" y="144" type="line"/>
      <point x="268" y="650" type="line"/>
      <point x="96" y="650" type="line"/>
    </contour>
    <contour>
      <point x="371" y="824" type="line"/>
      <point x="191" y="824" type="line"/>
      <point x="113" y="700" type="line"/>
      <point x="249" y="700" type="line"/>
    </contour>
  </outline>
</glyph>
<glyph name="lacute" format="1">
  <advance width="600"/>
  <unicode hex="013A"/>
  <outline>
    <contour>
      <point x="54" y="562" type="line"/>
      <point x="190" y="562" type="line"/>
      <point x="190" y="206" type="line" smooth="yes"/>
      <point x="190" y="76"/>
      <point x="258" y="-12"/>
      <point x="391" y="-12" type="curve" smooth="yes"/>
      <point x="456" y="-12"/>
      <point x="492" y="-2"/>
      <point x="546" y="14" type="curve"/>
      <point x="509" y="140" type="line"/>
      <point x="480" y="130"/>
      <point x="458" y="126"/>
      <point x="437" y="126" type="curve" smooth="yes"/>
      <point x="402" y="126"/>
      <point x="362" y="142"/>
      <point x="362" y="200" type="curve" smooth="yes"/>
      <point x="362" y="696" type="line"/>
      <point x="54" y="696" type="line"/>
    </contour>
    <contour>
      <point x="434" y="880" type="line"/>
      <point x="254" y="880" type="line"/>
      <point x="176" y="756" type="line"/>
      <point x="312" y="756" type="line"/>
    </contour>
  </outline>
</glyph>
<glyph name="Lcaron" format="1">
  <advance width="600"/>
  <unicode hex="013D"/>
  <outline>
    <contour>
      <point x="96" y="0" type="line"/>
      <point x="545" y="0" type="line"/>
      <point x="545" y="144" type="line"/>
      <point x="268" y="144" type="line"/>
      <point x="268" y="650" type="line"/>
      <point x="96" y="650" type="line"/>
    </contour>
    <contour>
      <point x="457" y="508" type="line"/>
      <point x="485" y="660" type="line"/>
      <point x="487" y="734" type="line"/>
      <point x="379" y="734" type="line"/>
      <point x="385" y="508" type="line"/>
    </contour>
  </outline>
</glyph>
<glyph name="Ldot" format="1">
  <advance width="600"/>
  <unicode hex="013F"/>
  <outline>
    <contour>
      <point x="96" y="0" type="line"/>
      <point x="545" y="0" type="line"/>
      <point x="545" y="144" type="line"/>
      <point x="268" y="144" type="line"/>
      <point x="268" y="650" type="line"/>
      <point x="96" y="650" type="line"/>
    </contour>
    <contour>
      <point x="462" y="256" type="curve" smooth="yes"/>
      <point x="526" y="256"/>
      <point x="572" y="296"/>
      <point x="572" y="356" type="curve" smooth="yes"/>
      <point x="572" y="416"/>
      <point x="526" y="458"/>
      <point x="462" y="458" type="curve" smooth="yes"/>
      <point x="398" y="458"/>
      <point x="352" y="416"/>
      <point x="352" y="356" type="curve" smooth="yes"/>
      <point x="352" y="296"/>
      <point x="398" y="256"/>
    </contour>
  </outline>
</glyph>
<glyph name="Lslash" format="1">
  <advance width="600"/>
  <unicode hex="0141"/>
  <outline>
    <contour>
      <point x="268" y="144" type="line"/>
      <point x="268" y="271" type="line"/>
      <point x="467" y="382" type="line"/>
      <point x="467" y="514" type="line"/>
      <point x="268" y="403" type="line"/>
      <point x="268" y="650" type="line"/>
      <point x="96" y="650" type="line"/>
      <point x="96" y="319" type="line"/>
      <point x="25" y="278" type="line"/>
      <point x="25" y="146" type="line"/>
      <point x="96" y="187" type="line"/>
      <point x="96" y="0" type="line"/>
      <point x="545" y="0" type="line"/>
      <point x="545" y="144" type="line"/>
    </contour>
  </outline>
</glyph>
<glyph name="Ncommaaccent" format="1">
  <advance width="600"/>
  <unicode hex="0145"/>
  <outline>
    <contour>
      <point x="60" y="0" type="line"/>
      <point x="224" y="0" type="line"/>
      <point x="224" y="188" type="line" smooth="yes"/>
      <point x="224" y="268"/>
      <point x="208" y="362"/>
      <point x="200" y="436" type="curve"/>
      <point x="204" y="436" type="line"/>
      <point x="257" y="291" type="line"/>
      <point x="366" y="0" type="line"/>
      <point x="540" y="0" type="line"/>
      <point x="540" y="650" type="line"/>
      <point x="376" y="650" type="line"/>
      <point x="376" y="462" type="line" smooth="yes"/>
      <point x="376" y="382"/>
      <point x="392" y="284"/>
      <point x="400" y="214" type="curve"/>
      <point x="396" y="214" type="line"/>
      <point x="343" y="360" type="line"/>
      <point x="234" y="650" type="line"/>
      <point x="60" y="650" type="line"/>
    </contour>
    <contour>
      <point x="262" y="-40" type="curve"/>
      <point x="230" y="-100" type="line"/>
      <point x="260" y="-108"/>
      <point x="270" y="-118"/>
      <point x="270" y="-134" type="curve" smooth="yes"/>
      <point x="270" y="-156"/>
      <point x="236" y="-164"/>
      <point x="190" y="-168" type="curve"/>
      <point x="202" y="-234" type="line"/>
      <point x="304" y="-230"/>
      <point x="392" y="-198"/>
      <point x="392" y="-126" type="curve" smooth="yes"/>
      <point x="392" y="-74"/>
      <point x="360" y="-48"/>
    </contour>
  </outline>
</glyph>
<glyph name="Ncaron" format="1">
  <advance width="600"/>
  <unicode hex="0147"/>
  <outline>
    <contour>
      <point x="60" y="0" type="line"/>
      <point x="224" y="0" type="line"/>
      <point x="224" y="188" type="line" smooth="yes"/>
      <point x="224" y="268"/>
      <point x="208" y="362"/>
      <point x="200" y="436" type="curve"/>
      <point x="204" y="436" type="line"/>
      <point x="257" y="291" type="line"/>
      <point x="366" y="0" type="line"/>
      <point x="540" y="0" type="line"/>
      <point x="540" y="650" type="line"/>
      <point x="376" y="650" type="line"/>
      <point x="376" y="462" type="line" smooth="yes"/>
      <point x="376" y="382"/>
      <point x="392" y="284"/>
      <point x="400" y="214" type="curve"/>
      <point x="396" y="214" type="line"/>
      <point x="343" y="360" type="line"/>
      <point x="234" y="650" type="line"/>
      <point x="60" y="650" type="line"/>
    </contour>
    <contour>
      <point x="356" y="824" type="line"/>
      <point x="308" y="766" type="line"/>
      <point x="304" y="766" type="line"/>
      <point x="256" y="824" type="line"/>
      <point x="126" y="824" type="line"/>
      <point x="222" y="700" type="line"/>
      <point x="390" y="700" type="line"/>
      <point x="486" y="824" type="line"/>
    </contour>
  </outline>
</glyph>
<glyph name="ncaron" format="1">
  <advance width="600"/>
  <unicode hex="0148"/>
  <outline>
    <contour>
      <point x="64" y="0" type="line"/>
      <point x="236" y="0" type="line"/>
      <point x="236" y="328" type="line"/>
      <point x="262" y="352"/>
      <point x="284" y="366"/>
      <point x="316" y="366" type="curve" smooth="yes"/>
      <point x="360" y="366"/>
      <point x="374" y="342"/>
      <point x="374" y="286" type="curve" smooth="yes"/>
      <point x="374" y="0" type="line"/>
      <point x="546" y="0" type="line"/>
      <point x="546" y="308" type="line" smooth="yes"/>
      <point x="546" y="432"/>
      <point x="498" y="512"/>
      <point x="387" y="512" type="curve" smooth="yes"/>
      <point x="314" y="512"/>
      <point x="260" y="478"/>
      <point x="220" y="440" type="curve"/>
      <point x="216" y="440" type="line"/>
      <point x="204" y="500" type="line"/>
      <point x="64" y="500" type="line"/>
    </contour>
    <contour>
      <point x="242" y="574" type="line"/>
      <point x="386" y="574" type="line"/>
      <point x="488" y="748" type="line"/>
      <point x="364" y="748" type="line"/>
      <point x="316" y="654" type="line"/>
      <point x="312" y="654" type="line"/>
      <point x="264" y="748" type="line"/>
      <point x="140" y="748" type="line"/>
    </contour>
  </outline>
</glyph>
<glyph name="Ohungarumlaut" format="1">
  <advance width="600"/>
  <unicode hex="0150"/>
  <outline>
    <contour>
      <point x="300" y="-12" type="curve" smooth="yes"/>
      <point x="458" y="-12"/>
      <point x="566" y="114"/>
      <point x="566" y="328" type="curve" smooth="yes"/>
      <point x="566" y="541"/>
      <point x="458" y="662"/>
      <point x="300" y="662" type="curve" smooth="yes"/>
      <point x="142" y="662"/>
      <point x="34" y="542"/>
      <point x="34" y="328" type="curve" smooth="yes"/>
      <point x="34" y="114"/>
      <point x="142" y="-12"/>
    </contour>
    <contour>
      <point x="300" y="136" type="curve" smooth="yes"/>
      <point x="244" y="136"/>
      <point x="210" y="210"/>
      <point x="210" y="328" type="curve" smooth="yes"/>
      <point x="210" y="446"/>
      <point x="244" y="514"/>
      <point x="300" y="514" type="curve" smooth="yes"/>
      <point x="356" y="514"/>
      <point x="390" y="446"/>
      <point x="390" y="328" type="curve" smooth="yes"/>
      <point x="390" y="210"/>
      <point x="356" y="136"/>
    </contour>
    <contour>
      <point x="266" y="700" type="line"/>
      <point x="358" y="824" type="line"/>
      <point x="214" y="824" type="line"/>
      <point x="152" y="700" type="line"/>
    </contour>
    <contour>
      <point x="340" y="700" type="line"/>
      <point x="454" y="700" type="line"/>
      <point x="546" y="824" type="line"/>
      <point x="402" y="824" type="line"/>
    </contour>
  </outline>
</glyph>
<glyph name="oe" format="1">
  <advance width="600"/>
  <unicode hex="0153"/>
  <outline>
    <contour>
      <point x="166" y="250" type="curve" smooth="yes"/>
      <point x="166" y="326"/>
      <point x="179" y="374"/>
      <point x="212" y="374" type="curve" smooth="yes"/>
      <point x="238" y="374"/>
      <point x="251" y="326"/>
      <point x="251" y="250" type="curve" smooth="yes"/>
      <point x="251" y="174"/>
      <point x="238" y="126"/>
      <point x="212" y="126" type="curve" smooth="yes"/>
      <point x="179" y="126"/>
      <point x="166" y="174"/>
    </contour>
    <contour>
      <point x="12" y="250" type="curve" smooth="yes"/>
      <point x="12" y="84"/>
      <point x="96" y="-12"/>
      <point x="198" y="-12" type="curve" smooth="yes"/>
      <point x="256" y="-12"/>
      <point x="290" y="10"/>
      <point x="319" y="52" type="curve"/>
      <point x="348" y="11"/>
      <point x="394" y="-12"/>
      <point x="441" y="-12" type="curve" smooth="yes"/>
      <point x="480" y="-12"/>
      <point x="536" y="4"/>
      <point x="576" y="36" type="curve"/>
      <point x="518" y="146" type="line"/>
      <point x="492" y="128"/>
      <point x="472" y="122"/>
      <point x="448" y="122" type="curve" smooth="yes"/>
      <point x="412" y="122"/>
      <point x="382" y="142"/>
      <point x="368" y="198" type="curve"/>
      <point x="584" y="198" type="line"/>
      <point x="588" y="220"/>
      <point x="590" y="236"/>
      <point x="590" y="266" type="curve" smooth="yes"/>
      <point x="590" y="400"/>
      <point x="533" y="512"/>
      <point x="431" y="512" type="curve" smooth="yes"/>
      <point x="388" y="512"/>
      <point x="344" y="486"/>
      <point x="317" y="438" type="curve"/>
      <point x="294" y="482"/>
      <point x="257" y="512"/>
      <point x="202" y="512" type="curve" smooth="yes"/>
      <point x="99" y="512"/>
      <point x="12" y="416"/>
    </contour>
    <contour>
      <point x="366" y="302" type="line"/>
      <point x="372" y="360"/>
      <point x="394" y="382"/>
      <point x="418" y="382" type="curve" smooth="yes"/>
      <point x="448" y="382"/>
      <point x="456" y="346"/>
      <point x="456" y="302" type="curve"/>
    </contour>
  </outline>
</glyph>
<glyph name="Racute" format="1">
  <advance width="600"/>
  <unicode hex="0154"/>
  <outline>
    <contour>
      <point x="476" y="824" type="line"/>
      <point x="296" y="824" type="line"/>
      <point x="218" y="700" type="line"/>
      <point x="354" y="700" type="line"/>
    </contour>
    <contour>
      <point x="230" y="514" type="line"/>
      <point x="288" y="514" type="line" smooth="yes"/>
      <point x="356" y="514"/>
      <point x="392" y="496"/>
      <point x="392" y="440" type="curve" smooth="yes"/>
      <point x="392" y="384"/>
      <point x="356" y="354"/>
      <point x="288" y="354" type="curve" smooth="yes"/>
      <point x="230" y="354" type="line"/>
    </contour>
    <contour>
      <point x="596" y="0" type="line"/>
      <point x="455" y="252" type="line"/>
      <point x="518" y="286"/>
      <point x="560" y="347"/>
      <point x="560" y="440" type="curve" smooth="yes"/>
      <point x="560" y="602"/>
      <point x="440" y="650"/>
      <point x="300" y="650" type="curve" smooth="yes"/>
      <point x="58" y="650" type="line"/>
      <point x="58" y="0" type="line"/>
      <point x="230" y="0" type="line"/>
      <point x="230" y="218" type="line"/>
      <point x="292" y="218" type="line"/>
      <point x="404" y="0" type="line"/>
    </contour>
  </outline>
</glyph>
<glyph name="Rcommaaccent" format="1">
  <advance width="600"/>
  <unicode hex="0156"/>
  <outline>
    <contour>
      <point x="230" y="514" type="line"/>
      <point x="288" y="514" type="line" smooth="yes"/>
      <point x="356" y="514"/>
      <point x="392" y="496"/>
      <point x="392" y="440" type="curve" smooth="yes"/>
      <point x="392" y="384"/>
      <point x="356" y="354"/>
      <point x="288" y="354" type="curve" smooth="yes"/>
      <point x="230" y="354" type="line"/>
    </contour>
    <contour>
      <point x="230" y="218" type="line"/>
      <point x="292" y="218" type="line"/>
      <point x="404" y="0" type="line"/>
      <point x="596" y="0" type="line"/>
      <point x="455" y="252" type="line"/>
      <point x="518" y="286"/>
      <point x="560" y="347"/>
      <point x="560" y="440" type="curve" smooth="yes"/>
      <point x="560" y="602"/>
      <point x="440" y="650"/>
      <point x="300" y="650" type="curve" smooth="yes"/>
      <point x="58" y="650" type="line"/>
      <point x="58" y="0" type="line"/>
      <point x="230" y="0" type="line"/>
    </contour>
    <contour>
      <point x="250" y="-100" type="line"/>
      <point x="280" y="-108"/>
      <point x="290" y="-118"/>
      <point x="290" y="-134" type="curve" smooth="yes"/>
      <point x="290" y="-156"/>
      <point x="256" y="-164"/>
      <point x="210" y="-168" type="curve"/>
      <point x="222" y="-234" type="line"/>
      <point x="324" y="-230"/>
      <point x="412" y="-198"/>
      <point x="412" y="-126" type="curve" smooth="yes"/>
      <point x="412" y="-74"/>
      <point x="380" y="-48"/>
      <point x="282" y="-40" type="curve"/>
    </contour>
  </outline>
</glyph>
<glyph name="sacute" format="1">
  <advance width="600"/>
  <unicode hex="015B"/>
  <outline>
    <contour>
      <point x="46" y="64" type="line"/>
      <point x="110" y="22"/>
      <point x="204" y="-12"/>
      <point x="290" y="-12" type="curve" smooth="yes"/>
      <point x="457" y="-12"/>
      <point x="546" y="60"/>
      <point x="546" y="154" type="curve" smooth="yes"/>
      <point x="546" y="244"/>
      <point x="452" y="281"/>
      <point x="367" y="304" type="curve" smooth="yes"/>
      <point x="303" y="321"/>
      <point x="248" y="332"/>
      <point x="248" y="358" type="curve" smooth="yes"/>
      <point x="248" y="378"/>
      <point x="269" y="386"/>
      <point x="321" y="386" type="curve" smooth="yes"/>
      <point x="369" y="386"/>
      <point x="416" y="366"/>
      <point x="462" y="340" type="curve"/>
      <point x="538" y="442" type="line"/>
      <point x="485" y="475"/>
      <point x="411" y="512"/>
      <point x="317" y="512" type="curve" smooth="yes"/>
      <point x="171" y="512"/>
      <point x="77" y="448"/>
      <point x="77" y="350" type="curve" smooth="yes"/>
      <point x="77" y="268"/>
      <point x="170" y="226"/>
      <point x="252" y="202" type="curve" smooth="yes"/>
      <point x="317" y="183"/>
      <point x="375" y="170"/>
      <point x="375" y="144" type="curve" smooth="yes"/>
      <point x="375" y="124"/>
      <point x="353" y="114"/>
      <point x="294" y="114" type="curve" smooth="yes"/>
      <point x="236" y="114"/>
      <point x="180" y="136"/>
      <point x="122" y="170" type="curve"/>
    </contour>
    <contour>
      <point x="490" y="748" type="line"/>
      <point x="316" y="748" type="line"/>
      <point x="228" y="574" type="line"/>
      <point x="352" y="574" type="line"/>
    </contour>
  </outline>
</glyph>
<glyph name="scedilla" format="1">
  <advance width="600"/>
  <unicode hex="015F"/>
  <outline>
    <contour>
      <point x="538" y="442" type="line"/>
      <point x="485" y="475"/>
      <point x="411" y="512"/>
      <point x="317" y="512" type="curve" smooth="yes"/>
      <point x="171" y="512"/>
      <point x="77" y="448"/>
      <point x="77" y="350" type="curve" smooth="yes"/>
      <point x="77" y="268"/>
      <point x="170" y="226"/>
      <point x="252" y="202" type="curve" smooth="yes"/>
      <point x="317" y="183"/>
      <point x="375" y="170"/>
      <point x="375" y="144" type="curve" smooth="yes"/>
      <point x="375" y="124"/>
      <point x="353" y="114"/>
      <point x="294" y="114" type="curve" smooth="yes"/>
      <point x="236" y="114"/>
      <point x="180" y="136"/>
      <point x="122" y="170" type="curve"/>
      <point x="46" y="64" type="line"/>
      <point x="102" y="27"/>
      <point x="181" y="-3"/>
      <point x="257" y="-10" type="curve"/>
      <point x="224" y="-76" type="line"/>
      <point x="270" y="-88"/>
      <point x="280" y="-102"/>
      <point x="280" y="-116" type="curve" smooth="yes"/>
      <point x="280" y="-142"/>
      <point x="246" y="-154"/>
      <point x="200" y="-158" type="curve"/>
      <point x="212" y="-224" type="line"/>
      <point x="314" y="-220"/>
      <point x="402" y="-188"/>
      <point x="402" y="-116" type="curve" smooth="yes"/>
      <point x="402" y="-74"/>
      <point x="378" y="-52"/>
      <point x="344" y="-40" type="curve"/>
      <point x="357" y="-8" type="line"/>
      <point x="481" y="9"/>
      <point x="546" y="74"/>
      <point x="546" y="154" type="curve" smooth="yes"/>
      <point x="546" y="244"/>
      <point x="452" y="281"/>
      <point x="367" y="304" type="curve" smooth="yes"/>
      <point x="303" y="321"/>
      <point x="248" y="332"/>
      <point x="248" y="358" type="curve" smooth="yes"/>
      <point x="248" y="378"/>
      <point x="269" y="386"/>
      <point x="321" y="386" type="curve" smooth="yes"/>
      <point x="369" y="386"/>
      <point x="416" y="366"/>
      <point x="462" y="340" type="curve"/>
    </contour>
  </outline>
</glyph>
<glyph name="tcommaaccent" format="1">
  <advance width="600"/>
  <unicode hex="0163"/>
  <outline>
    <contour>
      <point x="162" y="212" type="line" smooth="yes"/>
      <point x="162" y="78"/>
      <point x="222" y="-12"/>
      <point x="386" y="-12" type="curve" smooth="yes"/>
      <point x="454" y="-12"/>
      <point x="509" y="2"/>
      <point x="553" y="14" type="curve"/>
      <point x="524" y="138" type="line"/>
      <point x="497" y="129"/>
      <point x="465" y="122"/>
      <point x="431" y="122" type="curve" smooth="yes"/>
      <point x="367" y="122"/>
      <point x="334" y="144"/>
      <point x="334" y="215" type="curve" smooth="yes"/>
      <point x="334" y="366" type="line"/>
      <point x="531" y="366" type="line"/>
      <point x="531" y="500" type="line"/>
      <point x="334" y="500" type="line"/>
      <point x="334" y="630" type="line"/>
      <point x="192" y="630" type="line"/>
      <point x="170" y="500" type="line"/>
      <point x="42" y="494" type="line"/>
      <point x="42" y="366" type="line"/>
      <point x="162" y="366" type="line"/>
    </contour>
    <contour>
      <point x="326" y="-40" type="curve"/>
      <point x="294" y="-100" type="line"/>
      <point x="324" y="-108"/>
      <point x="334" y="-118"/>
      <point x="334" y="-134" type="curve" smooth="yes"/>
      <point x="334" y="-156"/>
      <point x="300" y="-164"/>
      <point x="254" y="-168" type="curve"/>
      <point x="266" y="-234" type="line"/>
      <point x="368" y="-230"/>
      <point x="456" y="-198"/>
      <point x="456" y="-126" type="curve" smooth="yes"/>
      <point x="456" y="-74"/>
      <point x="424" y="-48"/>
    </contour>
  </outline>
</glyph>
<glyph name="Tcaron" format="1">
  <advance width="600"/>
  <unicode hex="0164"/>
  <outline>
    <contour>
      <point x="214" y="0" type="line"/>
      <point x="386" y="0" type="line"/>
      <point x="386" y="506" type="line"/>
      <point x="573" y="506" type="line"/>
      <point x="573" y="650" type="line"/>
      <point x="27" y="650" type="line"/>
      <point x="27" y="506" type="line"/>
      <point x="214" y="506" type="line"/>
    </contour>
    <contour>
      <point x="350" y="824" type="line"/>
      <point x="302" y="766" type="line"/>
      <point x="298" y="766" type="line"/>
      <point x="250" y="824" type="line"/>
      <point x="120" y="824" type="line"/>
      <point x="216" y="700" type="line"/>
      <point x="384" y="700" type="line"/>
      <point x="480" y="824" type="line"/>
    </contour>
  </outline>
</glyph>
<glyph name="Utilde" format="1">
  <advance width="600"/>
  <unicode hex="0168"/>
  <outline>
    <contour>
      <point x="58" y="252" type="line" smooth="yes"/>
      <point x="58" y="90"/>
      <point x="132" y="-12"/>
      <point x="302" y="-12" type="curve" smooth="yes"/>
      <point x="472" y="-12"/>
      <point x="542" y="90"/>
      <point x="542" y="252" type="curve" smooth="yes"/>
      <point x="542" y="650" type="line"/>
      <point x="376" y="650" type="line"/>
      <point x="376" y="232" type="line" smooth="yes"/>
      <point x="376" y="176"/>
      <point x="357" y="136"/>
      <point x="302" y="136" type="curve" smooth="yes"/>
      <point x="247" y="136"/>
      <point x="230" y="176"/>
      <point x="230" y="232" type="curve" smooth="yes"/>
      <point x="230" y="650" type="line"/>
      <point x="58" y="650" type="line"/>
    </contour>
    <contour>
      <point x="364" y="700" type="curve" smooth="yes"/>
      <point x="418" y="700"/>
      <point x="468" y="744"/>
      <point x="480" y="846" type="curve"/>
      <point x="394" y="846" type="line"/>
      <point x="386" y="814"/>
      <point x="372" y="804"/>
      <point x="356" y="804" type="curve" smooth="yes"/>
      <point x="328" y="804"/>
      <point x="290" y="846"/>
      <point x="236" y="846" type="curve" smooth="yes"/>
      <point x="182" y="846"/>
      <point x="132" y="802"/>
      <point x="120" y="700" type="curve"/>
      <point x="206" y="700" type="line"/>
      <point x="214" y="732"/>
      <point x="228" y="742"/>
      <point x="244" y="742" type="curve" smooth="yes"/>
      <point x="272" y="742"/>
      <point x="310" y="700"/>
    </contour>
  </outline>
</glyph>
<glyph name="Ubreve" format="1">
  <advance width="600"/>
  <unicode hex="016C"/>
  <outline>
    <contour>
      <point x="58" y="252" type="line" smooth="yes"/>
      <point x="58" y="90"/>
      <point x="132" y="-12"/>
      <point x="302" y="-12" type="curve" smooth="yes"/>
      <point x="472" y="-12"/>
      <point x="542" y="90"/>
      <point x="542" y="252" type="curve" smooth="yes"/>
      <point x="542" y="650" type="line"/>
      <point x="376" y="650" type="line"/>
      <point x="376" y="232" type="line" smooth="yes"/>
      <point x="376" y="176"/>
      <point x="357" y="136"/>
      <point x="302" y="136" type="curve" smooth="yes"/>
      <point x="247" y="136"/>
      <point x="230" y="176"/>
      <point x="230" y="232" type="curve" smooth="yes"/>
      <point x="230" y="650" type="line"/>
      <point x="58" y="650" type="line"/>
    </contour>
    <contour>
      <point x="300" y="700" type="curve" smooth="yes"/>
      <point x="390" y="700"/>
      <point x="434" y="746"/>
      <point x="442" y="824" type="curve"/>
      <point x="350" y="824" type="line"/>
      <point x="344" y="800"/>
      <point x="330" y="784"/>
      <point x="300" y="784" type="curve" smooth="yes"/>
      <point x="270" y="784"/>
      <point x="256" y="800"/>
      <point x="250" y="824" type="curve"/>
      <point x="158" y="824" type="line"/>
      <point x="166" y="746"/>
      <point x="210" y="700"/>
    </contour>
  </outline>
</glyph>
<glyph name="ubreve" format="1">
  <advance width="600"/>
  <unicode hex="016D"/>
  <outline>
    <contour>
      <point x="532" y="500" type="line"/>
      <point x="360" y="500" type="line"/>
      <point x="360" y="178" type="line"/>
      <point x="334" y="142"/>
      <point x="314" y="134"/>
      <point x="285" y="134" type="curve" smooth="yes"/>
      <point x="240" y="134"/>
      <point x="228" y="158"/>
      <point x="228" y="214" type="curve" smooth="yes"/>
      <point x="228" y="500" type="line"/>
      <point x="56" y="500" type="line"/>
      <point x="56" y="192" type="line" smooth="yes"/>
      <point x="56" y="68"/>
      <point x="102" y="-12"/>
      <point x="214" y="-12" type="curve" smooth="yes"/>
      <point x="284" y="-12"/>
      <point x="334" y="18"/>
      <point x="376" y="66" type="curve"/>
      <point x="380" y="66" type="line"/>
      <point x="392" y="0" type="line"/>
      <point x="532" y="0" type="line"/>
    </contour>
    <contour>
      <point x="296" y="574" type="curve" smooth="yes"/>
      <point x="399" y="574"/>
      <point x="448" y="650"/>
      <point x="450" y="738" type="curve"/>
      <point x="356" y="738" type="line"/>
      <point x="351" y="696"/>
      <point x="333" y="666"/>
      <point x="296" y="666" type="curve" smooth="yes"/>
      <point x="259" y="666"/>
      <point x="241" y="696"/>
      <point x="236" y="738" type="curve"/>
      <point x="142" y="738" type="line"/>
      <point x="144" y="650"/>
      <point x="193" y="574"/>
    </contour>
  </outline>
</glyph>
<glyph name="wcircumflex" format="1">
  <advance width="600"/>
  <unicode hex="0175"/>
  <outline>
    <contour>
      <point x="73" y="0" type="line"/>
      <point x="268" y="0" type="line"/>
      <point x="283" y="134" type="line" smooth="yes"/>
      <point x="291" y="207"/>
      <point x="294" y="247"/>
      <point x="297" y="281" type="curve"/>
      <point x="301" y="281" type="line"/>
      <point x="306" y="226"/>
      <point x="312" y="180"/>
      <point x="318" y="134" type="curve" smooth="yes"/>
      <point x="334" y="0" type="line"/>
      <point x="533" y="0" type="line"/>
      <point x="599" y="500" type="line"/>
      <point x="443" y="500" type="line"/>
      <point x="423" y="290" type="line" smooth="yes"/>
      <point x="417" y="240"/>
      <point x="417" y="190"/>
      <point x="411" y="138" type="curve"/>
      <point x="407" y="138" type="line"/>
      <point x="400" y="190"/>
      <point x="394" y="240"/>
      <point x="385" y="290" type="curve" smooth="yes"/>
      <point x="361" y="420" type="line"/>
      <point x="247" y="420" type="line"/>
      <point x="226" y="290" type="line" smooth="yes"/>
      <point x="216" y="242"/>
      <point x="210" y="190"/>
      <point x="205" y="138" type="curve"/>
      <point x="202" y="138" type="line"/>
      <point x="196" y="190"/>
      <point x="195" y="240"/>
      <point x="189" y="290" type="curve" smooth="yes"/>
      <point x="169" y="500" type="line"/>
      <point x="1" y="500" type="line"/>
    </contour>
    <contour>
      <point x="127" y="574" type="line"/>
      <point x="251" y="574" type="line"/>
      <point x="299" y="668" type="line"/>
      <point x="303" y="668" type="line"/>
      <point x="351" y="574" type="line"/>
      <point x="475" y="574" type="line"/>
      <point x="373" y="748" type="line"/>
      <point x="229" y="748" type="line"/>
    </contour>
  </outline>
</glyph>
<glyph name="zacute" format="1">
  <advance width="600"/>
  <unicode hex="017A"/>
  <outline>
    <contour>
      <point x="70" y="0" type="line"/>
      <point x="545" y="0" type="line"/>
      <point x="545" y="134" type="line"/>
      <point x="306" y="134" type="line"/>
      <point x="538" y="408" type="line"/>
      <point x="538" y="500" type="line"/>
      <point x="99" y="500" type="line"/>
      <point x="99" y="366" type="line"/>
      <point x="301" y="366" type="line"/>
      <point x="70" y="92" type="line"/>
    </contour>
    <contour>
      <point x="498" y="748" type="line"/>
      <point x="324" y="748" type="line"/>
      <point x="236" y="574" type="line"/>
      <point x="360" y="574" type="line"/>
    </contour>
  </outline>
</glyph>
<glyph name="Zdotaccent" format="1">
  <advance width="600"/>
  <unicode hex="017B"/>
  <outline>
    <contour>
      <point x="53" y="0" type="line"/>
      <point x="550" y="0" type="line"/>
      <point x="550" y="144" type="line"/>
      <point x="265" y="144" type="line"/>
      <point x="547" y="546" type="line"/>
      <point x="547" y="650" type="line"/>
      <point x="80" y="650" type="line"/>
      <point x="80" y="506" type="line"/>
      <point x="335" y="506" type="line"/>
      <point x="53" y="104" type="line"/>
    </contour>
    <contour>
      <point x="314" y="696" type="curve" smooth="yes"/>
      <point x="370" y="696"/>
      <point x="410" y="732"/>
      <point x="410" y="782" type="curve" smooth="yes"/>
      <point x="410" y="832"/>
      <point x="370" y="868"/>
      <point x="314" y="868" type="curve" smooth="yes"/>
      <point x="258" y="868"/>
      <point x="218" y="832"/>
      <point x="218" y="782" type="curve" smooth="yes"/>
      <point x="218" y="732"/>
      <point x="258" y="696"/>
    </contour>
  </outline>
</glyph>
<glyph name="florin" format="1">
  <advance width="600"/>
  <unicode hex="0192"/>
  <outline>
    <contour>
      <point x="556" y="644" type="line"/>
      <point x="534" y="654"/>
      <point x="483" y="662"/>
      <point x="457" y="662" type="curve" smooth="yes"/>
      <point x="310" y="662"/>
      <point x="255" y="605"/>
      <point x="230" y="454" type="curve"/>
      <point x="226" y="416" type="line"/>
      <point x="208" y="416" type="line"/>
      <point x="132" y="410" type="line"/>
      <point x="132" y="292" type="line"/>
      <point x="211" y="292" type="line"/>
      <point x="198" y="174" type="line" smooth="yes"/>
      <point x="181" y="56"/>
      <point x="166" y="40"/>
      <point x="118" y="38" type="curve"/>
      <point x="101" y="39"/>
      <point x="83" y="41"/>
      <point x="66" y="46" type="curve"/>
      <point x="45" y="-81" type="line"/>
      <point x="61" y="-89"/>
      <point x="99" y="-95"/>
      <point x="146" y="-96" type="curve" smooth="yes"/>
      <point x="298" y="-96"/>
      <point x="339" y="4"/>
      <point x="354" y="122" type="curve" smooth="yes"/>
      <point x="375" y="292" type="line"/>
      <point x="494" y="292" type="line"/>
      <point x="494" y="416" type="line"/>
      <point x="390" y="416" type="line"/>
      <point x="396" y="468" type="line"/>
      <point x="405" y="506"/>
      <point x="427" y="526"/>
      <point x="472" y="526" type="curve" smooth="yes"/>
      <point x="494" y="526"/>
      <point x="511" y="520"/>
      <point x="525" y="516" type="curve"/>
    </contour>
  </outline>
</glyph>
<glyph name="Ohorn" format="1">
  <advance width="600"/>
  <unicode hex="01A0"/>
  <outline>
    <contour>
      <point x="300" y="136" type="curve" smooth="yes"/>
      <point x="244" y="136"/>
      <point x="210" y="210"/>
      <point x="210" y="328" type="curve" smooth="yes"/>
      <point x="210" y="446"/>
      <point x="244" y="514"/>
      <point x="300" y="514" type="curve" smooth="yes"/>
      <point x="356" y="514"/>
      <point x="390" y="446"/>
      <point x="390" y="328" type="curve" smooth="yes"/>
      <point x="390" y="210"/>
      <point x="356" y="136"/>
    </contour>
    <contour>
      <point x="460" y="738" type="line"/>
      <point x="467" y="727"/>
      <point x="476" y="710"/>
      <point x="476" y="690" type="curve" smooth="yes"/>
      <point x="476" y="651"/>
      <point x="454" y="639"/>
      <point x="424" y="632" type="curve"/>
      <point x="388" y="652"/>
      <point x="346" y="662"/>
      <point x="300" y="662" type="curve" smooth="yes"/>
      <point x="142" y="662"/>
      <point x="34" y="542"/>
      <point x="34" y="328" type="curve" smooth="yes"/>
      <point x="34" y="114"/>
      <point x="142" y="-12"/>
      <point x="300" y="-12" type="curve" smooth="yes"/>
      <point x="458" y="-12"/>
      <point x="566" y="114"/>
      <point x="566" y="328" type="curve" smooth="yes"/>
      <point x="566" y="433"/>
      <point x="540" y="516"/>
      <point x="494" y="573" type="curve"/>
      <point x="560" y="590"/>
      <point x="608" y="630"/>
      <point x="608" y="702" type="curve" smooth="yes"/>
      <point x="608" y="738"/>
      <point x="592" y="770"/>
      <point x="576" y="788" type="curve"/>
    </contour>
  </outline>
</glyph>
<glyph name="aturned" format="1">
  <advance width="600"/>
  <unicode hex="0250"/>
  <outline>
    <contour>
      <point x="546" y="358" type="curve" smooth="yes"/>
      <point x="546" y="246"/>
      <point x="458" y="188"/>
      <point x="230" y="176" type="curve"/>
      <point x="236" y="140"/>
      <point x="270" y="124"/>
      <point x="326" y="124" type="curve" smooth="yes"/>
      <point x="368" y="124"/>
      <point x="410" y="138"/>
      <point x="470" y="166" type="curve"/>
      <point x="530" y="54" type="line"/>
      <point x="454" y="12"/>
      <point x="376" y="-12"/>
      <point x="292" y="-12" type="curve" smooth="yes"/>
      <point x="150" y="-12"/>
      <point x="58" y="58"/>
      <point x="58" y="222" type="curve" smooth="yes"/>
      <point x="58" y="500" type="line"/>
      <point x="198" y="500" type="line"/>
      <point x="210" y="448" type="line"/>
      <point x="214" y="448" type="line"/>
      <point x="263" y="484"/>
      <point x="322" y="512"/>
      <point x="384" y="512" type="curve" smooth="yes"/>
      <point x="488" y="512"/>
      <point x="546" y="440"/>
    </contour>
    <contour>
      <point x="382" y="344" type="curve" smooth="yes"/>
      <point x="382" y="367"/>
      <point x="364" y="380"/>
      <point x="328" y="380" type="curve" smooth="yes"/>
      <point x="288" y="380"/>
      <point x="257" y="362"/>
      <point x="230" y="342" type="curve"/>
      <point x="230" y="278" type="line"/>
      <point x="352" y="282"/>
      <point x="382" y="310"/>
    </contour>
  </outline>
</glyph>
<glyph name="oopen" format="1">
  <advance width="600"/>
  <unicode hex="0254"/>
  <outline>
    <contour>
      <point x="538" y="250" type="curve" smooth="yes"/>
      <point x="538" y="84"/>
      <point x="400" y="-12"/>
      <point x="245" y="-12" type="curve" smooth="yes"/>
      <point x="167" y="-12"/>
      <point x="98" y="14"/>
      <point x="56" y="54" type="curve"/>
      <point x="134" y="160" type="line"/>
      <point x="171" y="135"/>
      <point x="203" y="126"/>
      <point x="235" y="126" type="curve" smooth="yes"/>
      <point x="310" y="126"/>
      <point x="362" y="174"/>
      <point x="362" y="250" type="curve" smooth="yes"/>
      <point x="362" y="326"/>
      <point x="311" y="374"/>
      <point x="241" y="374" type="curve" smooth="yes"/>
      <point x="192" y="374"/>
      <point x="151" y="353"/>
      <point x="117" y="332" type="curve"/>
      <point x="49" y="440" type="line"/>
      <point x="111" y="491"/>
      <point x="192" y="512"/>
      <point x="258" y="512" type="curve" smooth="yes"/>
      <point x="416" y="512"/>
      <point x="538" y="416"/>
    </contour>
  </outline>
</glyph>
<glyph name="hturned" format="1">
  <advance width="600"/>
  <unicode hex="0265"/>
  <outline>
    <contour>
      <point x="536" y="500" type="line"/>
      <point x="536" y="-196" type="line"/>
      <point x="364" y="-196" type="line"/>
      <point x="364" y="-34" type="line"/>
      <point x="373" y="54" type="line"/>
      <point x="340" y="22"/>
      <point x="286" y="-12"/>
      <point x="212" y="-12" type="curve" smooth="yes"/>
      <point x="102" y="-12"/>
      <point x="54" y="68"/>
      <point x="54" y="192" type="curve" smooth="yes"/>
      <point x="54" y="500" type="line"/>
      <point x="226" y="500" type="line"/>
      <point x="226" y="214" type="line" smooth="yes"/>
      <point x="226" y="158"/>
      <point x="240" y="134"/>
      <point x="284" y="134" type="curve" smooth="yes"/>
      <point x="316" y="134"/>
      <point x="338" y="148"/>
      <point x="364" y="172" type="curve"/>
      <point x="364" y="500" type="line"/>
    </contour>
  </outline>
</glyph>
<glyph name="tturned" format="1">
  <advance width="600"/>
  <unicode hex="0287"/>
  <outline>
    <contour>
      <point x="433" y="288" type="curve" smooth="yes"/>
      <point x="433" y="134" type="line"/>
      <point x="553" y="134" type="line"/>
      <point x="553" y="6" type="line"/>
      <point x="425" y="0" type="line"/>
      <point x="403" y="-130" type="line"/>
      <point x="261" y="-130" type="line"/>
      <point x="261" y="0" type="line"/>
      <point x="64" y="0" type="line"/>
      <point x="64" y="134" type="line"/>
      <point x="261" y="134" type="line"/>
      <point x="261" y="285" type="line" smooth="yes"/>
      <point x="261" y="356"/>
      <point x="228" y="378"/>
      <point x="164" y="378" type="curve" smooth="yes"/>
      <point x="130" y="378"/>
      <point x="98" y="371"/>
      <point x="71" y="362" type="curve"/>
      <point x="42" y="486" type="line"/>
      <point x="86" y="498"/>
      <point x="141" y="512"/>
      <point x="209" y="512" type="curve" smooth="yes"/>
      <point x="373" y="512"/>
      <point x="433" y="422"/>
    </contour>
  </outline>
</glyph>
<glyph name="kturned" format="1">
  <advance width="600"/>
  <unicode hex="029E"/>
  <outline>
    <contour>
      <point x="536" y="500" type="line"/>
      <point x="536" y="-196" type="line"/>
      <point x="364" y="-196" type="line"/>
      <point x="364" y="174" type="line"/>
      <point x="360" y="174" type="line"/>
      <point x="208" y="0" type="line"/>
      <point x="22" y="0" type="line"/>
      <point x="207" y="208" type="line"/>
      <point x="10" y="500" type="line"/>
      <point x="196" y="500" type="line"/>
      <point x="305" y="322" type="line"/>
      <point x="364" y="380" type="line"/>
      <point x="364" y="500" type="line"/>
    </contour>
  </outline>
</glyph>
<glyph name="circumflex" format="1">
  <advance width="600"/>
  <unicode hex="02C6"/>
  <outline>
    <contour>
      <point x="126" y="574" type="line"/>
      <point x="250" y="574" type="line"/>
      <point x="298" y="668" type="line"/>
      <point x="302" y="668" type="line"/>
      <point x="350" y="574" type="line"/>
      <point x="474" y="574" type="line"/>
      <point x="372" y="748" type="line"/>
      <point x="228" y="748" type="line"/>
    </contour>
  </outline>
</glyph>
<glyph name="caron" format="1">
  <advance width="600"/>
  <unicode hex="02C7"/>
  <outline>
    <contour>
      <point x="228" y="574" type="line"/>
      <point x="372" y="574" type="line"/>
      <point x="474" y="748" type="line"/>
      <point x="350" y="748" type="line"/>
      <point x="302" y="654" type="line"/>
      <point x="298" y="654" type="line"/>
      <point x="250" y="748" type="line"/>
      <point x="126" y="748" type="line"/>
    </contour>
  </outline>
</glyph>
<glyph name="dotaccent" format="1">
  <advance width="600"/>
  <unicode hex="02D9"/>
  <outline>
    <contour>
      <point x="300" y="562" type="curve" smooth="yes"/>
      <point x="364" y="562"/>
      <point x="410" y="602"/>
      <point x="410" y="662" type="curve" smooth="yes"/>
      <point x="410" y="722"/>
      <point x="364" y="764"/>
      <point x="300" y="764" type="curve" smooth="yes"/>
      <point x="236" y="764"/>
      <point x="190" y="722"/>
      <point x="190" y="662" type="curve" smooth="yes"/>
      <point x="190" y="602"/>
      <point x="236" y="562"/>
    </contour>
  </outline>
</glyph>
<glyph name="ring" format="1">
  <advance width="600"/>
  <unicode hex="02DA"/>
  <outline>
    <contour>
      <point x="300" y="550" type="curve" smooth="yes"/>
      <point x="372" y="550"/>
      <point x="420" y="592"/>
      <point x="420" y="656" type="curve" smooth="yes"/>
      <point x="420" y="720"/>
      <point x="372" y="762"/>
      <point x="300" y="762" type="curve" smooth="yes"/>
      <point x="228" y="762"/>
      <point x="180" y="720"/>
      <point x="180" y="656" type="curve" smooth="yes"/>
      <point x="180" y="592"/>
      <point x="228" y="550"/>
    </contour>
    <contour>
      <point x="300" y="612" type="curve" smooth="yes"/>
      <point x="279" y="612"/>
      <point x="262" y="630"/>
      <point x="262" y="656" type="curve" smooth="yes"/>
      <point x="262" y="682"/>
      <point x="279" y="700"/>
      <point x="300" y="700" type="curve" smooth="yes"/>
      <point x="321" y="700"/>
      <point x="338" y="682"/>
      <point x="338" y="656" type="curve" smooth="yes"/>
      <point x="338" y="630"/>
      <point x="321" y="612"/>
    </contour>
  </outline>
</glyph>
<glyph name="Wdieresis" format="1">
  <advance width="600"/>
  <unicode hex="1E84"/>
  <outline>
    <contour>
      <point x="83" y="0" type="line"/>
      <point x="257" y="0" type="line"/>
      <point x="284" y="178" type="line" smooth="yes"/>
      <point x="291" y="220"/>
      <point x="296" y="266"/>
      <point x="299" y="305" type="curve"/>
      <point x="302" y="305" type="line"/>
      <point x="303" y="266"/>
      <point x="310" y="220"/>
      <point x="317" y="178" type="curve" smooth="yes"/>
      <point x="346" y="0" type="line"/>
      <point x="524" y="0" type="line"/>
      <point x="599" y="650" type="line"/>
      <point x="435" y="650" type="line"/>
      <point x="427" y="328" type="line"/>
      <point x="427" y="274"/>
      <point x="427" y="218"/>
      <point x="427" y="160" type="curve"/>
      <point x="423" y="160" type="line"/>
      <point x="414" y="218"/>
      <point x="400" y="275"/>
      <point x="391" y="328" type="curve" smooth="yes"/>
      <point x="358" y="486" type="line"/>
      <point x="258" y="486" type="line"/>
      <point x="222" y="328" type="line" smooth="yes"/>
      <point x="212" y="273"/>
      <point x="198" y="216"/>
      <point x="190" y="160" type="curve"/>
      <point x="186" y="160" type="line"/>
      <point x="186" y="216"/>
      <point x="186" y="272"/>
      <point x="186" y="328" type="curve" smooth="yes"/>
      <point x="178" y="650" type="line"/>
      <point x="2" y="650" type="line"/>
    </contour>
    <contour>
      <point x="196" y="694" type="curve" smooth="yes"/>
      <point x="242" y="694"/>
      <point x="274" y="728"/>
      <point x="274" y="772" type="curve" smooth="yes"/>
      <point x="274" y="816"/>
      <point x="242" y="850"/>
      <point x="196" y="850" type="curve" smooth="yes"/>
      <point x="150" y="850"/>
      <point x="118" y="816"/>
      <point x="118" y="772" type="curve" smooth="yes"/>
      <point x="118" y="728"/>
      <point x="150" y="694"/>
    </contour>
    <contour>
      <point x="404" y="694" type="curve" smooth="yes"/>
      <point x="450" y="694"/>
      <point x="482" y="728"/>
      <point x="482" y="772" type="curve" smooth="yes"/>
      <point x="482" y="816"/>
      <point x="450" y="850"/>
      <point x="404" y="850" type="curve" smooth="yes"/>
      <point x="358" y="850"/>
      <point x="326" y="816"/>
      <point x="326" y="772" type="curve" smooth="yes"/>
      <point x="326" y="728"/>
      <point x="358" y="694"/>
    </contour>
  </outline>
</glyph>
<glyph name="Ygrave" format="1">
  <advance width="600"/>
  <unicode hex="1EF2"/>
  <outline>
    <contour>
      <point x="214" y="0" type="line"/>
      <point x="386" y="0" type="line"/>
      <point x="386" y="215" type="line"/>
      <point x="592" y="650" type="line"/>
      <point x="412" y="650" type="line"/>
      <point x="358" y="508" type="line" smooth="yes"/>
      <point x="340" y="458"/>
      <point x="321" y="412"/>
      <point x="303" y="360" type="curve"/>
      <point x="299" y="360" type="line"/>
      <point x="281" y="412"/>
      <point x="263" y="458"/>
      <point x="246" y="508" type="curve" smooth="yes"/>
      <point x="192" y="650" type="line"/>
      <point x="8" y="650" type="line"/>
      <point x="214" y="215" type="line"/>
    </contour>
    <contour>
      <point x="248" y="700" type="line"/>
      <point x="384" y="700" type="line"/>
      <point x="306" y="824" type="line"/>
      <point x="126" y="824" type="line"/>
    </contour>
  </outline>
</glyph>
<glyph name="endash" format="1">
  <advance width="600"/>
  <unicode hex="2013"/>
  <outline>
    <contour>
      <point x="80" y="232" type="line"/>
      <point x="520" y="232" type="line"/>
      <point x="520" y="358" type="line"/>
      <point x="80" y="358" type="line"/>
    </contour>
  </outline>
</glyph>
<glyph name="quoteleft" format="1">
  <advance width="600"/>
  <unicode hex="2018"/>
  <outline>
    <contour>
      <point x="361" y="696" type="line"/>
      <point x="234" y="640"/>
      <point x="174" y="554"/>
      <point x="174" y="442" type="curve" smooth="yes"/>
      <point x="174" y="332"/>
      <point x="219" y="267"/>
      <point x="302" y="267" type="curve" smooth="yes"/>
      <point x="362" y="267"/>
      <point x="406" y="310"/>
      <point x="406" y="377" type="curve" smooth="yes"/>
      <point x="406" y="437"/>
      <point x="365" y="476"/>
      <point x="307" y="476" type="curve" smooth="yes"/>
      <point x="301" y="476"/>
      <point x="295" y="475"/>
      <point x="289" y="474" type="curve"/>
      <point x="293" y="535"/>
      <point x="331" y="577"/>
      <point x="404" y="607" type="curve"/>
    </contour>
  </outline>
</glyph>
<glyph name="quotedblbase" format="1">
  <advance width="600"/>
  <unicode hex="201E"/>
  <outline>
    <contour>
      <point x="99" y="-233" type="line"/>
      <point x="226" y="-177"/>
      <point x="286" y="-91"/>
      <point x="286" y="21" type="curve" smooth="yes"/>
      <point x="286" y="131"/>
      <point x="241" y="196"/>
      <point x="158" y="196" type="curve" smooth="yes"/>
      <point x="98" y="196"/>
      <point x="54" y="153"/>
      <point x="54" y="86" type="curve" smooth="yes"/>
      <point x="54" y="26"/>
      <point x="95" y="-13"/>
      <point x="153" y="-13" type="curve" smooth="yes"/>
      <point x="159" y="-13"/>
      <point x="165" y="-12"/>
      <point x="171" y="-11" type="curve"/>
      <point x="167" y="-72"/>
      <point x="129" y="-114"/>
      <point x="56" y="-144" type="curve"/>
    </contour>
    <contour>
      <point x="379" y="-233" type="line"/>
      <point x="506" y="-177"/>
      <point x="566" y="-91"/>
      <point x="566" y="21" type="curve" smooth="yes"/>
      <point x="566" y="131"/>
      <point x="521" y="196"/>
      <point x="438" y="196" type="curve" smooth="yes"/>
      <point x="378" y="196"/>
      <point x="334" y="153"/>
      <point x="334" y="86" type="curve" smooth="yes"/>
      <point x="334" y="26"/>
      <point x="375" y="-13"/>
      <point x="433" y="-13" type="curve" smooth="yes"/>
      <point x="439" y="-13"/>
      <point x="445" y="-12"/>
      <point x="451" y="-11" type="curve"/>
      <point x="447" y="-72"/>
      <point x="409" y="-114"/>
      <point x="336" y="-144" type="curve"/>
    </contour>
  </outline>
</glyph>
<glyph name="guilsinglright" format="1">
  <advance width="600"/>
  <unicode hex="203A"/>
  <outline>
    <contour>
      <point x="184" y="78" type="line"/>
      <point x="256" y="14" type="line"/>
      <point x="434" y="166" type="line"/>
      <point x="434" y="338" type="line"/>
      <point x="256" y="490" type="line"/>
      <point x="184" y="426" type="line"/>
      <point x="312" y="252" type="line"/>
    </contour>
  </outline>
</glyph>
<glyph name="lira" format="1">
  <advance width="600"/>
  <unicode hex="20A4"/>
  <outline>
    <contour>
      <point x="281" y="148" type="line"/>
      <point x="302" y="170"/>
      <point x="315" y="189"/>
      <point x="322" y="210" type="curve"/>
      <point x="462" y="210" type="line"/>
      <point x="462" y="294" type="line"/>
      <point x="322" y="294" type="line"/>
      <point x="319" y="309"/>
      <point x="315" y="324"/>
      <point x="310" y="338" type="curve"/>
      <point x="462" y="338" type="line"/>
      <point x="462" y="422" type="line"/>
      <point x="294" y="422" type="line"/>
      <point x="294" y="484"/>
      <point x="330" y="508"/>
      <point x="384" y="508" type="curve" smooth="yes"/>
      <point x="415" y="508"/>
      <point x="440" y="496"/>
      <point x="465" y="470" type="curve"/>
      <point x="557" y="562" type="line"/>
      <point x="507" y="618"/>
      <point x="448" y="646"/>
      <point x="367" y="646" type="curve" smooth="yes"/>
      <point x="231" y="646"/>
      <point x="131" y="564"/>
      <point x="131" y="432" type="curve" smooth="yes"/>
      <point x="131" y="428"/>
      <point x="131" y="425"/>
      <point x="132" y="421" type="curve"/>
      <point x="68" y="416" type="line"/>
      <point x="68" y="338" type="line"/>
      <point x="156" y="338" type="line"/>
      <point x="162" y="323"/>
      <point x="167" y="309"/>
      <point x="171" y="294" type="curve"/>
      <point x="144" y="294" type="line"/>
      <point x="68" y="288" type="line"/>
      <point x="68" y="210" type="line"/>
      <point x="172" y="210" type="line"/>
      <point x="156" y="161"/>
      <point x="113" y="125"/>
      <point x="63" y="106" type="curve"/>
      <point x="63" y="0" type="line"/>
      <point x="557" y="0" type="line"/>
      <point x="557" y="144" type="line"/>
      <point x="281" y="144" type="line"/>
    </contour>
  </outline>
</glyph>
<glyph name="dong" format="1">
  <advance width="600"/>
  <unicode hex="20AB"/>
  <outline>
    <contour>
      <point x="98" y="0" type="line"/>
      <point x="532" y="0" type="line"/>
      <point x="532" y="84" type="line"/>
      <point x="98" y="84" type="line"/>
    </contour>
    <contour>
      <point x="358" y="260" type="line"/>
      <point x="337" y="238"/>
      <point x="320" y="230"/>
      <point x="292" y="230" type="curve" smooth="yes"/>
      <point x="254" y="230"/>
      <point x="228" y="252"/>
      <point x="228" y="307" type="curve" smooth="yes"/>
      <point x="228" y="352"/>
      <point x="263" y="374"/>
      <point x="296" y="374" type="curve" smooth="yes"/>
      <point x="320" y="374"/>
      <point x="339" y="368"/>
      <point x="358" y="354" type="curve"/>
    </contour>
    <contour>
      <point x="498" y="604" type="line"/>
      <point x="498" y="646" type="line"/>
      <point x="358" y="646" type="line"/>
      <point x="358" y="604" type="line"/>
      <point x="204" y="604" type="line"/>
      <point x="204" y="520" type="line"/>
      <point x="358" y="520" type="line"/>
      <point x="358" y="512" type="line"/>
      <point x="362" y="452" type="line"/>
      <point x="333" y="476"/>
      <point x="307" y="488"/>
      <point x="260" y="488" type="curve" smooth="yes"/>
      <point x="175" y="488"/>
      <point x="84" y="422"/>
      <point x="84" y="308" type="curve" smooth="yes"/>
      <point x="84" y="186"/>
      <point x="152" y="118"/>
      <point x="256" y="118" type="curve" smooth="yes"/>
      <point x="300" y="118"/>
      <point x="341" y="134"/>
      <point x="370" y="162" type="curve"/>
      <point x="372" y="162" type="line"/>
      <point x="382" y="128" type="line"/>
      <point x="498" y="128" type="line"/>
      <point x="498" y="520" type="line"/>
      <point x="569" y="526" type="line"/>
      <point x="569" y="604" type="line"/>
    </contour>
  </outline>
</glyph>
<glyph name="trademark" format="1">
  <advance width="600"/>
  <unicode hex="2122"/>
  <outline>
    <contour>
      <point x="268" y="360" type="line"/>
      <point x="364" y="360" type="line"/>
      <point x="364" y="440" type="line"/>
      <point x="352" y="560" type="line"/>
      <point x="356" y="560" type="line"/>
      <point x="402" y="426" type="line"/>
      <point x="466" y="426" type="line"/>
      <point x="512" y="560" type="line"/>
      <point x="516" y="560" type="line"/>
      <point x="504" y="440" type="line"/>
      <point x="504" y="360" type="line"/>
      <point x="600" y="360" type="line"/>
      <point x="600" y="676" type="line"/>
      <point x="484" y="676" type="line"/>
      <point x="454" y="590" type="line"/>
      <point x="436" y="522" type="line"/>
      <point x="432" y="522" type="line"/>
      <point x="414" y="590" type="line"/>
      <point x="384" y="676" type="line"/>
      <point x="268" y="676" type="line"/>
    </contour>
    <contour>
      <point x="56" y="360" type="line"/>
      <point x="166" y="360" type="line"/>
      <point x="166" y="576" type="line"/>
      <point x="238" y="576" type="line"/>
      <point x="238" y="676" type="line"/>
      <point x="-16" y="676" type="line"/>
      <point x="-16" y="576" type="line"/>
      <point x="56" y="576" type="line"/>
    </contour>
  </outline>
</glyph>
<glyph name="twothirds" format="1">
  <advance width="600"/>
  <unicode hex="2154"/>
  <outline>
    <contour>
      <point x="42" y="320" type="line"/>
      <point x="311" y="320" type="line"/>
      <point x="311" y="420" type="line"/>
      <point x="235" y="420" type="line"/>
      <point x="267" y="451"/>
      <point x="301" y="493"/>
      <point x="301" y="536" type="curve" smooth="yes"/>
      <point x="301" y="604"/>
      <point x="247" y="646"/>
      <point x="165" y="646" type="curve" smooth="yes"/>
      <point x="109" y="646"/>
      <point x="66" y="620"/>
      <point x="26" y="580" type="curve"/>
      <point x="96" y="516" type="line"/>
      <point x="112" y="537"/>
      <point x="130" y="548"/>
      <point x="145" y="548" type="curve" smooth="yes"/>
      <point x="170" y="548"/>
      <point x="183" y="534"/>
      <point x="183" y="513" type="curve" smooth="yes"/>
      <point x="183" y="483"/>
      <point x="116" y="427"/>
      <point x="42" y="383" type="curve"/>
    </contour>
    <contour>
      <point x="98" y="26" type="line"/>
      <point x="258" y="224" type="line"/>
      <point x="200" y="278" type="line"/>
      <point x="12" y="110" type="line"/>
    </contour>
    <contour>
      <point x="502" y="624" type="line"/>
      <point x="342" y="426" type="line"/>
      <point x="400" y="372" type="line"/>
      <point x="588" y="540" type="line"/>
    </contour>
    <contour>
      <point x="288" y="25" type="line"/>
      <point x="340" y="-10"/>
      <point x="388" y="-12"/>
      <point x="428" y="-12" type="curve" smooth="yes"/>
      <point x="502" y="-12"/>
      <point x="566" y="32"/>
      <point x="566" y="90" type="curve" smooth="yes"/>
      <point x="566" y="126"/>
      <point x="550" y="152"/>
      <point x="501" y="166" type="curve"/>
      <point x="542" y="180"/>
      <point x="554" y="200"/>
      <point x="554" y="236" type="curve" smooth="yes"/>
      <point x="554" y="289"/>
      <point x="498" y="326"/>
      <point x="431" y="326" type="curve" smooth="yes"/>
      <point x="373" y="326"/>
      <point x="324" y="309"/>
      <point x="292" y="286" type="curve"/>
      <point x="339" y="214" type="line"/>
      <point x="359" y="224"/>
      <point x="380" y="236"/>
      <point x="402" y="236" type="curve" smooth="yes"/>
      <point x="422" y="236"/>
      <point x="434" y="228"/>
      <point x="434" y="216" type="curve" smooth="yes"/>
      <point x="434" y="194"/>
      <point x="413" y="191"/>
      <point x="382" y="191" type="curve"/>
      <point x="382" y="129" type="line"/>
      <point x="427" y="129"/>
      <point x="446" y="119"/>
      <point x="446" y="100" type="curve" smooth="yes"/>
      <point x="446" y="86"/>
      <point x="430" y="78"/>
      <point x="412" y="78" type="curve" smooth="yes"/>
      <point x="387" y="78"/>
      <point x="354" y="90"/>
      <point x="333" y="101" type="curve"/>
    </contour>
  </outline>
</glyph>
<glyph name="oneeighth" format="1">
  <advance width="600"/>
  <unicode hex="215B"/>
  <outline>
    <contour>
      <point x="148" y="320" type="line"/>
      <point x="272" y="320" type="line"/>
      <point x="272" y="634" type="line"/>
      <point x="176" y="634" type="line"/>
      <point x="142" y="613"/>
      <point x="121" y="604"/>
      <point x="67" y="598" type="curve"/>
      <point x="67" y="525" type="line"/>
      <point x="148" y="525" type="line"/>
    </contour>
    <contour>
      <point x="98" y="26" type="line"/>
      <point x="258" y="224" type="line"/>
      <point x="200" y="278" type="line"/>
      <point x="12" y="110" type="line"/>
    </contour>
    <contour>
      <point x="502" y="624" type="line"/>
      <point x="342" y="426" type="line"/>
      <point x="400" y="372" type="line"/>
      <point x="588" y="540" type="line"/>
    </contour>
    <contour>
      <point x="396" y="90" type="curve" smooth="yes"/>
      <point x="396" y="102"/>
      <point x="404" y="115"/>
      <point x="414" y="121" type="curve"/>
      <point x="440" y="114"/>
      <point x="456" y="102"/>
      <point x="456" y="87" type="curve" smooth="yes"/>
      <point x="456" y="75"/>
      <point x="444" y="65"/>
      <point x="426" y="65" type="curve" smooth="yes"/>
      <point x="409" y="65"/>
      <point x="396" y="74"/>
    </contour>
    <contour>
      <point x="436" y="200" type="curve"/>
      <point x="414" y="208"/>
      <point x="404" y="215"/>
      <point x="404" y="229" type="curve" smooth="yes"/>
      <point x="404" y="240"/>
      <point x="414" y="247"/>
      <point x="425" y="247" type="curve" smooth="yes"/>
      <point x="438" y="247"/>
      <point x="448" y="238"/>
      <point x="448" y="224" type="curve" smooth="yes"/>
      <point x="448" y="216"/>
      <point x="444" y="206"/>
    </contour>
    <contour>
      <point x="288" y="80" type="curve" smooth="yes"/>
      <point x="288" y="29"/>
      <point x="345" y="-12"/>
      <point x="426" y="-12" type="curve" smooth="yes"/>
      <point x="508" y="-12"/>
      <point x="564" y="31"/>
      <point x="564" y="80" type="curve" smooth="yes"/>
      <point x="564" y="129"/>
      <point x="538" y="148"/>
      <point x="503" y="166" type="curve"/>
      <point x="503" y="170" type="line"/>
      <point x="535" y="184"/>
      <point x="556" y="200"/>
      <point x="556" y="233" type="curve" smooth="yes"/>
      <point x="556" y="290"/>
      <point x="499" y="326"/>
      <point x="426" y="326" type="curve" smooth="yes"/>
      <point x="355" y="326"/>
      <point x="296" y="290"/>
      <point x="296" y="233" type="curve" smooth="yes"/>
      <point x="296" y="192"/>
      <point x="318" y="180"/>
      <point x="348" y="160" type="curve"/>
      <point x="348" y="156" type="line"/>
      <point x="319" y="140"/>
      <point x="288" y="122"/>
    </contour>
  </outline>
</glyph>
<glyph name="arrowdown" format="1">
  <advance width="600"/>
  <unicode hex="2193"/>
  <outline>
    <contour>
      <point x="302" y="-26" type="line"/>
      <point x="570" y="254" type="line"/>
      <point x="478" y="334" type="line"/>
      <point x="368" y="204" type="line"/>
      <point x="368" y="530" type="line"/>
      <point x="232" y="530" type="line"/>
      <point x="232" y="204" type="line"/>
      <point x="122" y="334" type="line"/>
      <point x="30" y="254" type="line"/>
      <point x="298" y="-26" type="line"/>
    </contour>
  </outline>
</glyph>
<glyph name="infinity" format="1">
  <advance width="600"/>
  <unicode hex="221E"/>
  <outline>
    <contour>
      <point x="130" y="138" type="curve" smooth="yes"/>
      <point x="188" y="138"/>
      <point x="230" y="165"/>
      <point x="261" y="216" type="curve"/>
      <point x="265" y="216" type="line"/>
      <point x="319" y="130"/>
      <point x="369" y="110"/>
      <point x="440" y="110" type="curve" smooth="yes"/>
      <point x="538" y="110"/>
      <point x="617" y="191"/>
      <point x="617" y="342" type="curve" smooth="yes"/>
      <point x="617" y="456"/>
      <point x="541" y="540"/>
      <point x="450" y="540" type="curve" smooth="yes"/>
      <point x="384" y="540"/>
      <point x="336" y="516"/>
      <point x="289" y="446" type="curve"/>
      <point x="285" y="446" type="line"/>
      <point x="255" y="499"/>
      <point x="213" y="524"/>
      <point x="153" y="524" type="curve" smooth="yes"/>
      <point x="51" y="524"/>
      <point x="-17" y="448"/>
      <point x="-17" y="314" type="curve" smooth="yes"/>
      <point x="-17" y="222"/>
      <point x="47" y="138"/>
    </contour>
    <contour>
      <point x="335" y="354" type="curve"/>
      <point x="362" y="397"/>
      <point x="392" y="416"/>
      <point x="423" y="416" type="curve" smooth="yes"/>
      <point x="465" y="416"/>
      <point x="493" y="388"/>
      <point x="493" y="338" type="curve" smooth="yes"/>
      <point x="493" y="301"/>
      <point x="469" y="268"/>
      <point x="429" y="268" type="curve" smooth="yes"/>
      <point x="386" y="268"/>
      <point x="360" y="300"/>
    </contour>
    <contour>
      <point x="155" y="262" type="curve" smooth="yes"/>
      <point x="125" y="262"/>
      <point x="107" y="291"/>
      <point x="107" y="318" type="curve" smooth="yes"/>
      <point x="107" y="344"/>
      <point x="119" y="366"/>
      <point x="149" y="366" type="curve" smooth="yes"/>
      <point x="173" y="366"/>
      <point x="198" y="351"/>
      <point x="215" y="308" type="curve"/>
      <point x="200" y="274"/>
      <point x="179" y="262"/>
    </contour>
  </outline>
</glyph>
<glyph name="greaterequal" format="1">
  <advance width="600"/>
  <unicode hex="2265"/>
  <outline>
    <contour>
      <point x="64" y="0" type="line"/>
      <point x="536" y="0" type="line"/>
      <point x="536" y="120" type="line"/>
      <point x="64" y="120" type="line"/>
    </contour>
    <contour>
      <point x="536" y="412" type="line"/>
      <point x="64" y="550" type="line"/>
      <point x="64" y="410" type="line"/>
      <point x="222" y="374" type="line"/>
      <point x="362" y="344" type="line"/>
      <point x="362" y="340" type="line"/>
      <point x="222" y="310" type="line"/>
      <point x="64" y="274" type="line"/>
      <point x="64" y="134" type="line"/>
      <point x="536" y="272" type="line"/>
    </contour>
  </outline>
</glyph>
<glyph name="Acircumflextilde" format="1">
  <advance width="600"/>
  <outline>
    <contour>
      <point x="384" y="976" type="line"/>
      <point x="378" y="950"/>
      <point x="366" y="940"/>
      <point x="350" y="940" type="curve" smooth="yes"/>
      <point x="324" y="940"/>
      <point x="294" y="976"/>
      <point x="240" y="976" type="curve" smooth="yes"/>
      <point x="196" y="976"/>
      <point x="154" y="942"/>
      <point x="144" y="854" type="curve"/>
      <point x="216" y="854" type="line"/>
      <point x="222" y="880"/>
      <point x="234" y="890"/>
      <point x="250" y="890" type="curve" smooth="yes"/>
      <point x="276" y="890"/>
      <point x="306" y="854"/>
      <point x="360" y="854" type="curve" smooth="yes"/>
      <point x="404" y="854"/>
      <point x="446" y="888"/>
      <point x="456" y="976" type="curve"/>
    </contour>
    <contour>
      <point x="298" y="752" type="line"/>
      <point x="302" y="752" type="line"/>
      <point x="350" y="700" type="line"/>
      <point x="470" y="700" type="line"/>
      <point x="374" y="818" type="line"/>
      <point x="226" y="818" type="line"/>
      <point x="130" y="700" type="line"/>
      <point x="250" y="700" type="line"/>
    </contour>
    <contour>
      <point x="239" y="271" type="line"/>
      <point x="249" y="316" type="line" smooth="yes"/>
      <point x="263" y="378"/>
      <point x="280" y="456"/>
      <point x="294" y="522" type="curve"/>
      <point x="298" y="522" type="line"/>
      <point x="314" y="457"/>
      <point x="331" y="378"/>
      <point x="345" y="316" type="curve" smooth="yes"/>
      <point x="355" y="271" type="line"/>
    </contour>
    <contour>
      <point x="418" y="0" type="line"/>
      <point x="600" y="0" type="line"/>
      <point x="404" y="650" type="line"/>
      <point x="196" y="650" type="line"/>
      <point x="0" y="0" type="line"/>
      <point x="176" y="0" type="line"/>
      <point x="208" y="138" type="line"/>
      <point x="386" y="138" type="line"/>
    </contour>
  </outline>
</glyph>
<glyph name="Ahook" format="1">
  <advance width="600"/>
  <outline>
    <contour>
      <point x="262" y="688" type="line"/>
      <point x="344" y="692"/>
      <point x="412" y="724"/>
      <point x="412" y="796" type="curve" smooth="yes"/>
      <point x="412" y="850"/>
      <point x="370" y="888"/>
      <point x="232" y="892" type="curve"/>
      <point x="212" y="808" type="line"/>
      <point x="270" y="804"/>
      <point x="290" y="794"/>
      <point x="290" y="778" type="curve" smooth="yes"/>
      <point x="290" y="762"/>
      <point x="272" y="757"/>
      <point x="250" y="754" type="curve"/>
    </contour>
    <contour>
      <point x="239" y="271" type="line"/>
      <point x="249" y="316" type="line" smooth="yes"/>
      <point x="263" y="378"/>
      <point x="280" y="456"/>
      <point x="294" y="522" type="curve"/>
      <point x="298" y="522" type="line"/>
      <point x="314" y="457"/>
      <point x="331" y="378"/>
      <point x="345" y="316" type="curve" smooth="yes"/>
      <point x="355" y="271" type="line"/>
    </contour>
    <contour>
      <point x="418" y="0" type="line"/>
      <point x="600" y="0" type="line"/>
      <point x="404" y="650" type="line"/>
      <point x="196" y="650" type="line"/>
      <point x="0" y="0" type="line"/>
      <point x="176" y="0" type="line"/>
      <point x="208" y="138" type="line"/>
      <point x="386" y="138" type="line"/>
    </contour>
  </outline>
</glyph>
<glyph name="Dlinebelow" format="1">
  <advance width="600"/>
  <outline>
    <contour>
      <point x="58" y="0" type="line"/>
      <point x="251" y="0" type="line" smooth="yes"/>
      <point x="427" y="0"/>
      <point x="558" y="98"/>
      <point x="558" y="328" type="curve" smooth="yes"/>
      <point x="558" y="558"/>
      <point x="427" y="650"/>
      <point x="241" y="650" type="curve" smooth="yes"/>
      <point x="58" y="650" type="line"/>
    </contour>
    <contour>
      <point x="230" y="138" type="line"/>
      <point x="230" y="512" type="line"/>
      <point x="232" y="512" type="line" smooth="yes"/>
      <point x="315" y="512"/>
      <point x="382" y="480"/>
      <point x="382" y="328" type="curve" smooth="yes"/>
      <point x="382" y="176"/>
      <point x="315" y="138"/>
      <point x="232" y="138" type="curve" smooth="yes"/>
    </contour>
    <contour>
      <point x="434" y="-88" type="line"/>
      <point x="146" y="-88" type="line"/>
      <point x="146" y="-196" type="line"/>
      <point x="434" y="-196" type="line"/>
    </contour>
  </outline>
</glyph>
<glyph name="Ecircumflexhook" format="1">
  <advance width="600"/>
  <outline>
    <contour>
      <point x="86" y="0" type="line"/>
      <point x="536" y="0" type="line"/>
      <point x="536" y="144" type="line"/>
      <point x="258" y="144" type="line"/>
      <point x="258" y="260" type="line"/>
      <point x="486" y="260" type="line"/>
      <point x="486" y="404" type="line"/>
      <point x="258" y="404" type="line"/>
      <point x="258" y="506" type="line"/>
      <point x="526" y="506" type="line"/>
      <point x="526" y="650" type="line"/>
      <point x="86" y="650" type="line"/>
    </contour>
    <contour>
      <point x="464" y="748" type="line"/>
      <point x="535" y="752"/>
      <point x="588" y="776"/>
      <point x="588" y="838" type="curve" smooth="yes"/>
      <point x="588" y="882"/>
      <point x="554" y="918"/>
      <point x="432" y="922" type="curve"/>
      <point x="416" y="854" type="line"/>
      <point x="467" y="850"/>
      <point x="480" y="840"/>
      <point x="480" y="824" type="curve" smooth="yes"/>
      <point x="480" y="808"/>
      <point x="468" y="803"/>
      <point x="452" y="800" type="curve"/>
    </contour>
    <contour>
      <point x="148" y="700" type="line"/>
      <point x="268" y="700" type="line"/>
      <point x="316" y="752" type="line"/>
      <point x="320" y="752" type="line"/>
      <point x="368" y="700" type="line"/>
      <point x="488" y="700" type="line"/>
      <point x="392" y="818" type="line"/>
      <point x="244" y="818" type="line"/>
    </contour>
  </outline>
</glyph>
<glyph name="Ecircumflextilde" format="1">
  <advance width="600"/>
  <outline>
    <contour>
      <point x="86" y="0" type="line"/>
      <point x="536" y="0" type="line"/>
      <point x="536" y="144" type="line"/>
      <point x="258" y="144" type="line"/>
      <point x="258" y="260" type="line"/>
      <point x="486" y="260" type="line"/>
      <point x="486" y="404" type="line"/>
      <point x="258" y="404" type="line"/>
      <point x="258" y="506" type="line"/>
      <point x="526" y="506" type="line"/>
      <point x="526" y="650" type="line"/>
      <point x="86" y="650" type="line"/>
    </contour>
    <contour>
      <point x="148" y="700" type="line"/>
      <point x="268" y="700" type="line"/>
      <point x="316" y="752" type="line"/>
      <point x="320" y="752" type="line"/>
      <point x="368" y="700" type="line"/>
      <point x="488" y="700" type="line"/>
      <point x="392" y="818" type="line"/>
      <point x="244" y="818" type="line"/>
    </contour>
    <contour>
      <point x="234" y="854" type="line"/>
      <point x="240" y="880"/>
      <point x="252" y="890"/>
      <point x="268" y="890" type="curve" smooth="yes"/>
      <point x="294" y="890"/>
      <point x="324" y="854"/>
      <point x="378" y="854" type="curve" smooth="yes"/>
      <point x="422" y="854"/>
      <point x="464" y="888"/>
      <point x="474" y="976" type="curve"/>
      <point x="402" y="976" type="line"/>
      <point x="396" y="950"/>
      <point x="384" y="940"/>
      <point x="368" y="940" type="curve" smooth="yes"/>
      <point x="342" y="940"/>
      <point x="312" y="976"/>
      <point x="258" y="976" type="curve" smooth="yes"/>
      <point x="214" y="976"/>
      <point x="172" y="942"/>
      <point x="162" y="854" type="curve"/>
    </contour>
  </outline>
</glyph>
<glyph name="Germandbls" format="1">
  <advance width="600"/>
  <outline>
    <contour>
      <point x="59" y="0" type="line"/>
      <point x="235" y="0" type="line"/>
      <point x="235" y="424" type="line" smooth="yes"/>
      <point x="235" y="489"/>
      <point x="250" y="524"/>
      <point x="297" y="524" type="curve" smooth="yes"/>
      <point x="327" y="524"/>
      <point x="347" y="500"/>
      <point x="355" y="474" type="curve"/>
      <point x="297" y="360" type="line"/>
      <point x="308" y="261" type="line"/>
      <point x="353" y="244"/>
      <point x="387" y="214"/>
      <point x="387" y="182" type="curve" smooth="yes"/>
      <point x="387" y="148"/>
      <point x="378" y="126"/>
      <point x="371" y="126" type="curve" smooth="yes"/>
      <point x="366" y="126"/>
      <point x="352" y="132"/>
      <point x="333" y="152" type="curve"/>
      <point x="245" y="48" type="line"/>
      <point x="271" y="19"/>
      <point x="319" y="-12"/>
      <point x="395" y="-12" type="curve" smooth="yes"/>
      <point x="514" y="-12"/>
      <point x="566" y="72"/>
      <point x="566" y="180" type="curve" smooth="yes"/>
      <point x="566" y="280"/>
      <point x="506" y="326"/>
      <point x="469" y="358" type="curve"/>
      <point x="524" y="468" type="line"/>
      <point x="506" y="584"/>
      <point x="421" y="662"/>
      <point x="301" y="662" type="curve" smooth="yes"/>
      <point x="125" y="662"/>
      <point x="59" y="565"/>
      <point x="59" y="446" type="curve" smooth="yes"/>
    </contour>
  </outline>
</glyph>
<glyph name="Gmacron" format="1">
  <advance width="600"/>
  <outline>
    <contour>
      <point x="40" y="320" type="curve" smooth="yes"/>
      <point x="40" y="98"/>
      <point x="178" y="-12"/>
      <point x="345" y="-12" type="curve" smooth="yes"/>
      <point x="428" y="-12"/>
      <point x="507" y="28"/>
      <point x="552" y="68" type="curve"/>
      <point x="552" y="378" type="line"/>
      <point x="318" y="378" type="line"/>
      <point x="318" y="238" type="line"/>
      <point x="399" y="238" type="line"/>
      <point x="399" y="148" type="line"/>
      <point x="389" y="140"/>
      <point x="371" y="136"/>
      <point x="355" y="136" type="curve" smooth="yes"/>
      <point x="262" y="136"/>
      <point x="217" y="204"/>
      <point x="217" y="326" type="curve" smooth="yes"/>
      <point x="217" y="444"/>
      <point x="275" y="514"/>
      <point x="346" y="514" type="curve" smooth="yes"/>
      <point x="393" y="514"/>
      <point x="419" y="498"/>
      <point x="446" y="472" type="curve"/>
      <point x="540" y="578" type="line"/>
      <point x="497" y="622"/>
      <point x="434" y="662"/>
      <point x="346" y="662" type="curve" smooth="yes"/>
      <point x="177" y="662"/>
      <point x="40" y="540"/>
    </contour>
    <contour>
      <point x="182" y="716" type="line"/>
      <point x="478" y="716" type="line"/>
      <point x="478" y="824" type="line"/>
      <point x="182" y="824" type="line"/>
    </contour>
  </outline>
</glyph>
<glyph name="Hbrevebelow" format="1">
  <advance width="600"/>
  <outline>
    <contour>
      <point x="58" y="0" type="line"/>
      <point x="230" y="0" type="line"/>
      <point x="230" y="258" type="line"/>
      <point x="370" y="258" type="line"/>
      <point x="370" y="0" type="line"/>
      <point x="542" y="0" type="line"/>
      <point x="542" y="650" type="line"/>
      <point x="370" y="650" type="line"/>
      <point x="370" y="408" type="line"/>
      <point x="230" y="408" type="line"/>
      <point x="230" y="650" type="line"/>
      <point x="58" y="650" type="line"/>
    </contour>
    <contour>
      <point x="299" y="-212" type="curve" smooth="yes"/>
      <point x="395" y="-212"/>
      <point x="441" y="-146"/>
      <point x="443" y="-68" type="curve"/>
      <point x="349" y="-68" type="line"/>
      <point x="345" y="-98"/>
      <point x="330" y="-120"/>
      <point x="299" y="-120" type="curve" smooth="yes"/>
      <point x="268" y="-120"/>
      <point x="253" y="-98"/>
      <point x="249" y="-68" type="curve"/>
      <point x="155" y="-68" type="line"/>
      <point x="157" y="-146"/>
      <point x="203" y="-212"/>
    </contour>
  </outline>
</glyph>
<glyph name="Hdotbelow" format="1">
  <advance width="600"/>
  <outline>
    <contour>
      <point x="58" y="0" type="line"/>
      <point x="230" y="0" type="line"/>
      <point x="230" y="258" type="line"/>
      <point x="370" y="258" type="line"/>
      <point x="370" y="0" type="line"/>
      <point x="542" y="0" type="line"/>
      <point x="542" y="650" type="line"/>
      <point x="370" y="650" type="line"/>
      <point x="370" y="408" type="line"/>
      <point x="230" y="408" type="line"/>
      <point x="230" y="650" type="line"/>
      <point x="58" y="650" type="line"/>
    </contour>
    <contour>
      <point x="299" y="-264" type="curve" smooth="yes"/>
      <point x="363" y="-264"/>
      <point x="409" y="-224"/>
      <point x="409" y="-164" type="curve" smooth="yes"/>
      <point x="409" y="-104"/>
      <point x="363" y="-62"/>
      <point x="299" y="-62" type="curve" smooth="yes"/>
      <point x="235" y="-62"/>
      <point x="189" y="-104"/>
      <point x="189" y="-164" type="curve" smooth="yes"/>
      <point x="189" y="-224"/>
      <point x="235" y="-264"/>
    </contour>
  </outline>
</glyph>
<glyph name="Icaron" format="1">
  <advance width="600"/>
  <outline>
    <contour>
      <point x="66" y="0" type="line"/>
      <point x="534" y="0" type="line"/>
      <point x="534" y="144" type="line"/>
      <point x="386" y="144" type="line"/>
      <point x="386" y="506" type="line"/>
      <point x="534" y="506" type="line"/>
      <point x="534" y="650" type="line"/>
      <point x="66" y="650" type="line"/>
      <point x="66" y="506" type="line"/>
      <point x="214" y="506" type="line"/>
      <point x="214" y="144" type="line"/>
      <point x="66" y="144" type="line"/>
    </contour>
    <contour>
      <point x="350" y="824" type="line"/>
      <point x="302" y="766" type="line"/>
      <point x="298" y="766" type="line"/>
      <point x="250" y="824" type="line"/>
      <point x="120" y="824" type="line"/>
      <point x="216" y="700" type="line"/>
      <point x="384" y="700" type="line"/>
      <point x="480" y="824" type="line"/>
    </contour>
  </outline>
</glyph>
<glyph name="Odotbelow" format="1">
  <advance width="600"/>
  <outline>
    <contour>
      <point x="300" y="-12" type="curve" smooth="yes"/>
      <point x="458" y="-12"/>
      <point x="566" y="114"/>
      <point x="566" y="328" type="curve" smooth="yes"/>
      <point x="566" y="541"/>
      <point x="458" y="662"/>
      <point x="300" y="662" type="curve" smooth="yes"/>
      <point x="142" y="662"/>
      <point x="34" y="542"/>
      <point x="34" y="328" type="curve" smooth="yes"/>
      <point x="34" y="114"/>
      <point x="142" y="-12"/>
    </contour>
    <contour>
      <point x="300" y="136" type="curve" smooth="yes"/>
      <point x="244" y="136"/>
      <point x="210" y="210"/>
      <point x="210" y="328" type="curve" smooth="yes"/>
      <point x="210" y="446"/>
      <point x="244" y="514"/>
      <point x="300" y="514" type="curve" smooth="yes"/>
      <point x="356" y="514"/>
      <point x="390" y="446"/>
      <point x="390" y="328" type="curve" smooth="yes"/>
      <point x="390" y="210"/>
      <point x="356" y="136"/>
    </contour>
    <contour>
      <point x="300" y="-264" type="curve" smooth="yes"/>
      <point x="364" y="-264"/>
      <point x="410" y="-224"/>
      <point x="410" y="-164" type="curve" smooth="yes"/>
      <point x="410" y="-104"/>
      <point x="364" y="-62"/>
      <point x="300" y="-62" type="curve" smooth="yes"/>
      <point x="236" y="-62"/>
      <point x="190" y="-104"/>
      <point x="190" y="-164" type="curve" smooth="yes"/>
      <point x="190" y="-224"/>
      <point x="236" y="-264"/>
    </contour>
  </outline>
</glyph>
<glyph name="Ohook" format="1">
  <advance width="600"/>
  <outline>
    <contour>
      <point x="300" y="-12" type="curve" smooth="yes"/>
      <point x="458" y="-12"/>
      <point x="566" y="114"/>
      <point x="566" y="328" type="curve" smooth="yes"/>
      <point x="566" y="541"/>
      <point x="458" y="662"/>
      <point x="300" y="662" type="curve" smooth="yes"/>
      <point x="142" y="662"/>
      <point x="34" y="542"/>
      <point x="34" y="328" type="curve" smooth="yes"/>
      <point x="34" y="114"/>
      <point x="142" y="-12"/>
    </contour>
    <contour>
      <point x="300" y="136" type="curve" smooth="yes"/>
      <point x="244" y="136"/>
      <point x="210" y="210"/>
      <point x="210" y="328" type="curve" smooth="yes"/>
      <point x="210" y="446"/>
      <point x="244" y="514"/>
      <point x="300" y="514" type="curve" smooth="yes"/>
      <point x="356" y="514"/>
      <point x="390" y="446"/>
      <point x="390" y="328" type="curve" smooth="yes"/>
      <point x="390" y="210"/>
      <point x="356" y="136"/>
    </contour>
    <contour>
      <point x="262" y="688" type="line"/>
      <point x="344" y="692"/>
      <point x="412" y="724"/>
      <point x="412" y="796" type="curve" smooth="yes"/>
      <point x="412" y="850"/>
      <point x="370" y="888"/>
      <point x="232" y="892" type="curve"/>
      <point x="212" y="808" type="line"/>
      <point x="270" y="804"/>
      <point x="290" y="794"/>
      <point x="290" y="778" type="curve" smooth="yes"/>
      <point x="290" y="762"/>
      <point x="272" y="757"/>
      <point x="250" y="754" type="curve"/>
    </contour>
  </outline>
</glyph>
<glyph name="Omega.math" format="1">
  <advance width="600"/>
  <outline>
    <contour>
      <point x="-30" y="0" type="line"/>
      <point x="262" y="0" type="line"/>
      <point x="262" y="112" type="line"/>
      <point x="190" y="174"/>
      <point x="162" y="252"/>
      <point x="162" y="350" type="curve" smooth="yes"/>
      <point x="162" y="456"/>
      <point x="216" y="524"/>
      <point x="300" y="524" type="curve" smooth="yes"/>
      <point x="384" y="524"/>
      <point x="438" y="456"/>
      <point x="438" y="350" type="curve" smooth="yes"/>
      <point x="438" y="252"/>
      <point x="410" y="174"/>
      <point x="338" y="112" type="curve"/>
      <point x="338" y="0" type="line"/>
      <point x="630" y="0" type="line"/>
      <point x="630" y="138" type="line"/>
      <point x="524" y="138" type="line"/>
      <point x="524" y="142" type="line"/>
      <point x="562" y="182"/>
      <point x="614" y="264"/>
      <point x="614" y="362" type="curve" smooth="yes"/>
      <point x="614" y="558"/>
      <point x="486" y="672"/>
      <point x="300" y="672" type="curve" smooth="yes"/>
      <point x="114" y="672"/>
      <point x="-14" y="558"/>
      <point x="-14" y="362" type="curve" smooth="yes"/>
      <point x="-14" y="264"/>
      <point x="38" y="182"/>
      <point x="76" y="142" type="curve"/>
      <point x="76" y="138" type="line"/>
      <point x="-30" y="138" type="line"/>
    </contour>
  </outline>
</glyph>
<glyph name="Tdotbelow" format="1">
  <advance width="600"/>
  <outline>
    <contour>
      <point x="214" y="0" type="line"/>
      <point x="386" y="0" type="line"/>
      <point x="386" y="506" type="line"/>
      <point x="573" y="506" type="line"/>
      <point x="573" y="650" type="line"/>
      <point x="27" y="650" type="line"/>
      <point x="27" y="506" type="line"/>
      <point x="214" y="506" type="line"/>
    </contour>
    <contour>
      <point x="300" y="-264" type="curve" smooth="yes"/>
      <point x="364" y="-264"/>
      <point x="410" y="-224"/>
      <point x="410" y="-164" type="curve" smooth="yes"/>
      <point x="410" y="-104"/>
      <point x="364" y="-62"/>
      <point x="300" y="-62" type="curve" smooth="yes"/>
      <point x="236" y="-62"/>
      <point x="190" y="-104"/>
      <point x="190" y="-164" type="curve" smooth="yes"/>
      <point x="190" y="-224"/>
      <point x="236" y="-264"/>
    </contour>
  </outline>
</glyph>
<glyph name="Uhorngrave" format="1">
  <advance width="600"/>
  <outline>
    <contour>
      <point x="384" y="700" type="line"/>
      <point x="306" y="824" type="line"/>
      <point x="126" y="824" type="line"/>
      <point x="248" y="700" type="line"/>
    </contour>
    <contour>
      <point x="524" y="758" type="line"/>
      <point x="531" y="747"/>
      <point x="540" y="730"/>
      <point x="540" y="710" type="curve" smooth="yes"/>
      <point x="540" y="656"/>
      <point x="494" y="650"/>
      <point x="460" y="650" type="curve" smooth="yes"/>
      <point x="376" y="650" type="line"/>
      <point x="376" y="232" type="line" smooth="yes"/>
      <point x="376" y="176"/>
      <point x="357" y="136"/>
      <point x="302" y="136" type="curve" smooth="yes"/>
      <point x="247" y="136"/>
      <point x="230" y="176"/>
      <point x="230" y="232" type="curve" smooth="yes"/>
      <point x="230" y="650" type="line"/>
      <point x="58" y="650" type="line"/>
      <point x="58" y="252" type="line" smooth="yes"/>
      <point x="58" y="90"/>
      <point x="132" y="-12"/>
      <point x="302" y="-12" type="curve" smooth="yes"/>
      <point x="472" y="-12"/>
      <point x="542" y="90"/>
      <point x="542" y="252" type="curve" smooth="yes"/>
      <point x="542" y="589" type="line"/>
      <point x="616" y="603"/>
      <point x="672" y="644"/>
      <point x="672" y="722" type="curve" smooth="yes"/>
      <point x="672" y="758"/>
      <point x="656" y="790"/>
      <point x="640" y="808" type="curve"/>
    </contour>
  </outline>
</glyph>
<glyph name="Uhorntilde" format="1">
  <advance width="600"/>
  <outline>
    <contour>
      <point x="394" y="846" type="line"/>
      <point x="386" y="814"/>
      <point x="372" y="804"/>
      <point x="356" y="804" type="curve" smooth="yes"/>
      <point x="328" y="804"/>
      <point x="290" y="846"/>
      <point x="236" y="846" type="curve" smooth="yes"/>
      <point x="182" y="846"/>
      <point x="132" y="802"/>
      <point x="120" y="700" type="curve"/>
      <point x="206" y="700" type="line"/>
      <point x="214" y="732"/>
      <point x="228" y="742"/>
      <point x="244" y="742" type="curve" smooth="yes"/>
      <point x="272" y="742"/>
      <point x="310" y="700"/>
      <point x="364" y="700" type="curve" smooth="yes"/>
      <point x="418" y="700"/>
      <point x="468" y="744"/>
      <point x="480" y="846" type="curve"/>
    </contour>
    <contour>
      <point x="524" y="758" type="line"/>
      <point x="531" y="747"/>
      <point x="540" y="730"/>
      <point x="540" y="710" type="curve" smooth="yes"/>
      <point x="540" y="656"/>
      <point x="494" y="650"/>
      <point x="460" y="650" type="curve" smooth="yes"/>
      <point x="376" y="650" type="line"/>
      <point x="376" y="232" type="line" smooth="yes"/>
      <point x="376" y="176"/>
      <point x="357" y="136"/>
      <point x="302" y="136" type="curve" smooth="yes"/>
      <point x="247" y="136"/>
      <point x="230" y="176"/>
      <point x="230" y="232" type="curve" smooth="yes"/>
      <point x="230" y="650" type="line"/>
      <point x="58" y="650" type="line"/>
      <point x="58" y="252" type="line" smooth="yes"/>
      <point x="58" y="90"/>
      <point x="132" y="-12"/>
      <point x="302" y="-12" type="curve" smooth="yes"/>
      <point x="472" y="-12"/>
      <point x="542" y="90"/>
      <point x="542" y="252" type="curve" smooth="yes"/>
      <point x="542" y="589" type="line"/>
      <point x="616" y="603"/>
      <point x="672" y="644"/>
      <point x="672" y="722" type="curve" smooth="yes"/>
      <point x="672" y="758"/>
      <point x="656" y="790"/>
      <point x="640" y="808" type="curve"/>
    </contour>
  </outline>
</glyph>
<glyph name="Ydotaccent" format="1">
  <advance width="600"/>
  <outline>
    <contour>
      <point x="214" y="0" type="line"/>
      <point x="386" y="0" type="line"/>
      <point x="386" y="215" type="line"/>
      <point x="592" y="650" type="line"/>
      <point x="412" y="650" type="line"/>
      <point x="358" y="508" type="line" smooth="yes"/>
      <point x="340" y="458"/>
      <point x="321" y="412"/>
      <point x="303" y="360" type="curve"/>
      <point x="299" y="360" type="line"/>
      <point x="281" y="412"/>
      <point x="263" y="458"/>
      <point x="246" y="508" type="curve" smooth="yes"/>
      <point x="192" y="650" type="line"/>
      <point x="8" y="650" type="line"/>
      <point x="214" y="215" type="line"/>
    </contour>
    <contour>
      <point x="300" y="696" type="curve" smooth="yes"/>
      <point x="356" y="696"/>
      <point x="396" y="732"/>
      <point x="396" y="782" type="curve" smooth="yes"/>
      <point x="396" y="832"/>
      <point x="356" y="868"/>
      <point x="300" y="868" type="curve" smooth="yes"/>
      <point x="244" y="868"/>
      <point x="204" y="832"/>
      <point x="204" y="782" type="curve" smooth="yes"/>
      <point x="204" y="732"/>
      <point x="244" y="696"/>
    </contour>
  </outline>
</glyph>
<glyph name="Yhookabove" format="1">
  <advance width="600"/>
  <outline>
    <contour>
      <point x="214" y="0" type="line"/>
      <point x="386" y="0" type="line"/>
      <point x="386" y="215" type="line"/>
      <point x="592" y="650" type="line"/>
      <point x="412" y="650" type="line"/>
      <point x="358" y="508" type="line" smooth="yes"/>
      <point x="340" y="458"/>
      <point x="321" y="412"/>
      <point x="303" y="360" type="curve"/>
      <point x="299" y="360" type="line"/>
      <point x="281" y="412"/>
      <point x="263" y="458"/>
      <point x="246" y="508" type="curve" smooth="yes"/>
      <point x="192" y="650" type="line"/>
      <point x="8" y="650" type="line"/>
      <point x="214" y="215" type="line"/>
    </contour>
    <contour>
      <point x="262" y="688" type="line"/>
      <point x="344" y="692"/>
      <point x="412" y="724"/>
      <point x="412" y="796" type="curve" smooth="yes"/>
      <point x="412" y="850"/>
      <point x="370" y="888"/>
      <point x="232" y="892" type="curve"/>
      <point x="212" y="808" type="line"/>
      <point x="270" y="804"/>
      <point x="290" y="794"/>
      <point x="290" y="778" type="curve" smooth="yes"/>
      <point x="290" y="762"/>
      <point x="272" y="757"/>
      <point x="250" y="754" type="curve"/>
    </contour>
  </outline>
</glyph>
<glyph name="Zdotbelow" format="1">
  <advance width="600"/>
  <outline>
    <contour>
      <point x="53" y="0" type="line"/>
      <point x="550" y="0" type="line"/>
      <point x="550" y="144" type="line"/>
      <point x="265" y="144" type="line"/>
      <point x="547" y="546" type="line"/>
      <point x="547" y="650" type="line"/>
      <point x="80" y="650" type="line"/>
      <point x="80" y="506" type="line"/>
      <point x="335" y="506" type="line"/>
      <point x="53" y="104" type="line"/>
    </contour>
    <contour>
      <point x="310" y="-264" type="curve" smooth="yes"/>
      <point x="374" y="-264"/>
      <point x="420" y="-224"/>
      <point x="420" y="-164" type="curve" smooth="yes"/>
      <point x="420" y="-104"/>
      <point x="374" y="-62"/>
      <point x="310" y="-62" type="curve" smooth="yes"/>
      <point x="246" y="-62"/>
      <point x="200" y="-104"/>
      <point x="200" y="-164" type="curve" smooth="yes"/>
      <point x="200" y="-224"/>
      <point x="246" y="-264"/>
    </contour>
  </outline>
</glyph>
<glyph name=".notdef" format="1">
  <advance width="600"/>
  <outline>
    <contour>
      <point x="24" y="0" type="line"/>
      <point x="576" y="0" type="line"/>
      <point x="576" y="660" type="line"/>
      <point x="24" y="660" type="line"/>
    </contour>
    <contour>
      <point x="136" y="172" type="line"/>
      <point x="136" y="508" type="line"/>
      <point x="218" y="340" type="line"/>
    </contour>
    <contour>
      <point x="382" y="340" type="line"/>
      <point x="464" y="508" type="line"/>
      <point x="464" y="172" type="line"/>
    </contour>
    <contour>
      <point x="236" y="104" type="line"/>
      <point x="262" y="160" type="line"/>
      <point x="298" y="256" type="line"/>
      <point x="302" y="256" type="line"/>
      <point x="338" y="160" type="line"/>
      <point x="364" y="104" type="line"/>
    </contour>
    <contour>
      <point x="298" y="424" type="line"/>
      <point x="258" y="520" type="line"/>
      <point x="240" y="556" type="line"/>
      <point x="360" y="556" type="line"/>
      <point x="342" y="520" type="line"/>
      <point x="302" y="424" type="line"/>
    </contour>
  </outline>
</glyph>
<glyph name="a.sups" format="1">
  <advance width="600"/>
  <outline>
    <contour>
      <point x="149" y="354" type="curve" smooth="yes"/>
      <point x="149" y="301"/>
      <point x="190" y="252"/>
      <point x="254" y="252" type="curve" smooth="yes"/>
      <point x="289" y="252"/>
      <point x="322" y="268"/>
      <point x="349" y="291" type="curve"/>
      <point x="352" y="291" type="line"/>
      <point x="360" y="260" type="line"/>
      <point x="457" y="260" type="line"/>
      <point x="457" y="443" type="line" smooth="yes"/>
      <point x="457" y="553"/>
      <point x="399" y="599"/>
      <point x="312" y="599" type="curve" smooth="yes"/>
      <point x="260" y="599"/>
      <point x="207" y="583"/>
      <point x="159" y="555" type="curve"/>
      <point x="201" y="478" type="line"/>
      <point x="236" y="497"/>
      <point x="265" y="506"/>
      <point x="288" y="506" type="curve" smooth="yes"/>
      <point x="316" y="506"/>
      <point x="335" y="497"/>
      <point x="338" y="475" type="curve"/>
      <point x="204" y="462"/>
      <point x="149" y="423"/>
    </contour>
    <contour>
      <point x="263" y="364" type="curve" smooth="yes"/>
      <point x="263" y="381"/>
      <point x="281" y="397"/>
      <point x="338" y="405" type="curve"/>
      <point x="338" y="363" type="line"/>
      <point x="327" y="351"/>
      <point x="311" y="342"/>
      <point x="293" y="342" type="curve" smooth="yes"/>
      <point x="274" y="342"/>
      <point x="263" y="350"/>
    </contour>
  </outline>
</glyph>
